{"glyphs":{"0":{"ha":907,"x_min":0,"x_max":0,"o":"m 453 -22 b 850 494 718 -22 850 167 b 453 1011 850 822 717 1011 b 57 494 190 1011 57 822 b 453 -22 57 167 190 -22 z m 453 136 b 253 494 325 136 253 243 b 453 853 253 746 325 853 b 654 494 582 853 654 746 b 453 136 654 243 583 136 z "},"1":{"ha":546,"x_min":0,"x_max":0,"o":"m 464 989 l 315 989 b 71 800 285 847 199 808 l 49 799 l 49 667 l 276 667 l 276 0 l 464 0 z "},"2":{"ha":819,"x_min":0,"x_max":0,"o":"m 264 158 b 410 333 271 243 317 283 l 501 382 b 763 719 675 468 763 563 b 417 1011 763 888 632 1011 b 60 672 176 1011 58 879 l 240 672 b 411 853 240 799 304 853 b 574 706 515 853 574 794 b 415 514 574 619 528 568 l 318 464 b 58 74 93 363 65 204 l 54 0 l 774 0 l 774 158 z "},"3":{"ha":853,"x_min":0,"x_max":0,"o":"m 643 528 b 782 740 725 568 782 643 b 435 1011 782 910 644 1011 b 76 701 203 1011 81 896 l 257 701 b 433 858 263 815 331 858 b 600 725 538 858 600 808 b 426 588 600 633 539 588 l 354 588 l 354 450 l 428 450 b 617 290 546 450 617 393 b 435 136 617 196 549 136 b 235 328 307 136 238 196 l 53 328 b 440 -22 53 115 181 -22 b 811 283 669 -22 811 103 b 643 528 811 404 740 488 z "},"4":{"ha":874,"x_min":0,"x_max":0,"o":"m 840 386 l 708 386 l 708 989 l 503 989 l 40 406 l 40 228 l 521 228 l 521 0 l 708 0 l 708 228 l 840 228 z m 525 788 l 525 386 l 207 386 z "},"5":{"ha":839,"x_min":0,"x_max":0,"o":"m 453 650 b 272 585 383 650 321 625 l 315 831 l 740 831 l 740 989 l 168 989 l 76 413 l 249 413 b 422 513 278 472 335 513 b 611 321 536 513 611 433 b 422 129 611 208 536 129 b 236 282 325 129 250 186 l 57 282 b 422 -22 71 93 222 -22 b 792 321 640 -22 792 115 b 453 650 792 496 681 650 z "},"6":{"ha":865,"x_min":0,"x_max":0,"o":"m 479 650 b 232 526 374 650 285 604 b 453 867 240 767 313 867 b 625 736 544 867 607 825 l 801 736 b 451 1011 774 911 640 1011 b 57 481 192 1011 57 815 b 214 49 57 293 96 138 b 449 -22 274 4 356 -22 b 815 321 665 -22 815 115 b 479 650 815 496 700 650 z m 449 129 b 261 318 338 129 261 207 b 449 507 261 429 338 507 b 633 318 560 507 633 426 b 449 129 633 208 560 129 z "},"7":{"ha":721,"x_min":0,"x_max":0,"o":"m 22 989 l 22 831 l 507 831 b 179 0 306 610 185 329 l 374 0 b 699 839 379 361 479 608 l 699 989 z "},"8":{"ha":849,"x_min":0,"x_max":0,"o":"m 640 525 b 771 738 724 568 771 642 b 425 1011 771 910 628 1011 b 79 738 222 1011 79 910 b 210 525 79 642 126 568 b 39 281 97 481 39 397 b 425 -22 39 99 188 -22 b 813 281 664 -22 813 99 b 640 525 813 397 754 481 z m 425 869 b 600 726 529 869 600 818 b 425 586 600 638 531 586 b 250 726 319 586 250 638 b 425 869 250 818 322 869 z m 425 128 b 225 292 299 128 225 189 b 425 457 225 397 300 457 b 625 292 550 457 625 397 b 425 128 625 189 553 128 z "},"9":{"ha":865,"x_min":0,"x_max":0,"o":"m 651 935 b 418 1006 592 979 511 1006 b 50 661 201 1006 50 867 b 386 333 50 488 167 333 b 633 457 492 333 581 379 b 421 117 626 222 560 117 b 240 247 322 117 258 158 l 65 247 b 422 -28 92 72 226 -28 b 808 503 679 -28 808 174 b 651 935 808 690 769 844 z m 418 476 b 232 665 307 476 232 556 b 418 854 232 774 307 854 b 604 665 529 854 604 775 b 418 476 604 554 529 476 z "},"\u0000":{"ha":0,"x_min":0,"x_max":0,"o":""},"\r":{"ha":300,"x_min":0,"x_max":0,"o":""}," ":{"ha":300,"x_min":0,"x_max":0,"o":""},"!":{"ha":310,"x_min":0,"x_max":0,"o":"m 104 301 l 203 301 l 249 735 l 249 989 l 61 989 l 61 735 z m 53 0 l 257 0 l 257 199 l 53 199 z "},"\"":{"ha":647,"x_min":0,"x_max":0,"o":"m 110 568 l 240 568 l 268 989 l 81 989 z m 407 568 l 538 568 l 567 989 l 379 989 z "},"#":{"ha":943,"x_min":0,"x_max":0,"o":"m 878 588 l 907 731 l 776 731 l 829 989 l 668 989 l 615 731 l 422 731 l 475 989 l 314 989 l 261 731 l 132 731 l 103 588 l 232 588 l 194 401 l 65 401 l 36 258 l 165 258 l 113 0 l 274 0 l 326 258 l 519 258 l 467 0 l 628 0 l 681 258 l 811 258 l 840 401 l 710 401 l 747 588 z m 549 401 l 356 401 l 393 588 l 586 588 z "},"$":{"ha":885,"x_min":0,"x_max":0,"o":"m 857 282 b 529 575 857 439 763 529 l 497 581 l 497 856 b 646 694 601 839 640 782 l 828 694 b 497 1008 821 864 724 986 l 497 1150 l 397 1150 l 397 1011 b 58 732 178 1001 58 889 b 376 432 58 553 185 468 l 397 428 l 397 133 b 218 326 293 146 221 197 l 33 326 b 397 -19 35 117 169 -3 l 397 -161 l 497 -161 l 497 -21 b 857 282 721 -10 857 97 z m 250 738 b 397 858 250 806 299 851 l 397 603 b 250 738 286 631 250 667 z m 497 131 l 497 407 b 663 272 619 378 663 343 b 497 131 663 188 604 139 z "},"%":{"ha":1251,"x_min":0,"x_max":0,"o":"m 269 403 b 511 701 432 403 511 514 b 269 1001 511 890 432 1001 b 28 701 107 1001 28 890 b 269 403 28 514 107 403 z m 299 0 l 425 0 l 953 989 l 826 989 z m 269 514 b 165 701 203 514 165 567 b 269 890 165 838 203 890 b 374 701 338 890 374 838 b 269 514 374 567 338 514 z m 982 -12 b 1224 286 1143 -12 1224 99 b 982 586 1224 475 1143 586 b 740 286 819 586 740 475 b 982 -12 740 99 819 -12 z m 982 99 b 876 286 914 99 876 151 b 982 475 876 422 914 475 b 1086 286 1049 475 1086 422 b 982 99 1086 151 1049 99 z "},"&":{"ha":963,"x_min":0,"x_max":0,"o":"m 963 0 l 778 206 b 861 486 828 288 857 385 l 700 486 b 667 328 699 432 688 378 l 494 519 b 699 782 626 588 699 678 b 422 1011 699 924 581 1011 b 144 774 246 1011 144 904 b 251 553 144 697 178 638 b 36 267 114 483 36 401 b 375 -22 36 103 160 -22 b 671 82 492 -22 592 17 l 743 0 z m 428 871 b 536 774 490 871 536 829 b 408 617 536 713 493 664 l 406 619 b 321 774 347 683 321 732 b 428 871 321 832 367 871 z m 390 128 b 219 281 281 128 219 201 b 340 451 219 361 265 410 l 572 193 b 390 128 524 153 464 128 z "},"'":{"ha":350,"x_min":0,"x_max":0,"o":"m 110 568 l 240 568 l 268 989 l 81 989 z "},"(":{"ha":403,"x_min":0,"x_max":0,"o":"m 233 -272 l 394 -272 b 240 407 283 -57 240 147 b 394 1090 240 675 283 881 l 233 1090 b 60 407 121 897 60 682 b 233 -272 60 136 121 -78 z "},")":{"ha":403,"x_min":0,"x_max":0,"o":"m 8 -272 l 168 -272 b 343 407 282 -78 343 136 b 168 1090 343 682 282 897 l 8 1090 b 163 407 119 881 163 675 b 8 -272 163 147 119 -57 z "},"*":{"ha":644,"x_min":0,"x_max":0,"o":"m 203 435 l 322 596 l 442 435 l 535 508 l 414 674 l 608 736 l 569 847 l 382 788 l 382 989 l 263 989 l 263 788 l 76 847 l 38 736 l 232 674 l 110 508 z "},"+":{"ha":733,"x_min":0,"x_max":0,"o":"m 688 569 l 449 569 l 449 810 l 286 810 l 286 569 l 46 569 l 46 419 l 286 419 l 286 181 l 449 181 l 449 419 l 688 419 z "},",":{"ha":310,"x_min":0,"x_max":0,"o":"m 53 199 l 53 0 l 140 0 l 140 -24 b 76 -117 140 -83 121 -114 l 53 -118 l 53 -218 l 78 -218 b 257 -15 193 -214 257 -153 l 257 199 z "},"-":{"ha":506,"x_min":0,"x_max":0,"o":"m 46 315 l 458 315 l 458 465 l 46 465 z "},".":{"ha":310,"x_min":0,"x_max":0,"o":"m 53 0 l 257 0 l 257 199 l 53 199 z "},"/":{"ha":540,"x_min":0,"x_max":0,"o":"m 8 0 l 178 0 l 532 989 l 363 989 z "},":":{"ha":310,"x_min":0,"x_max":0,"o":"m 53 483 l 257 483 l 257 682 l 53 682 z m 53 0 l 257 0 l 257 199 l 53 199 z "},";":{"ha":310,"x_min":0,"x_max":0,"o":"m 53 681 l 53 482 l 257 482 l 257 681 z m 53 0 l 140 0 l 140 -24 b 76 -117 140 -83 121 -114 l 53 -118 l 53 -218 l 78 -218 b 257 -15 193 -214 257 -153 l 257 199 l 53 199 z "},"<":{"ha":733,"x_min":0,"x_max":0,"o":"m 688 665 l 688 840 l 46 582 l 46 408 l 688 150 l 688 325 l 560 376 b 215 494 450 415 331 457 b 560 614 331 532 450 575 z "},"=":{"ha":733,"x_min":0,"x_max":0,"o":"m 46 553 l 688 553 l 688 696 l 46 696 z m 46 293 l 688 293 l 688 436 l 46 436 z "},">":{"ha":733,"x_min":0,"x_max":0,"o":"m 46 840 l 46 665 l 174 614 b 518 494 283 575 403 532 b 174 376 403 457 283 415 l 46 325 l 46 150 l 688 408 l 688 582 z "},"?":{"ha":738,"x_min":0,"x_max":0,"o":"m 271 301 l 440 301 b 460 408 440 354 442 379 b 561 506 479 443 517 472 b 706 749 651 574 706 649 b 375 1011 706 919 574 1011 b 29 683 157 1011 29 906 l 206 683 b 372 861 211 815 265 861 b 518 735 475 861 518 811 b 408 583 518 668 464 625 b 301 471 365 550 324 517 b 271 301 278 425 271 394 z m 254 0 l 457 0 l 457 199 l 254 199 z "},"@":{"ha":1282,"x_min":0,"x_max":0,"o":"m 644 1011 b 39 421 278 1011 39 756 b 650 -168 39 72 282 -168 b 928 -119 751 -168 846 -151 l 928 1 b 653 -49 847 -32 754 -49 b 176 421 374 -49 176 128 b 643 888 176 696 360 888 b 1107 478 939 888 1107 714 b 989 246 1107 343 1068 246 b 917 344 942 246 917 276 l 917 717 l 760 717 l 760 646 b 593 733 724 704 669 733 b 343 425 451 733 343 622 b 593 114 343 219 449 114 b 785 232 678 114 749 153 b 972 111 807 156 876 111 b 1243 483 1149 111 1243 272 b 644 1011 1243 792 996 1011 z m 632 242 b 501 425 543 242 501 308 b 632 606 501 536 542 606 b 763 425 719 606 763 536 b 632 242 763 308 719 242 z "},"A":{"ha":997,"x_min":0,"x_max":0,"o":"m 789 0 l 988 0 l 604 989 l 385 989 l 8 0 l 201 0 l 278 218 l 711 218 z m 335 378 l 372 485 b 493 824 406 575 453 707 b 615 485 533 707 581 575 l 654 378 z "},"B":{"ha":915,"x_min":0,"x_max":0,"o":"m 715 521 b 847 733 797 563 847 636 b 528 989 847 868 756 989 l 81 989 l 81 0 l 543 0 b 888 283 776 0 888 114 b 715 521 888 382 832 478 z m 514 835 b 661 710 611 835 661 783 b 514 576 661 628 611 576 l 268 576 l 268 835 z m 533 156 l 268 156 l 268 429 l 533 429 b 696 292 635 429 696 385 b 533 156 696 206 639 156 z "},"C":{"ha":1007,"x_min":0,"x_max":0,"o":"m 518 -22 b 971 372 744 -22 943 111 l 783 372 b 518 142 761 217 644 142 b 235 494 342 142 235 272 b 518 847 235 715 342 847 b 776 649 639 847 742 788 l 967 649 b 518 1011 924 893 738 1011 b 39 494 232 1011 39 814 b 518 -22 39 175 236 -22 z "},"D":{"ha":994,"x_min":0,"x_max":0,"o":"m 458 989 l 81 989 l 81 0 l 458 0 b 954 494 781 0 954 193 b 458 989 954 796 781 989 z m 456 161 l 268 161 l 268 828 l 456 828 b 760 494 647 828 760 714 b 456 161 760 275 647 161 z "},"E":{"ha":844,"x_min":0,"x_max":0,"o":"m 810 821 l 810 989 l 81 989 l 81 0 l 807 0 l 807 168 l 268 168 l 268 426 l 758 426 l 758 588 l 268 588 l 268 821 z "},"F":{"ha":800,"x_min":0,"x_max":0,"o":"m 779 821 l 779 989 l 81 989 l 81 0 l 268 0 l 268 426 l 733 426 l 733 588 l 268 588 l 268 821 z "},"G":{"ha":1063,"x_min":0,"x_max":0,"o":"m 554 533 l 554 382 l 813 382 b 536 142 803 238 682 142 b 235 494 350 142 235 276 b 529 847 235 713 347 847 b 792 660 665 847 764 775 l 985 660 b 528 1011 951 874 778 1011 b 39 494 226 1011 39 806 b 511 -22 39 183 226 -22 b 833 131 650 -22 764 32 l 860 0 l 996 0 l 996 533 z "},"H":{"ha":996,"x_min":0,"x_max":0,"o":"m 728 989 l 728 592 l 268 592 l 268 989 l 81 989 l 81 0 l 268 0 l 268 422 l 728 422 l 728 0 l 915 0 l 915 989 z "},"I":{"ha":350,"x_min":0,"x_max":0,"o":"m 81 0 l 268 0 l 268 989 l 81 989 z "},"J":{"ha":763,"x_min":0,"x_max":0,"o":"m 363 -22 b 694 289 578 -22 694 108 l 694 989 l 508 989 l 508 289 b 361 139 508 190 451 139 b 215 289 272 139 215 190 l 215 353 l 36 353 l 36 289 b 363 -22 36 99 157 -22 z "},"K":{"ha":972,"x_min":0,"x_max":0,"o":"m 964 989 l 731 989 l 268 522 l 268 989 l 81 989 l 81 0 l 268 0 l 268 310 l 424 461 l 740 0 l 964 0 l 557 586 z "},"L":{"ha":761,"x_min":0,"x_max":0,"o":"m 268 168 l 268 989 l 81 989 l 81 0 l 739 0 l 739 168 z "},"M":{"ha":1215,"x_min":0,"x_max":0,"o":"m 861 989 l 696 518 b 608 240 665 429 633 326 b 524 508 583 322 553 419 l 353 989 l 81 989 l 81 0 l 261 0 l 261 301 b 256 789 261 450 260 611 b 329 564 278 715 300 649 l 531 0 l 685 0 l 885 564 b 960 792 915 650 938 717 b 954 301 956 613 954 451 l 954 0 l 1133 0 l 1133 989 z "},"N":{"ha":997,"x_min":0,"x_max":0,"o":"m 735 989 l 735 731 b 740 251 735 585 736 426 b 565 549 690 344 621 458 l 289 989 l 81 989 l 81 0 l 261 0 l 261 258 b 256 738 261 404 261 563 b 432 440 306 642 369 539 l 707 0 l 915 0 l 915 989 z "},"O":{"ha":1067,"x_min":0,"x_max":0,"o":"m 533 -22 b 1026 494 829 -22 1026 183 b 533 1011 1026 806 829 1011 b 39 494 236 1011 39 806 b 533 -22 39 183 236 -22 z m 533 143 b 235 494 353 143 235 276 b 533 846 235 713 353 846 b 832 494 714 846 832 713 b 533 143 832 276 714 143 z "},"P":{"ha":904,"x_min":0,"x_max":0,"o":"m 515 989 l 81 989 l 81 0 l 268 0 l 268 346 l 515 346 b 865 667 743 346 865 476 b 515 989 865 858 743 989 z m 507 507 l 268 507 l 268 828 l 507 828 b 676 667 617 828 676 769 b 507 507 676 564 617 507 z "},"Q":{"ha":1067,"x_min":0,"x_max":0,"o":"m 1026 494 b 533 1011 1026 806 829 1011 b 39 494 236 1011 39 806 b 533 -22 39 183 236 -22 b 786 39 629 -22 715 0 l 913 -97 l 1010 -4 l 893 122 b 1026 494 978 213 1026 340 z m 533 143 b 235 494 353 143 235 276 b 533 846 235 713 353 846 b 832 494 714 846 832 713 b 767 258 832 397 808 318 l 649 388 l 550 294 l 664 171 b 533 143 626 153 582 143 z "},"R":{"ha":924,"x_min":0,"x_max":0,"o":"m 864 115 l 856 263 b 713 474 851 365 822 439 b 878 710 819 511 878 596 b 529 989 878 876 757 989 l 81 989 l 81 0 l 268 0 l 268 388 l 513 388 b 671 226 613 388 665 353 l 675 118 b 701 0 676 69 683 29 l 894 0 b 864 115 875 29 865 72 z m 268 535 l 268 835 l 511 835 b 685 689 619 835 685 786 b 518 535 685 588 619 535 z "},"S":{"ha":885,"x_min":0,"x_max":0,"o":"m 457 -22 b 857 282 704 -22 857 86 b 529 575 857 439 763 529 l 443 592 b 250 738 296 622 250 658 b 428 860 250 813 308 860 b 646 694 585 860 639 800 l 828 694 b 425 1011 821 881 703 1011 b 58 732 188 1011 58 896 b 376 432 58 553 185 468 l 460 415 b 663 272 611 385 663 350 b 463 129 663 179 592 129 b 218 326 325 129 221 171 l 33 326 b 457 -22 35 99 193 -22 z "},"T":{"ha":867,"x_min":0,"x_max":0,"o":"m 844 989 l 22 989 l 22 821 l 339 821 l 339 0 l 528 0 l 528 821 l 844 821 z "},"U":{"ha":961,"x_min":0,"x_max":0,"o":"m 481 -21 b 894 372 735 -21 894 115 l 894 989 l 707 989 l 707 371 b 481 142 707 215 622 142 b 254 371 339 142 254 215 l 254 989 l 67 989 l 67 372 b 481 -21 67 115 232 -21 z "},"V":{"ha":953,"x_min":0,"x_max":0,"o":"m 750 989 l 575 478 b 482 169 543 381 510 275 b 388 478 453 275 419 381 l 208 989 l 8 989 l 371 0 l 590 0 l 944 989 z "},"W":{"ha":1358,"x_min":0,"x_max":0,"o":"m 1156 989 l 1051 590 b 961 213 1021 468 989 338 b 878 592 936 338 908 468 l 776 989 l 583 989 l 482 592 b 397 214 453 468 424 339 b 307 590 371 339 338 468 l 204 989 l 8 989 l 283 0 l 493 0 l 599 411 b 679 761 628 525 656 644 b 760 411 703 644 732 525 l 865 0 l 1076 0 l 1350 989 z "},"X":{"ha":929,"x_min":0,"x_max":0,"o":"m 575 508 l 901 989 l 690 989 l 590 842 b 467 651 547 778 507 714 b 344 842 428 714 388 778 l 246 989 l 29 989 l 357 504 l 8 0 l 221 0 l 331 160 b 463 361 376 226 419 293 b 594 160 506 293 549 226 l 703 0 l 921 0 z "},"Y":{"ha":949,"x_min":0,"x_max":0,"o":"m 733 989 l 625 811 b 479 560 576 729 526 644 b 331 810 432 643 381 726 l 221 989 l 8 989 l 382 390 l 382 0 l 569 0 l 569 390 l 940 989 z "},"Z":{"ha":871,"x_min":0,"x_max":0,"o":"m 558 168 b 272 165 464 168 368 167 b 453 379 333 236 393 307 l 828 838 l 828 989 l 54 989 l 54 821 l 301 821 b 588 824 396 821 492 822 b 407 610 526 753 467 682 l 35 153 l 35 0 l 836 0 l 836 168 z "},"[":{"ha":481,"x_min":0,"x_max":0,"o":"m 81 -272 l 458 -272 l 458 -125 l 249 -125 l 249 943 l 458 943 l 458 1090 l 81 1090 z "},"\\":{"ha":540,"x_min":0,"x_max":0,"o":"m 363 0 l 532 0 l 178 989 l 8 989 z "},"]":{"ha":481,"x_min":0,"x_max":0,"o":"m 22 -272 l 399 -272 l 399 1090 l 22 1090 l 22 943 l 232 943 l 232 -125 l 22 -125 z "},"^":{"ha":599,"x_min":0,"x_max":0,"o":"m 383 989 l 214 989 l 4 582 l 165 582 l 269 792 b 300 858 281 815 290 836 b 329 792 308 836 318 815 l 433 582 l 594 582 z "},"_":{"ha":642,"x_min":0,"x_max":0,"o":"m -1 -236 l 643 -236 l 643 -103 l -1 -103 z "},"`":{"ha":556,"x_min":0,"x_max":0,"o":"m 296 810 l 439 810 l 318 1010 l 117 1010 z "},"a":{"ha":749,"x_min":0,"x_max":0,"o":"m 715 0 b 686 136 696 28 686 85 l 686 518 b 388 733 686 647 601 733 b 65 489 164 733 75 640 l 238 489 b 386 603 244 576 286 603 b 517 514 488 603 517 569 b 415 432 517 461 482 440 l 307 422 b 32 199 104 403 32 318 b 290 -17 32 60 138 -17 b 521 88 396 -17 474 21 b 540 0 524 53 529 19 z m 332 108 b 211 206 251 108 211 146 b 340 308 211 263 243 297 l 435 319 b 517 349 472 324 499 332 l 517 283 b 332 108 517 158 425 108 z "},"b":{"ha":828,"x_min":0,"x_max":0,"o":"m 468 733 b 246 624 368 733 294 693 l 246 989 l 71 989 l 71 0 l 239 0 l 239 103 b 468 -17 288 28 364 -17 b 789 358 665 -17 789 131 b 468 733 789 586 665 733 z m 426 128 b 242 358 313 128 242 207 b 426 589 242 510 313 589 b 611 364 540 589 611 515 b 426 128 611 213 540 128 z "},"c":{"ha":754,"x_min":0,"x_max":0,"o":"m 393 -17 b 729 267 576 -17 710 92 l 554 267 b 393 129 540 172 472 129 b 218 358 292 129 218 201 b 393 588 218 515 289 588 b 551 458 471 588 535 547 l 726 458 b 393 733 706 626 581 733 b 39 358 179 733 39 588 b 393 -17 39 129 181 -17 z "},"d":{"ha":828,"x_min":0,"x_max":0,"o":"m 582 989 l 582 624 b 361 733 533 693 460 733 b 39 358 163 733 39 586 b 361 -17 39 131 163 -17 b 588 100 464 -17 539 28 l 588 0 l 757 0 l 757 989 z m 401 128 b 218 353 289 128 218 201 b 401 589 218 504 289 589 b 586 358 515 589 586 510 b 401 128 586 207 515 128 z "},"e":{"ha":789,"x_min":0,"x_max":0,"o":"m 747 346 b 393 733 747 574 613 733 b 39 358 181 733 39 583 b 396 -17 39 129 185 -17 b 729 222 568 -17 693 76 l 561 222 b 397 119 535 158 481 119 b 211 304 296 119 224 176 l 747 304 z m 392 597 b 572 426 496 597 558 528 l 213 426 b 392 597 229 544 299 597 z "},"f":{"ha":485,"x_min":0,"x_max":0,"o":"m 393 854 l 454 854 l 454 989 b 364 993 429 992 392 993 b 129 771 192 993 129 897 l 129 717 l 18 717 l 18 583 l 129 583 l 129 0 l 303 0 l 303 583 l 450 583 l 450 717 l 303 717 l 303 768 b 393 854 303 824 331 854 z "},"g":{"ha":828,"x_min":0,"x_max":0,"o":"m 588 717 l 588 618 b 361 733 540 690 465 733 b 39 368 165 733 39 588 b 363 3 39 150 168 3 b 582 110 463 3 535 43 l 582 19 b 406 -154 582 -93 521 -154 b 246 -39 310 -154 254 -115 l 74 -39 b 403 -289 85 -187 196 -289 b 757 24 636 -289 757 -165 l 757 717 z m 401 147 b 218 367 289 147 218 228 b 401 589 218 506 289 589 b 586 368 515 589 586 511 b 401 147 586 226 515 147 z "},"h":{"ha":786,"x_min":0,"x_max":0,"o":"m 464 733 b 246 621 367 733 293 686 l 246 989 l 71 989 l 71 0 l 246 0 l 246 401 b 406 582 246 529 329 582 b 540 446 494 582 540 538 l 540 0 l 715 0 l 715 475 b 464 733 715 646 614 733 z "},"i":{"ha":317,"x_min":0,"x_max":0,"o":"m 72 810 l 244 810 l 244 974 l 72 974 z m 71 0 l 246 0 l 246 717 l 71 717 z "},"j":{"ha":317,"x_min":0,"x_max":0,"o":"m 72 810 l 244 810 l 244 974 l 72 974 z m 35 -276 b 246 -93 172 -276 246 -225 l 246 717 l 71 717 l 71 -74 b 3 -136 71 -121 47 -136 l -32 -136 l -32 -274 b 35 -276 -10 -275 7 -276 z "},"k":{"ha":764,"x_min":0,"x_max":0,"o":"m 560 0 l 760 0 l 472 446 l 743 717 l 535 717 l 243 419 l 243 989 l 71 989 l 71 0 l 243 0 l 243 225 l 351 333 z "},"l":{"ha":317,"x_min":0,"x_max":0,"o":"m 71 0 l 246 0 l 246 989 l 71 989 z "},"m":{"ha":1210,"x_min":0,"x_max":0,"o":"m 889 733 b 667 600 789 733 714 676 b 444 733 631 682 554 733 b 240 614 350 733 283 683 l 240 717 l 71 717 l 71 0 l 246 0 l 246 394 b 393 582 246 529 319 582 b 518 446 476 582 518 538 l 518 0 l 692 0 l 692 394 b 840 582 692 529 764 582 b 964 446 924 582 964 538 l 964 0 l 1139 0 l 1139 474 b 889 733 1139 632 1049 733 z "},"n":{"ha":786,"x_min":0,"x_max":0,"o":"m 464 733 b 240 614 363 733 286 682 l 240 717 l 71 717 l 71 0 l 246 0 l 246 401 b 406 582 246 529 329 582 b 540 446 494 582 540 538 l 540 0 l 715 0 l 715 475 b 464 733 715 646 614 733 z "},"o":{"ha":807,"x_min":0,"x_max":0,"o":"m 404 -17 b 768 358 622 -17 768 131 b 404 733 768 586 622 733 b 39 358 186 733 39 586 b 404 -17 39 131 186 -17 z m 404 128 b 218 358 290 128 218 207 b 404 589 218 510 290 589 b 590 358 517 589 590 510 b 404 128 590 207 517 128 z "},"p":{"ha":828,"x_min":0,"x_max":0,"o":"m 468 733 b 239 614 364 733 288 689 l 239 717 l 71 717 l 71 -272 l 246 -272 l 246 93 b 468 -17 294 24 368 -17 b 789 358 665 -17 789 131 b 468 733 789 586 665 733 z m 426 128 b 242 358 313 128 242 207 b 426 589 242 510 313 589 b 611 364 540 589 611 515 b 426 128 611 213 540 128 z "},"q":{"ha":828,"x_min":0,"x_max":0,"o":"m 588 717 l 588 617 b 361 733 539 689 464 733 b 39 358 163 733 39 586 b 361 -17 39 131 163 -17 b 582 93 460 -17 533 24 l 582 -272 l 757 -272 l 757 717 z m 401 128 b 218 353 289 128 218 201 b 401 589 218 504 289 589 b 586 358 515 589 586 510 b 401 128 586 207 515 128 z "},"r":{"ha":529,"x_min":0,"x_max":0,"o":"m 454 728 b 240 589 343 728 275 669 l 240 717 l 71 717 l 71 0 l 246 0 l 246 364 b 453 564 246 500 324 564 l 497 564 l 497 725 b 454 728 482 728 469 728 z "},"s":{"ha":693,"x_min":0,"x_max":0,"o":"m 353 -19 b 671 206 553 -19 671 61 b 422 424 671 329 594 393 l 332 438 b 213 525 254 451 213 472 b 338 608 213 576 253 608 b 489 490 428 608 485 582 l 654 490 b 338 733 649 638 558 733 b 40 517 146 733 40 651 b 275 300 40 394 121 326 l 357 286 b 497 192 465 268 497 243 b 356 106 497 138 457 106 b 196 228 251 106 206 138 l 25 228 b 353 -19 36 54 149 -19 z "},"t":{"ha":476,"x_min":0,"x_max":0,"o":"m 444 583 l 444 717 l 303 717 l 303 925 l 129 925 l 129 717 l 18 717 l 18 583 l 129 583 l 129 178 b 353 -6 129 46 201 -6 b 444 0 381 -6 413 -3 l 444 133 l 385 133 b 303 196 326 133 303 149 l 303 583 z "},"u":{"ha":786,"x_min":0,"x_max":0,"o":"m 540 717 l 540 315 b 381 135 540 188 457 135 b 246 271 290 135 246 179 l 246 717 l 71 717 l 71 242 b 321 -17 71 71 172 -17 b 546 104 424 -17 499 35 l 546 0 l 715 0 l 715 717 z "},"v":{"ha":742,"x_min":0,"x_max":0,"o":"m 556 717 l 486 525 b 374 158 449 406 410 279 b 261 524 338 278 299 406 l 192 717 l 4 717 l 269 0 l 471 0 l 738 717 z "},"w":{"ha":1147,"x_min":0,"x_max":0,"o":"m 956 717 l 875 449 b 804 200 850 367 826 282 b 736 450 783 283 761 367 l 657 717 l 490 717 l 411 450 b 343 200 386 367 364 283 b 272 449 321 282 297 367 l 192 717 l 4 717 l 240 0 l 424 0 l 513 294 b 572 508 533 365 553 438 b 633 294 592 438 613 365 l 724 0 l 907 0 l 1143 717 z "},"x":{"ha":736,"x_min":0,"x_max":0,"o":"m 465 368 l 718 717 l 522 717 l 485 664 b 371 494 447 608 407 550 b 256 664 333 551 296 607 l 218 717 l 18 717 l 271 367 l 4 0 l 200 0 l 226 38 b 367 240 274 104 321 174 b 506 38 413 174 458 106 l 532 0 l 732 0 z "},"y":{"ha":725,"x_min":0,"x_max":0,"o":"m 539 717 l 481 536 b 365 138 442 410 403 279 b 251 538 329 278 290 413 l 193 717 l 4 717 l 213 128 b 246 -17 229 81 246 26 b 128 -132 246 -76 214 -132 l 61 -132 l 61 -269 b 138 -274 83 -272 104 -274 b 446 -58 311 -274 389 -218 l 722 717 z "},"z":{"ha":693,"x_min":0,"x_max":0,"o":"m 408 136 b 261 135 360 136 311 136 b 351 244 292 171 322 208 l 635 601 l 635 717 l 50 717 l 50 581 l 269 581 b 417 582 318 581 367 581 b 326 472 386 546 356 508 l 43 115 l 43 0 l 651 0 l 651 136 z "},"{":{"ha":504,"x_min":0,"x_max":0,"o":"m 393 -272 l 483 -272 l 483 -128 l 411 -128 b 325 -42 338 -128 325 -93 l 325 283 b 192 407 325 357 290 403 l 192 410 b 325 535 290 414 325 461 l 325 858 b 411 944 325 910 338 944 l 483 944 l 483 1090 l 393 1090 b 160 872 251 1090 160 1026 l 160 569 b 46 482 160 518 135 485 l 46 335 b 160 247 135 332 160 299 l 160 -56 b 393 -272 160 -210 251 -272 z "},"|":{"ha":310,"x_min":0,"x_max":0,"o":"m 81 -278 l 229 -278 l 229 1107 l 81 1107 z "},"}":{"ha":504,"x_min":0,"x_max":0,"o":"m 22 -272 l 113 -272 b 344 -56 254 -272 344 -210 l 344 247 b 458 335 344 299 369 332 l 458 482 b 344 569 369 485 344 518 l 344 872 b 113 1090 344 1026 254 1090 l 22 1090 l 22 944 l 94 944 b 181 858 167 944 181 910 l 181 535 b 313 410 181 461 214 414 l 313 407 b 181 283 214 403 181 357 l 181 -42 b 94 -128 181 -93 167 -128 l 22 -128 z "},"~":{"ha":733,"x_min":0,"x_max":0,"o":"m 497 382 b 688 608 617 382 682 471 l 560 608 b 486 528 550 544 522 528 b 389 564 458 528 425 544 b 238 613 343 588 292 613 b 46 386 118 613 51 524 l 174 386 b 247 467 183 450 213 467 b 349 431 279 467 314 449 b 497 382 392 407 442 382 z "},"Á":{"ha":997,"x_min":0,"x_max":0,"o":"m 744 1249 l 543 1249 l 422 1049 l 565 1049 z m 789 0 l 988 0 l 604 989 l 385 989 l 8 0 l 201 0 l 278 218 l 711 218 z m 335 378 l 372 485 b 493 824 406 575 453 707 b 615 485 533 707 581 575 l 654 378 z "},"Ă":{"ha":997,"x_min":0,"x_max":0,"o":"m 493 1042 b 726 1249 619 1042 708 1121 l 594 1249 b 493 1154 588 1188 549 1154 b 392 1249 436 1154 399 1188 l 260 1249 b 493 1042 275 1121 367 1042 z m 789 0 l 988 0 l 604 989 l 385 989 l 8 0 l 201 0 l 278 218 l 711 218 z m 335 378 l 372 485 b 493 824 406 575 453 707 b 615 485 533 707 581 575 l 654 378 z "},"Â":{"ha":997,"x_min":0,"x_max":0,"o":"m 493 1160 l 600 1049 l 760 1049 l 597 1249 l 388 1249 l 226 1049 l 386 1049 z m 789 0 l 988 0 l 604 989 l 385 989 l 8 0 l 201 0 l 278 218 l 711 218 z m 335 378 l 372 485 b 493 824 406 575 453 707 b 615 485 533 707 581 575 l 654 378 z "},"Ä":{"ha":997,"x_min":0,"x_max":0,"o":"m 443 1213 l 271 1213 l 271 1049 l 443 1049 z m 715 1213 l 543 1213 l 543 1049 l 715 1049 z m 789 0 l 988 0 l 604 989 l 385 989 l 8 0 l 201 0 l 278 218 l 711 218 z m 335 378 l 372 485 b 493 824 406 575 453 707 b 615 485 533 707 581 575 l 654 378 z "},"À":{"ha":997,"x_min":0,"x_max":0,"o":"m 561 1049 l 440 1249 l 239 1249 l 418 1049 z m 789 0 l 988 0 l 604 989 l 385 989 l 8 0 l 201 0 l 278 218 l 711 218 z m 335 378 l 372 485 b 493 824 406 575 453 707 b 615 485 533 707 581 575 l 654 378 z "},"Ā":{"ha":997,"x_min":0,"x_max":0,"o":"m 714 1171 l 272 1171 l 272 1049 l 714 1049 z m 789 0 l 988 0 l 604 989 l 385 989 l 8 0 l 201 0 l 278 218 l 711 218 z m 335 378 l 372 485 b 493 824 406 575 453 707 b 615 485 533 707 581 575 l 654 378 z "},"Ą":{"ha":997,"x_min":0,"x_max":0,"o":"m 850 -129 b 989 0 850 -96 879 -51 l 988 0 l 604 989 l 385 989 l 8 0 l 201 0 l 278 218 l 711 218 l 789 0 l 854 0 b 711 -156 757 -35 711 -100 b 890 -289 711 -240 786 -289 b 989 -275 931 -289 968 -282 l 989 -171 b 919 -182 968 -176 946 -182 b 850 -129 889 -182 850 -171 z m 335 378 l 372 485 b 493 824 406 575 453 707 b 615 485 533 707 581 575 l 654 378 z "},"Å":{"ha":997,"x_min":0,"x_max":0,"o":"m 789 0 l 988 0 l 626 931 b 692 1072 667 964 692 1014 b 493 1263 692 1183 604 1263 b 294 1072 382 1263 294 1183 b 361 928 294 1013 321 963 l 8 0 l 201 0 l 278 218 l 711 218 z m 493 1157 b 578 1072 540 1157 578 1121 b 493 989 578 1025 540 989 b 408 1072 446 989 408 1025 b 493 1157 408 1121 446 1157 z m 335 378 l 372 485 b 493 824 406 575 453 707 b 615 485 533 707 581 575 l 654 378 z "},"Ǻ":{"ha":997,"x_min":0,"x_max":0,"o":"m 789 0 l 988 0 l 626 931 b 692 1072 667 964 692 1014 b 583 1243 692 1151 647 1214 l 744 1424 l 543 1424 l 442 1257 b 294 1072 357 1236 294 1165 b 361 928 294 1013 321 963 l 8 0 l 201 0 l 278 218 l 711 218 z m 493 1157 b 579 1072 540 1157 579 1121 b 493 989 579 1025 540 989 b 408 1072 446 989 408 1025 b 493 1157 408 1121 446 1157 z m 335 378 l 372 485 b 493 824 406 575 453 707 b 615 485 533 707 581 575 l 654 378 z "},"Ã":{"ha":997,"x_min":0,"x_max":0,"o":"m 399 1107 b 481 1082 422 1107 451 1094 b 604 1049 519 1065 563 1049 b 743 1232 689 1049 743 1104 l 626 1232 b 588 1174 625 1190 613 1174 b 503 1200 560 1174 532 1186 b 382 1232 467 1215 428 1232 b 243 1049 297 1232 243 1176 l 360 1049 b 399 1107 361 1090 374 1107 z m 789 0 l 988 0 l 604 989 l 385 989 l 8 0 l 201 0 l 278 218 l 711 218 z m 335 378 l 372 485 b 493 824 406 575 453 707 b 615 485 533 707 581 575 l 654 378 z "},"Æ":{"ha":1457,"x_min":0,"x_max":0,"o":"m 1422 821 l 1422 989 l 513 989 l 8 0 l 206 0 l 328 243 l 744 243 l 744 0 l 1418 0 l 1418 168 l 929 168 l 929 426 l 1371 426 l 1371 588 l 929 588 l 929 821 z m 408 403 l 624 829 l 744 829 l 744 403 z "},"Ǽ":{"ha":1457,"x_min":0,"x_max":0,"o":"m 1218 1249 l 1017 1249 l 896 1049 l 1039 1049 z m 1422 821 l 1422 989 l 513 989 l 8 0 l 206 0 l 328 243 l 744 243 l 744 0 l 1418 0 l 1418 168 l 929 168 l 929 426 l 1371 426 l 1371 588 l 929 588 l 929 821 z m 408 403 l 624 829 l 744 829 l 744 403 z "},"Ć":{"ha":1007,"x_min":0,"x_max":0,"o":"m 449 1071 l 592 1071 l 771 1271 l 569 1271 z m 518 -22 b 971 372 744 -22 943 111 l 783 372 b 518 142 761 217 644 142 b 235 494 342 142 235 272 b 518 847 235 715 342 847 b 776 649 639 847 742 788 l 967 649 b 518 1011 924 893 738 1011 b 39 494 232 1011 39 814 b 518 -22 39 175 236 -22 z "},"Č":{"ha":1007,"x_min":0,"x_max":0,"o":"m 624 1071 l 785 1271 l 625 1271 l 518 1160 l 411 1271 l 251 1271 l 414 1071 z m 783 372 b 518 142 761 217 644 142 b 235 494 342 142 235 272 b 518 847 235 715 342 847 b 776 649 639 847 742 788 l 967 649 b 518 1011 924 893 738 1011 b 39 494 232 1011 39 814 b 518 -22 39 175 236 -22 b 971 372 744 -22 943 111 z "},"Ç":{"ha":1007,"x_min":0,"x_max":0,"o":"m 971 372 l 783 372 b 518 142 761 217 644 142 b 235 494 342 142 235 272 b 518 847 235 715 342 847 b 776 649 639 847 742 788 l 967 649 b 518 1011 924 893 738 1011 b 39 494 232 1011 39 814 b 478 -21 39 190 218 -3 l 426 -86 l 426 -139 b 463 -137 443 -137 453 -137 b 542 -190 518 -137 542 -158 b 456 -249 542 -226 511 -249 b 376 -243 425 -249 406 -247 l 376 -317 b 468 -325 403 -321 442 -325 b 674 -192 615 -325 674 -268 b 536 -82 674 -131 624 -82 l 518 -82 l 572 -19 b 971 372 775 0 946 132 z "},"Ĉ":{"ha":1007,"x_min":0,"x_max":0,"o":"m 518 1182 l 625 1071 l 785 1071 l 622 1271 l 413 1271 l 251 1071 l 411 1071 z m 783 372 b 518 142 761 217 644 142 b 235 494 342 142 235 272 b 518 847 235 715 342 847 b 776 649 639 847 742 788 l 967 649 b 518 1011 924 893 738 1011 b 39 494 232 1011 39 814 b 518 -22 39 175 236 -22 b 971 372 744 -22 943 111 z "},"Ċ":{"ha":1007,"x_min":0,"x_max":0,"o":"m 431 1071 l 603 1071 l 603 1235 l 431 1235 z m 518 -22 b 971 372 744 -22 943 111 l 783 372 b 518 142 761 217 644 142 b 235 494 342 142 235 272 b 518 847 235 715 342 847 b 776 649 639 847 742 788 l 967 649 b 518 1011 924 893 738 1011 b 39 494 232 1011 39 814 b 518 -22 39 175 236 -22 z "},"Ð":{"ha":1024,"x_min":0,"x_max":0,"o":"m 486 989 l 110 989 l 110 561 l 0 561 l 0 453 l 110 453 l 110 0 l 486 0 b 983 494 810 0 983 193 b 486 989 983 796 810 989 z m 485 161 l 297 161 l 297 453 l 535 453 l 535 561 l 297 561 l 297 828 l 485 828 b 788 494 676 828 788 714 b 485 161 788 275 676 161 z "},"Ď":{"ha":994,"x_min":0,"x_max":0,"o":"m 586 1049 l 747 1249 l 588 1249 l 481 1138 l 374 1249 l 214 1249 l 376 1049 z m 458 989 l 81 989 l 81 0 l 458 0 b 954 494 781 0 954 193 b 458 989 954 796 781 989 z m 456 161 l 268 161 l 268 828 l 456 828 b 760 494 647 828 760 714 b 456 161 760 275 647 161 z "},"Đ":{"ha":1024,"x_min":0,"x_max":0,"o":"m 486 989 l 110 989 l 110 561 l 0 561 l 0 453 l 110 453 l 110 0 l 486 0 b 983 494 810 0 983 193 b 486 989 983 796 810 989 z m 485 161 l 297 161 l 297 453 l 535 453 l 535 561 l 297 561 l 297 828 l 485 828 b 788 494 676 828 788 714 b 485 161 788 275 676 161 z "},"É":{"ha":844,"x_min":0,"x_max":0,"o":"m 697 1249 l 496 1249 l 375 1049 l 518 1049 z m 810 821 l 810 989 l 81 989 l 81 0 l 807 0 l 807 168 l 268 168 l 268 426 l 758 426 l 758 588 l 268 588 l 268 821 z "},"Ĕ":{"ha":844,"x_min":0,"x_max":0,"o":"m 446 1042 b 679 1249 572 1042 661 1121 l 547 1249 b 446 1154 540 1188 501 1154 b 344 1249 389 1154 351 1188 l 213 1249 b 446 1042 228 1121 319 1042 z m 810 821 l 810 989 l 81 989 l 81 0 l 807 0 l 807 168 l 268 168 l 268 426 l 758 426 l 758 588 l 268 588 l 268 821 z "},"Ě":{"ha":844,"x_min":0,"x_max":0,"o":"m 550 1049 l 711 1249 l 551 1249 l 444 1138 l 338 1249 l 178 1249 l 340 1049 z m 810 821 l 810 989 l 81 989 l 81 0 l 807 0 l 807 168 l 268 168 l 268 426 l 758 426 l 758 588 l 268 588 l 268 821 z "},"Ê":{"ha":844,"x_min":0,"x_max":0,"o":"m 444 1160 l 551 1049 l 711 1049 l 549 1249 l 339 1249 l 178 1049 l 338 1049 z m 810 821 l 810 989 l 81 989 l 81 0 l 807 0 l 807 168 l 268 168 l 268 426 l 758 426 l 758 588 l 268 588 l 268 821 z "},"Ë":{"ha":844,"x_min":0,"x_max":0,"o":"m 394 1213 l 222 1213 l 222 1049 l 394 1049 z m 667 1213 l 494 1213 l 494 1049 l 667 1049 z m 810 821 l 810 989 l 81 989 l 81 0 l 807 0 l 807 168 l 268 168 l 268 426 l 758 426 l 758 588 l 268 588 l 268 821 z "},"Ė":{"ha":844,"x_min":0,"x_max":0,"o":"m 531 1213 l 358 1213 l 358 1049 l 531 1049 z m 810 821 l 810 989 l 81 989 l 81 0 l 807 0 l 807 168 l 268 168 l 268 426 l 758 426 l 758 588 l 268 588 l 268 821 z "},"È":{"ha":844,"x_min":0,"x_max":0,"o":"m 514 1049 l 393 1249 l 192 1249 l 371 1049 z m 810 821 l 810 989 l 81 989 l 81 0 l 807 0 l 807 168 l 268 168 l 268 426 l 758 426 l 758 588 l 268 588 l 268 821 z "},"Ē":{"ha":844,"x_min":0,"x_max":0,"o":"m 667 1171 l 225 1171 l 225 1049 l 667 1049 z m 810 821 l 810 989 l 81 989 l 81 0 l 807 0 l 807 168 l 268 168 l 268 426 l 758 426 l 758 588 l 268 588 l 268 821 z "},"Ę":{"ha":844,"x_min":0,"x_max":0,"o":"m 810 821 l 810 989 l 81 989 l 81 0 l 672 0 b 529 -156 575 -35 529 -100 b 708 -289 529 -240 604 -289 b 807 -275 749 -289 786 -282 l 807 -171 b 738 -182 786 -176 764 -182 b 668 -129 707 -182 668 -171 b 807 0 668 -96 697 -51 l 807 168 l 268 168 l 268 426 l 758 426 l 758 588 l 268 588 l 268 821 z "},"Ǵ":{"ha":1063,"x_min":0,"x_max":0,"o":"m 779 1271 l 578 1271 l 457 1071 l 600 1071 z m 554 533 l 554 382 l 813 382 b 536 142 803 238 682 142 b 235 494 350 142 235 276 b 529 847 235 713 347 847 b 792 660 665 847 764 775 l 985 660 b 528 1011 951 874 778 1011 b 39 494 226 1011 39 806 b 511 -22 39 183 226 -22 b 833 131 650 -22 764 32 l 860 0 l 996 0 l 996 533 z "},"Ğ":{"ha":1063,"x_min":0,"x_max":0,"o":"m 528 1064 b 761 1271 654 1064 743 1143 l 629 1271 b 528 1176 622 1210 583 1176 b 426 1271 471 1176 433 1210 l 294 1271 b 528 1064 310 1143 401 1064 z m 554 533 l 554 382 l 813 382 b 536 142 803 238 682 142 b 235 494 350 142 235 276 b 529 847 235 713 347 847 b 792 660 665 847 764 775 l 985 660 b 528 1011 951 874 778 1011 b 39 494 226 1011 39 806 b 511 -22 39 183 226 -22 b 833 131 650 -22 764 32 l 860 0 l 996 0 l 996 533 z "},"Ĝ":{"ha":1063,"x_min":0,"x_max":0,"o":"m 528 1182 l 635 1071 l 794 1071 l 632 1271 l 422 1271 l 261 1071 l 421 1071 z m 554 533 l 554 382 l 813 382 b 536 142 803 238 682 142 b 235 494 350 142 235 276 b 529 847 235 713 347 847 b 792 660 665 847 764 775 l 985 660 b 528 1011 951 874 778 1011 b 39 494 226 1011 39 806 b 511 -22 39 183 226 -22 b 833 131 650 -22 764 32 l 860 0 l 996 0 l 996 533 z "},"Ģ":{"ha":1063,"x_min":0,"x_max":0,"o":"m 554 533 l 554 382 l 813 382 b 536 142 803 238 682 142 b 235 494 350 142 235 276 b 529 847 235 713 347 847 b 792 660 665 847 764 775 l 985 660 b 528 1011 951 874 778 1011 b 39 494 226 1011 39 806 b 511 -22 39 183 226 -22 b 833 131 650 -22 764 32 l 860 0 l 996 0 l 996 533 z m 447 -218 l 525 -218 l 525 -239 b 472 -289 525 -271 507 -287 l 447 -290 l 447 -358 l 475 -357 b 617 -235 572 -354 617 -318 l 617 -81 l 447 -81 z "},"Ġ":{"ha":1063,"x_min":0,"x_max":0,"o":"m 613 1235 l 440 1235 l 440 1071 l 613 1071 z m 554 533 l 554 382 l 813 382 b 536 142 803 238 682 142 b 235 494 350 142 235 276 b 529 847 235 713 347 847 b 792 660 665 847 764 775 l 985 660 b 528 1011 951 874 778 1011 b 39 494 226 1011 39 806 b 511 -22 39 183 226 -22 b 833 131 650 -22 764 32 l 860 0 l 996 0 l 996 533 z "},"Ħ":{"ha":1056,"x_min":0,"x_max":0,"o":"m 1056 843 l 944 843 l 944 989 l 757 989 l 757 843 l 299 843 l 299 989 l 111 989 l 111 843 l 0 843 l 0 735 l 111 735 l 111 0 l 299 0 l 299 422 l 757 422 l 757 0 l 944 0 l 944 735 l 1056 735 z m 757 592 l 299 592 l 299 735 l 757 735 z "},"Ĥ":{"ha":996,"x_min":0,"x_max":0,"o":"m 499 1160 l 606 1049 l 765 1049 l 603 1249 l 393 1249 l 232 1049 l 392 1049 z m 728 989 l 728 592 l 268 592 l 268 989 l 81 989 l 81 0 l 268 0 l 268 422 l 728 422 l 728 0 l 915 0 l 915 989 z "},"Ĳ":{"ha":1113,"x_min":0,"x_max":0,"o":"m 81 0 l 268 0 l 268 989 l 81 989 z m 713 -22 b 1044 289 928 -22 1044 108 l 1044 989 l 858 989 l 858 289 b 711 139 858 190 801 139 b 565 289 622 139 565 190 l 565 353 l 386 353 l 386 289 b 713 -22 386 99 507 -22 z "},"Í":{"ha":350,"x_min":0,"x_max":0,"o":"m 240 1049 l 369 1249 l 185 1249 l 111 1049 z m 81 0 l 268 0 l 268 989 l 81 989 z "},"Ĭ":{"ha":350,"x_min":0,"x_max":0,"o":"m 175 1042 b 388 1240 294 1042 375 1124 l 261 1240 b 175 1154 257 1189 228 1154 b 89 1240 122 1154 93 1189 l -37 1240 b 175 1042 -28 1124 56 1042 z m 81 0 l 268 0 l 268 989 l 81 989 z "},"Î":{"ha":350,"x_min":0,"x_max":0,"o":"m 174 1160 l 257 1049 l 407 1049 l 272 1249 l 74 1249 l -60 1049 l 89 1049 z m 81 0 l 268 0 l 268 989 l 81 989 z "},"Ï":{"ha":350,"x_min":0,"x_max":0,"o":"m -25 1049 l 135 1049 l 135 1213 l -25 1213 z m 214 1049 l 374 1049 l 374 1213 l 214 1213 z m 81 0 l 268 0 l 268 989 l 81 989 z "},"İ":{"ha":350,"x_min":0,"x_max":0,"o":"m 89 1049 l 260 1049 l 260 1213 l 89 1213 z m 81 0 l 268 0 l 268 989 l 81 989 z "},"Ì":{"ha":350,"x_min":0,"x_max":0,"o":"m 110 1049 l 239 1049 l 165 1249 l -19 1249 z m 81 0 l 268 0 l 268 989 l 81 989 z "},"Ī":{"ha":350,"x_min":0,"x_max":0,"o":"m -7 1049 l 357 1049 l 357 1171 l -7 1171 z m 81 0 l 268 0 l 268 989 l 81 989 z "},"Į":{"ha":350,"x_min":0,"x_max":0,"o":"m 229 -183 b 169 -126 204 -183 169 -174 b 269 0 169 -97 183 -51 l 268 0 l 268 989 l 81 989 l 81 0 l 156 0 b 50 -158 86 -35 50 -103 b 204 -289 50 -243 113 -289 b 281 -276 236 -289 264 -282 l 281 -174 b 229 -183 265 -181 247 -183 z "},"Ĩ":{"ha":350,"x_min":0,"x_max":0,"o":"m -26 1049 l 68 1049 b 100 1106 68 1089 79 1106 b 165 1082 118 1106 139 1094 b 265 1049 194 1067 231 1049 b 376 1231 332 1049 376 1101 l 282 1231 b 250 1174 282 1189 271 1174 b 183 1197 229 1174 207 1185 b 85 1231 154 1214 122 1231 b -26 1049 18 1231 -26 1176 z m 81 0 l 268 0 l 268 989 l 81 989 z "},"Ĵ":{"ha":763,"x_min":0,"x_max":0,"o":"m 601 1160 l 685 1049 l 835 1049 l 700 1249 l 501 1249 l 368 1049 l 517 1049 z m 508 289 b 361 139 508 190 451 139 b 215 289 272 139 215 190 l 215 353 l 36 353 l 36 289 b 363 -22 36 99 157 -22 b 694 289 578 -22 694 108 l 694 989 l 508 989 z "},"Ķ":{"ha":972,"x_min":0,"x_max":0,"o":"m 964 989 l 731 989 l 268 522 l 268 989 l 81 989 l 81 0 l 268 0 l 268 310 l 424 461 l 740 0 l 964 0 l 557 586 z m 415 -197 l 493 -197 l 493 -218 b 440 -268 493 -250 475 -267 l 415 -269 l 415 -337 l 443 -336 b 585 -214 540 -333 585 -297 l 585 -60 l 415 -60 z "},"Ĺ":{"ha":761,"x_min":0,"x_max":0,"o":"m 426 1249 l 225 1249 l 104 1049 l 247 1049 z m 268 168 l 268 989 l 81 989 l 81 0 l 739 0 l 739 168 z "},"Ľ":{"ha":761,"x_min":0,"x_max":0,"o":"m 268 168 l 268 989 l 81 989 l 81 0 l 739 0 l 739 168 z m 583 989 l 404 989 l 363 758 l 482 758 z "},"Ļ":{"ha":761,"x_min":0,"x_max":0,"o":"m 268 168 l 268 989 l 81 989 l 81 0 l 739 0 l 739 168 z m 328 -197 l 406 -197 l 406 -218 b 353 -268 406 -250 388 -267 l 328 -269 l 328 -337 l 356 -336 b 497 -214 453 -333 497 -297 l 497 -60 l 328 -60 z "},"Ŀ":{"ha":761,"x_min":0,"x_max":0,"o":"m 268 168 l 268 989 l 81 989 l 81 0 l 739 0 l 739 168 z m 658 618 l 454 618 l 454 418 l 658 418 z "},"Ł":{"ha":790,"x_min":0,"x_max":0,"o":"m 297 168 l 297 521 l 549 628 l 549 749 l 297 642 l 297 989 l 110 989 l 110 561 l 0 514 l 0 394 l 110 442 l 110 0 l 768 0 l 768 168 z "},"Ń":{"ha":997,"x_min":0,"x_max":0,"o":"m 750 1249 l 549 1249 l 428 1049 l 571 1049 z m 735 989 l 735 731 b 740 251 735 585 736 426 b 565 549 690 344 621 458 l 289 989 l 81 989 l 81 0 l 261 0 l 261 258 b 256 738 261 404 261 563 b 432 440 306 642 369 539 l 707 0 l 915 0 l 915 989 z "},"Ň":{"ha":997,"x_min":0,"x_max":0,"o":"m 604 1049 l 765 1249 l 606 1249 l 499 1138 l 392 1249 l 232 1249 l 394 1049 z m 735 989 l 735 731 b 740 251 735 585 736 426 b 565 549 690 344 621 458 l 289 989 l 81 989 l 81 0 l 261 0 l 261 258 b 256 738 261 404 261 563 b 432 440 306 642 369 539 l 707 0 l 915 0 l 915 989 z "},"Ņ":{"ha":997,"x_min":0,"x_max":0,"o":"m 735 989 l 735 731 b 740 251 735 585 736 426 b 565 549 690 344 621 458 l 289 989 l 81 989 l 81 0 l 261 0 l 261 258 b 256 738 261 404 261 563 b 432 440 306 642 369 539 l 707 0 l 915 0 l 915 989 z m 415 -197 l 493 -197 l 493 -218 b 440 -268 493 -250 475 -267 l 415 -269 l 415 -337 l 443 -336 b 585 -214 540 -333 585 -297 l 585 -60 l 415 -60 z "},"Ŋ":{"ha":997,"x_min":0,"x_max":0,"o":"m 735 989 l 735 731 b 740 290 735 594 736 450 b 575 557 690 376 625 481 l 289 989 l 81 989 l 81 0 l 261 0 l 261 258 b 256 757 261 417 261 575 b 440 457 306 664 376 553 l 740 4 l 740 -8 b 604 -139 740 -96 697 -139 b 543 -135 582 -139 563 -137 l 543 -272 b 633 -278 572 -275 606 -278 b 915 -12 836 -278 915 -171 l 915 989 z "},"Ñ":{"ha":997,"x_min":0,"x_max":0,"o":"m 403 1107 b 485 1082 426 1107 456 1094 b 608 1049 524 1065 567 1049 b 747 1232 693 1049 747 1104 l 631 1232 b 592 1174 629 1190 617 1174 b 507 1200 564 1174 536 1186 b 386 1232 471 1215 432 1232 b 247 1049 301 1232 247 1176 l 364 1049 b 403 1107 365 1090 378 1107 z m 735 989 l 735 731 b 740 251 735 585 736 426 b 565 549 690 344 621 458 l 289 989 l 81 989 l 81 0 l 261 0 l 261 258 b 256 738 261 404 261 563 b 432 440 306 642 369 539 l 707 0 l 915 0 l 915 989 z "},"Ó":{"ha":1067,"x_min":0,"x_max":0,"o":"m 463 1071 l 606 1071 l 785 1271 l 583 1271 z m 533 -22 b 1026 494 829 -22 1026 183 b 533 1011 1026 806 829 1011 b 39 494 236 1011 39 806 b 533 -22 39 183 236 -22 z m 533 143 b 235 494 353 143 235 276 b 533 846 235 713 353 846 b 832 494 714 846 832 713 b 533 143 832 276 714 143 z "},"Ŏ":{"ha":1067,"x_min":0,"x_max":0,"o":"m 533 1064 b 767 1271 660 1064 749 1143 l 635 1271 b 533 1176 628 1210 589 1176 b 432 1271 476 1176 439 1210 l 300 1271 b 533 1064 315 1143 407 1064 z m 533 -22 b 1026 494 829 -22 1026 183 b 533 1011 1026 806 829 1011 b 39 494 236 1011 39 806 b 533 -22 39 183 236 -22 z m 533 143 b 235 494 353 143 235 276 b 533 846 235 713 353 846 b 832 494 714 846 832 713 b 533 143 832 276 714 143 z "},"Ô":{"ha":1067,"x_min":0,"x_max":0,"o":"m 532 1182 l 639 1071 l 799 1071 l 636 1271 l 426 1271 l 265 1071 l 425 1071 z m 533 1011 b 39 494 236 1011 39 806 b 533 -22 39 183 236 -22 b 1026 494 829 -22 1026 183 b 533 1011 1026 806 829 1011 z m 533 143 b 235 494 353 143 235 276 b 533 846 235 713 353 846 b 832 494 714 846 832 713 b 533 143 832 276 714 143 z "},"Ö":{"ha":1067,"x_min":0,"x_max":0,"o":"m 310 1071 l 482 1071 l 482 1235 l 310 1235 z m 582 1071 l 754 1071 l 754 1235 l 582 1235 z m 533 -22 b 1026 494 829 -22 1026 183 b 533 1011 1026 806 829 1011 b 39 494 236 1011 39 806 b 533 -22 39 183 236 -22 z m 533 143 b 235 494 353 143 235 276 b 533 846 235 713 353 846 b 832 494 714 846 832 713 b 533 143 832 276 714 143 z "},"Ò":{"ha":1067,"x_min":0,"x_max":0,"o":"m 458 1071 l 601 1071 l 481 1271 l 279 1271 z m 533 -22 b 1026 494 829 -22 1026 183 b 533 1011 1026 806 829 1011 b 39 494 236 1011 39 806 b 533 -22 39 183 236 -22 z m 533 143 b 235 494 353 143 235 276 b 533 846 235 713 353 846 b 832 494 714 846 832 713 b 533 143 832 276 714 143 z "},"Ő":{"ha":1067,"x_min":0,"x_max":0,"o":"m 322 1071 l 460 1071 l 644 1271 l 444 1271 z m 600 1071 l 738 1071 l 922 1271 l 722 1271 z m 533 -22 b 1026 494 829 -22 1026 183 b 533 1011 1026 806 829 1011 b 39 494 236 1011 39 806 b 533 -22 39 183 236 -22 z m 533 143 b 235 494 353 143 235 276 b 533 846 235 713 353 846 b 832 494 714 846 832 713 b 533 143 832 276 714 143 z "},"Ō":{"ha":1067,"x_min":0,"x_max":0,"o":"m 313 1071 l 754 1071 l 754 1193 l 313 1193 z m 533 -22 b 1026 494 829 -22 1026 183 b 533 1011 1026 806 829 1011 b 39 494 236 1011 39 806 b 533 -22 39 183 236 -22 z m 533 143 b 235 494 353 143 235 276 b 533 846 235 713 353 846 b 832 494 714 846 832 713 b 533 143 832 276 714 143 z "},"Ø":{"ha":1067,"x_min":0,"x_max":0,"o":"m 1039 978 l 953 1056 l 833 921 b 533 1011 753 979 651 1011 b 39 494 236 1011 39 806 b 149 149 39 354 79 236 l 26 10 l 113 -67 l 232 69 b 533 -22 313 10 415 -22 b 1026 494 829 -22 1026 183 b 917 840 1026 633 988 751 z m 235 494 b 533 846 235 713 353 846 b 714 786 604 846 667 825 l 278 294 b 235 494 250 349 235 415 z m 832 494 b 533 143 832 276 714 143 b 351 203 461 143 400 164 l 789 696 b 832 494 817 640 832 574 z "},"Ǿ":{"ha":1067,"x_min":0,"x_max":0,"o":"m 785 1271 l 583 1271 l 463 1071 l 606 1071 z m 1039 978 l 953 1056 l 833 921 b 533 1011 753 979 651 1011 b 39 494 236 1011 39 806 b 149 149 39 354 79 236 l 26 10 l 113 -67 l 232 69 b 533 -22 313 10 415 -22 b 1026 494 829 -22 1026 183 b 917 840 1026 633 988 751 z m 235 494 b 533 846 235 713 353 846 b 714 786 604 846 667 825 l 278 294 b 235 494 250 349 235 415 z m 832 494 b 533 143 832 276 714 143 b 351 203 461 143 400 164 l 789 696 b 832 494 817 640 832 574 z "},"Õ":{"ha":1067,"x_min":0,"x_max":0,"o":"m 282 1071 l 399 1071 b 438 1129 400 1113 413 1129 b 519 1104 461 1129 490 1117 b 643 1071 558 1088 601 1071 b 782 1254 728 1071 782 1126 l 665 1254 b 626 1196 664 1213 651 1196 b 542 1222 599 1196 571 1208 b 421 1254 506 1238 467 1254 b 282 1071 336 1254 282 1199 z m 533 -22 b 1026 494 829 -22 1026 183 b 533 1011 1026 806 829 1011 b 39 494 236 1011 39 806 b 533 -22 39 183 236 -22 z m 533 143 b 235 494 353 143 235 276 b 533 846 235 713 353 846 b 832 494 714 846 832 713 b 533 143 832 276 714 143 z "},"Œ":{"ha":1594,"x_min":0,"x_max":0,"o":"m 1560 821 l 1560 989 l 832 989 l 832 881 b 515 1011 758 964 653 1011 b 39 494 235 1011 39 806 b 515 -22 39 183 235 -22 b 832 108 653 -22 758 25 l 832 0 l 1557 0 l 1557 167 l 1019 167 l 1019 426 l 1510 426 l 1510 586 l 1019 586 l 1019 821 z m 533 143 b 235 494 353 143 235 276 b 533 846 235 713 353 846 b 832 494 714 846 832 713 b 533 143 832 276 714 143 z "},"Þ":{"ha":904,"x_min":0,"x_max":0,"o":"m 515 817 l 268 817 l 268 989 l 81 989 l 81 0 l 268 0 l 268 172 l 515 172 b 865 494 743 172 865 303 b 515 817 865 686 743 817 z m 507 335 l 268 335 l 268 654 l 507 654 b 676 494 617 654 676 597 b 507 335 676 392 617 335 z "},"Ŕ":{"ha":924,"x_min":0,"x_max":0,"o":"m 710 1249 l 508 1249 l 388 1049 l 531 1049 z m 864 115 l 856 263 b 713 474 851 365 822 439 b 878 710 819 511 878 596 b 529 989 878 876 757 989 l 81 989 l 81 0 l 268 0 l 268 388 l 513 388 b 671 226 613 388 665 353 l 675 118 b 701 0 676 69 683 29 l 894 0 b 864 115 875 29 865 72 z m 268 535 l 268 835 l 511 835 b 685 689 619 835 685 786 b 518 535 685 588 619 535 z "},"Ř":{"ha":924,"x_min":0,"x_max":0,"o":"m 563 1049 l 724 1249 l 564 1249 l 457 1138 l 350 1249 l 190 1249 l 353 1049 z m 864 115 l 856 263 b 713 474 851 365 822 439 b 878 710 819 511 878 596 b 529 989 878 876 757 989 l 81 989 l 81 0 l 268 0 l 268 388 l 513 388 b 671 226 613 388 665 353 l 675 118 b 701 0 676 69 683 29 l 894 0 b 864 115 875 29 865 72 z m 268 535 l 268 835 l 511 835 b 685 689 619 835 685 786 b 518 535 685 588 619 535 z "},"Ŗ":{"ha":924,"x_min":0,"x_max":0,"o":"m 864 115 l 856 263 b 713 474 851 365 822 439 b 878 710 819 511 878 596 b 529 989 878 876 757 989 l 81 989 l 81 0 l 268 0 l 268 388 l 513 388 b 671 226 613 388 665 353 l 675 118 b 701 0 676 69 683 29 l 894 0 b 864 115 875 29 865 72 z m 268 535 l 268 835 l 511 835 b 685 689 619 835 685 786 b 518 535 685 588 619 535 z m 407 -197 l 485 -197 l 485 -218 b 432 -268 485 -250 467 -267 l 407 -269 l 407 -337 l 435 -336 b 576 -214 532 -333 576 -297 l 576 -60 l 407 -60 z "},"Ś":{"ha":885,"x_min":0,"x_max":0,"o":"m 356 1071 l 499 1071 l 678 1271 l 476 1271 z m 457 -22 b 857 282 704 -22 857 86 b 529 575 857 439 763 529 l 443 592 b 250 738 296 622 250 658 b 428 860 250 813 308 860 b 646 694 585 860 639 800 l 828 694 b 425 1011 821 881 703 1011 b 58 732 188 1011 58 896 b 376 432 58 553 185 468 l 460 415 b 663 272 611 385 663 350 b 463 129 663 179 592 129 b 218 326 325 129 221 171 l 33 326 b 457 -22 35 99 193 -22 z "},"Š":{"ha":885,"x_min":0,"x_max":0,"o":"m 531 1071 l 692 1271 l 532 1271 l 425 1160 l 318 1271 l 158 1271 l 321 1071 z m 529 575 l 443 592 b 250 738 296 622 250 658 b 428 860 250 813 308 860 b 646 694 585 860 639 800 l 828 694 b 425 1011 821 881 703 1011 b 58 732 188 1011 58 896 b 376 432 58 553 185 468 l 460 415 b 663 272 611 385 663 350 b 463 129 663 179 592 129 b 218 326 325 129 221 171 l 33 326 b 457 -22 35 99 193 -22 b 857 282 704 -22 857 86 b 529 575 857 439 763 529 z "},"Ş":{"ha":885,"x_min":0,"x_max":0,"o":"m 857 282 b 529 575 857 439 763 529 l 443 592 b 250 738 296 622 250 658 b 428 860 250 813 308 860 b 646 694 585 860 639 800 l 828 694 b 425 1011 821 881 703 1011 b 58 732 188 1011 58 896 b 376 432 58 553 185 468 l 460 415 b 663 272 611 385 663 350 b 463 129 663 179 592 129 b 218 326 325 129 221 171 l 33 326 b 422 -21 35 108 179 -11 l 372 -86 l 372 -139 b 408 -137 389 -137 399 -137 b 488 -190 464 -137 488 -158 b 401 -249 488 -226 457 -249 b 322 -243 371 -249 351 -247 l 322 -317 b 414 -325 349 -321 388 -325 b 619 -192 561 -325 619 -268 b 482 -82 619 -131 569 -82 l 464 -82 l 518 -19 b 857 282 729 -3 857 103 z "},"Ŝ":{"ha":885,"x_min":0,"x_max":0,"o":"m 425 1182 l 532 1071 l 692 1071 l 529 1271 l 319 1271 l 158 1071 l 318 1071 z m 529 575 l 443 592 b 250 738 296 622 250 658 b 428 860 250 813 308 860 b 646 694 585 860 639 800 l 828 694 b 425 1011 821 881 703 1011 b 58 732 188 1011 58 896 b 376 432 58 553 185 468 l 460 415 b 663 272 611 385 663 350 b 463 129 663 179 592 129 b 218 326 325 129 221 171 l 33 326 b 457 -22 35 99 193 -22 b 857 282 704 -22 857 86 b 529 575 857 439 763 529 z "},"Ș":{"ha":885,"x_min":0,"x_max":0,"o":"m 529 575 l 443 592 b 250 738 296 622 250 658 b 428 860 250 813 308 860 b 646 694 585 860 639 800 l 828 694 b 425 1011 821 881 703 1011 b 58 732 188 1011 58 896 b 376 432 58 553 185 468 l 460 415 b 663 272 611 385 663 350 b 463 129 663 179 592 129 b 218 326 325 129 221 171 l 33 326 b 457 -22 35 99 193 -22 b 857 282 704 -22 857 86 b 529 575 857 439 763 529 z m 381 -219 l 458 -219 l 458 -240 b 406 -290 458 -272 440 -289 l 381 -292 l 381 -360 l 408 -358 b 550 -236 506 -356 550 -319 l 550 -82 l 381 -82 z "},"ẞ":{"ha":960,"x_min":0,"x_max":0,"o":"m 661 585 l 885 847 l 885 986 b 511 1010 772 1000 642 1010 b 67 617 224 1010 67 874 l 67 0 l 253 0 l 253 621 b 513 854 253 757 307 854 b 674 847 572 854 621 853 l 444 569 l 444 440 b 531 443 471 442 500 443 b 740 296 664 443 740 392 b 533 144 740 197 671 144 b 385 157 483 144 433 149 l 385 4 b 546 -11 442 -6 494 -11 b 932 297 797 -11 932 111 b 661 585 932 447 833 554 z "},"Ə":{"ha":1024,"x_min":0,"x_max":0,"o":"m 501 1011 b 64 676 267 1011 110 874 l 253 676 b 501 847 289 781 375 847 b 789 549 672 847 774 744 l 39 549 l 39 500 b 510 -22 39 206 210 -22 b 983 493 799 -22 983 189 b 501 1011 983 806 799 1011 z m 507 140 b 232 418 340 140 246 257 l 788 418 b 507 140 767 238 664 140 z "},"Ŧ":{"ha":867,"x_min":0,"x_max":0,"o":"m 844 821 l 844 989 l 22 989 l 22 821 l 339 821 l 339 540 l 158 540 l 158 432 l 339 432 l 339 0 l 528 0 l 528 432 l 708 432 l 708 540 l 528 540 l 528 821 z "},"Ť":{"ha":867,"x_min":0,"x_max":0,"o":"m 539 1049 l 700 1249 l 540 1249 l 433 1138 l 326 1249 l 167 1249 l 329 1049 z m 844 989 l 22 989 l 22 821 l 339 821 l 339 0 l 528 0 l 528 821 l 844 821 z "},"Ţ":{"ha":867,"x_min":0,"x_max":0,"o":"m 528 0 l 528 821 l 844 821 l 844 989 l 22 989 l 22 821 l 339 821 l 339 0 l 392 0 l 342 -64 l 342 -117 b 378 -115 358 -115 368 -115 b 457 -168 433 -115 457 -136 b 371 -226 457 -204 426 -226 b 292 -221 340 -226 321 -225 l 292 -294 b 383 -303 318 -299 357 -303 b 589 -169 531 -303 589 -246 b 451 -60 589 -108 539 -60 l 433 -60 l 486 0 z "},"Ț":{"ha":867,"x_min":0,"x_max":0,"o":"m 844 989 l 22 989 l 22 821 l 339 821 l 339 0 l 528 0 l 528 821 l 844 821 z m 350 -197 l 428 -197 l 428 -218 b 375 -268 428 -250 410 -267 l 350 -269 l 350 -337 l 378 -336 b 519 -214 475 -333 519 -297 l 519 -60 l 350 -60 z "},"Ú":{"ha":961,"x_min":0,"x_max":0,"o":"m 410 1049 l 553 1049 l 732 1249 l 531 1249 z m 481 -21 b 894 372 735 -21 894 115 l 894 989 l 707 989 l 707 371 b 481 142 707 215 622 142 b 254 371 339 142 254 215 l 254 989 l 67 989 l 67 372 b 481 -21 67 115 232 -21 z "},"Ŭ":{"ha":961,"x_min":0,"x_max":0,"o":"m 481 1042 b 714 1249 607 1042 696 1121 l 582 1249 b 481 1154 575 1188 536 1154 b 379 1249 424 1154 386 1188 l 247 1249 b 481 1042 263 1121 354 1042 z m 481 -21 b 894 372 735 -21 894 115 l 894 989 l 707 989 l 707 371 b 481 142 707 215 622 142 b 254 371 339 142 254 215 l 254 989 l 67 989 l 67 372 b 481 -21 67 115 232 -21 z "},"Û":{"ha":961,"x_min":0,"x_max":0,"o":"m 481 1160 l 588 1049 l 747 1049 l 585 1249 l 375 1249 l 214 1049 l 374 1049 z m 707 989 l 707 371 b 481 142 707 215 622 142 b 254 371 339 142 254 215 l 254 989 l 67 989 l 67 372 b 481 -21 67 115 232 -21 b 894 372 735 -21 894 115 l 894 989 z "},"Ü":{"ha":961,"x_min":0,"x_max":0,"o":"m 257 1049 l 429 1049 l 429 1213 l 257 1213 z m 529 1049 l 701 1049 l 701 1213 l 529 1213 z m 481 -21 b 894 372 735 -21 894 115 l 894 989 l 707 989 l 707 371 b 481 142 707 215 622 142 b 254 371 339 142 254 215 l 254 989 l 67 989 l 67 372 b 481 -21 67 115 232 -21 z "},"Ù":{"ha":961,"x_min":0,"x_max":0,"o":"m 406 1049 l 549 1049 l 428 1249 l 226 1249 z m 481 -21 b 894 372 735 -21 894 115 l 894 989 l 707 989 l 707 371 b 481 142 707 215 622 142 b 254 371 339 142 254 215 l 254 989 l 67 989 l 67 372 b 481 -21 67 115 232 -21 z "},"Ű":{"ha":961,"x_min":0,"x_max":0,"o":"m 269 1049 l 407 1049 l 592 1249 l 392 1249 z m 547 1049 l 685 1049 l 869 1249 l 669 1249 z m 481 -21 b 894 372 735 -21 894 115 l 894 989 l 707 989 l 707 371 b 481 142 707 215 622 142 b 254 371 339 142 254 215 l 254 989 l 67 989 l 67 372 b 481 -21 67 115 232 -21 z "},"Ū":{"ha":961,"x_min":0,"x_max":0,"o":"m 260 1049 l 701 1049 l 701 1171 l 260 1171 z m 481 -21 b 894 372 735 -21 894 115 l 894 989 l 707 989 l 707 371 b 481 142 707 215 622 142 b 254 371 339 142 254 215 l 254 989 l 67 989 l 67 372 b 481 -21 67 115 232 -21 z "},"Ų":{"ha":961,"x_min":0,"x_max":0,"o":"m 707 989 l 707 371 b 481 142 707 215 622 142 b 254 371 339 142 254 215 l 254 989 l 67 989 l 67 372 b 460 -21 67 122 222 -12 b 363 -156 394 -57 363 -110 b 542 -289 363 -240 438 -289 b 640 -275 582 -289 619 -282 l 640 -171 b 571 -182 619 -176 597 -182 b 501 -129 540 -182 501 -171 b 640 0 501 -96 531 -51 l 638 0 b 894 372 799 47 894 174 l 894 989 z "},"Ů":{"ha":961,"x_min":0,"x_max":0,"o":"m 481 883 b 679 1072 592 883 679 963 b 481 1263 679 1183 592 1263 b 282 1072 369 1263 282 1183 b 481 883 282 963 369 883 z m 481 989 b 394 1072 433 989 394 1025 b 481 1157 394 1121 433 1157 b 565 1072 528 1157 565 1121 b 481 989 565 1025 528 989 z m 481 -21 b 894 372 735 -21 894 115 l 894 989 l 707 989 l 707 371 b 481 142 707 215 622 142 b 254 371 339 142 254 215 l 254 989 l 67 989 l 67 372 b 481 -21 67 115 232 -21 z "},"Ũ":{"ha":961,"x_min":0,"x_max":0,"o":"m 229 1049 l 346 1049 b 385 1107 347 1090 360 1107 b 467 1082 408 1107 438 1094 b 590 1049 506 1065 549 1049 b 729 1232 675 1049 729 1104 l 613 1232 b 574 1174 611 1190 599 1174 b 489 1200 546 1174 518 1186 b 368 1232 453 1215 414 1232 b 229 1049 283 1232 229 1176 z m 481 -21 b 894 372 735 -21 894 115 l 894 989 l 707 989 l 707 371 b 481 142 707 215 622 142 b 254 371 339 142 254 215 l 254 989 l 67 989 l 67 372 b 481 -21 67 115 232 -21 z "},"Ẃ":{"ha":1358,"x_min":0,"x_max":0,"o":"m 932 1249 l 731 1249 l 610 1049 l 753 1049 z m 1156 989 l 1051 590 b 961 213 1021 468 989 338 b 878 592 936 338 908 468 l 776 989 l 583 989 l 482 592 b 397 214 453 468 424 339 b 307 590 371 339 338 468 l 204 989 l 8 989 l 283 0 l 493 0 l 599 411 b 679 761 628 525 656 644 b 760 411 703 644 732 525 l 865 0 l 1076 0 l 1350 989 z "},"Ŵ":{"ha":1358,"x_min":0,"x_max":0,"o":"m 679 1160 l 786 1049 l 946 1049 l 783 1249 l 574 1249 l 413 1049 l 572 1049 z m 1156 989 l 1051 590 b 961 213 1021 468 989 338 b 878 592 936 338 908 468 l 776 989 l 583 989 l 482 592 b 397 214 453 468 424 339 b 307 590 371 339 338 468 l 204 989 l 8 989 l 283 0 l 493 0 l 599 411 b 679 761 628 525 656 644 b 760 411 703 644 732 525 l 865 0 l 1076 0 l 1350 989 z "},"Ẅ":{"ha":1358,"x_min":0,"x_max":0,"o":"m 629 1213 l 457 1213 l 457 1049 l 629 1049 z m 901 1213 l 729 1213 l 729 1049 l 901 1049 z m 1156 989 l 1051 590 b 961 213 1021 468 989 338 b 878 592 936 338 908 468 l 776 989 l 583 989 l 482 592 b 397 214 453 468 424 339 b 307 590 371 339 338 468 l 204 989 l 8 989 l 283 0 l 493 0 l 599 411 b 679 761 628 525 656 644 b 760 411 703 644 732 525 l 865 0 l 1076 0 l 1350 989 z "},"Ẁ":{"ha":1358,"x_min":0,"x_max":0,"o":"m 749 1049 l 628 1249 l 426 1249 l 606 1049 z m 1156 989 l 1051 590 b 961 213 1021 468 989 338 b 878 592 936 338 908 468 l 776 989 l 583 989 l 482 592 b 397 214 453 468 424 339 b 307 590 371 339 338 468 l 204 989 l 8 989 l 283 0 l 493 0 l 599 411 b 679 761 628 525 656 644 b 760 411 703 644 732 525 l 865 0 l 1076 0 l 1350 989 z "},"Ý":{"ha":949,"x_min":0,"x_max":0,"o":"m 726 1249 l 525 1249 l 404 1049 l 547 1049 z m 733 989 l 625 811 b 479 560 576 729 526 644 b 331 810 432 643 381 726 l 221 989 l 8 989 l 382 390 l 382 0 l 569 0 l 569 390 l 940 989 z "},"Ŷ":{"ha":949,"x_min":0,"x_max":0,"o":"m 474 1160 l 581 1049 l 740 1049 l 578 1249 l 368 1249 l 207 1049 l 367 1049 z m 733 989 l 625 811 b 479 560 576 729 526 644 b 331 810 432 643 381 726 l 221 989 l 8 989 l 382 390 l 382 0 l 569 0 l 569 390 l 940 989 z "},"Ÿ":{"ha":949,"x_min":0,"x_max":0,"o":"m 424 1213 l 251 1213 l 251 1049 l 424 1049 z m 696 1213 l 524 1213 l 524 1049 l 696 1049 z m 733 989 l 625 811 b 479 560 576 729 526 644 b 331 810 432 643 381 726 l 221 989 l 8 989 l 382 390 l 382 0 l 569 0 l 569 390 l 940 989 z "},"Ỳ":{"ha":949,"x_min":0,"x_max":0,"o":"m 543 1049 l 422 1249 l 221 1249 l 400 1049 z m 733 989 l 625 811 b 479 560 576 729 526 644 b 331 810 432 643 381 726 l 221 989 l 8 989 l 382 390 l 382 0 l 569 0 l 569 390 l 940 989 z "},"Ź":{"ha":871,"x_min":0,"x_max":0,"o":"m 692 1249 l 490 1249 l 369 1049 l 513 1049 z m 558 168 b 272 165 464 168 368 167 b 453 379 333 236 393 307 l 828 838 l 828 989 l 54 989 l 54 821 l 301 821 b 588 824 396 821 492 822 b 407 610 526 753 467 682 l 35 153 l 35 0 l 836 0 l 836 168 z "},"Ž":{"ha":871,"x_min":0,"x_max":0,"o":"m 544 1049 l 706 1249 l 546 1249 l 439 1138 l 332 1249 l 172 1249 l 335 1049 z m 558 168 b 272 165 464 168 368 167 b 453 379 333 236 393 307 l 828 838 l 828 989 l 54 989 l 54 821 l 301 821 b 588 824 396 821 492 822 b 407 610 526 753 467 682 l 35 153 l 35 0 l 836 0 l 836 168 z "},"Ż":{"ha":871,"x_min":0,"x_max":0,"o":"m 524 1213 l 351 1213 l 351 1049 l 524 1049 z m 558 168 b 272 165 464 168 368 167 b 453 379 333 236 393 307 l 828 838 l 828 989 l 54 989 l 54 821 l 301 821 b 588 824 396 821 492 822 b 407 610 526 753 467 682 l 35 153 l 35 0 l 836 0 l 836 168 z "},"á":{"ha":749,"x_min":0,"x_max":0,"o":"m 643 1010 l 442 1010 l 321 810 l 464 810 z m 715 0 b 686 136 696 28 686 85 l 686 518 b 388 733 686 647 601 733 b 65 489 164 733 75 640 l 238 489 b 386 603 244 576 286 603 b 517 514 488 603 517 569 b 415 432 517 461 482 440 l 307 422 b 32 199 104 403 32 318 b 290 -17 32 60 138 -17 b 521 88 396 -17 474 21 b 540 0 524 53 529 19 z m 332 108 b 211 206 251 108 211 146 b 340 308 211 263 243 297 l 435 319 b 517 349 472 324 499 332 l 517 283 b 332 108 517 158 425 108 z "},"ă":{"ha":749,"x_min":0,"x_max":0,"o":"m 388 803 b 621 1010 514 803 603 881 l 489 1010 b 388 915 482 947 443 915 b 286 1010 331 915 293 947 l 154 1010 b 388 803 169 881 261 803 z m 715 0 b 686 136 696 28 686 85 l 686 518 b 388 733 686 647 601 733 b 65 489 164 733 75 640 l 238 489 b 386 603 244 576 286 603 b 517 514 488 603 517 569 b 415 432 517 461 482 440 l 307 422 b 32 199 104 403 32 318 b 290 -17 32 60 138 -17 b 521 88 396 -17 474 21 b 540 0 524 53 529 19 z m 332 108 b 211 206 251 108 211 146 b 340 308 211 263 243 297 l 435 319 b 517 349 472 324 499 332 l 517 283 b 332 108 517 158 425 108 z "},"â":{"ha":749,"x_min":0,"x_max":0,"o":"m 386 919 l 493 810 l 653 810 l 490 1010 l 281 1010 l 119 810 l 279 810 z m 715 0 b 686 136 696 28 686 85 l 686 518 b 388 733 686 647 601 733 b 65 489 164 733 75 640 l 238 489 b 386 603 244 576 286 603 b 517 514 488 603 517 569 b 415 432 517 461 482 440 l 307 422 b 32 199 104 403 32 318 b 290 -17 32 60 138 -17 b 521 88 396 -17 474 21 b 540 0 524 53 529 19 z m 332 108 b 211 206 251 108 211 146 b 340 308 211 263 243 297 l 435 319 b 517 349 472 324 499 332 l 517 283 b 332 108 517 158 425 108 z "},"ä":{"ha":749,"x_min":0,"x_max":0,"o":"m 336 974 l 164 974 l 164 810 l 336 810 z m 608 974 l 436 974 l 436 810 l 608 810 z m 715 0 b 686 136 696 28 686 85 l 686 518 b 388 733 686 647 601 733 b 65 489 164 733 75 640 l 238 489 b 386 603 244 576 286 603 b 517 514 488 603 517 569 b 415 432 517 461 482 440 l 307 422 b 32 199 104 403 32 318 b 290 -17 32 60 138 -17 b 521 88 396 -17 474 21 b 540 0 524 53 529 19 z m 332 108 b 211 206 251 108 211 146 b 340 308 211 263 243 297 l 435 319 b 517 349 472 324 499 332 l 517 283 b 332 108 517 158 425 108 z "},"à":{"ha":749,"x_min":0,"x_max":0,"o":"m 461 810 l 340 1010 l 139 1010 l 318 810 z m 715 0 b 686 136 696 28 686 85 l 686 518 b 388 733 686 647 601 733 b 65 489 164 733 75 640 l 238 489 b 386 603 244 576 286 603 b 517 514 488 603 517 569 b 415 432 517 461 482 440 l 307 422 b 32 199 104 403 32 318 b 290 -17 32 60 138 -17 b 521 88 396 -17 474 21 b 540 0 524 53 529 19 z m 332 108 b 211 206 251 108 211 146 b 340 308 211 263 243 297 l 435 319 b 517 349 472 324 499 332 l 517 283 b 332 108 517 158 425 108 z "},"ā":{"ha":749,"x_min":0,"x_max":0,"o":"m 608 932 l 167 932 l 167 810 l 608 810 z m 715 0 b 686 136 696 28 686 85 l 686 518 b 388 733 686 647 601 733 b 65 489 164 733 75 640 l 238 489 b 386 603 244 576 286 603 b 517 514 488 603 517 569 b 415 432 517 461 482 440 l 307 422 b 32 199 104 403 32 318 b 290 -17 32 60 138 -17 b 521 88 396 -17 474 21 b 540 0 524 53 529 19 z m 332 108 b 211 206 251 108 211 146 b 340 308 211 263 243 297 l 435 319 b 517 349 472 324 499 332 l 517 283 b 332 108 517 158 425 108 z "},"ą":{"ha":749,"x_min":0,"x_max":0,"o":"m 578 -129 b 715 0 578 -96 607 -51 b 686 136 696 28 686 85 l 686 518 b 388 733 686 647 601 733 b 65 489 164 733 75 640 l 238 489 b 386 603 244 576 286 603 b 517 514 488 603 517 569 b 415 432 517 461 482 440 l 307 422 b 32 199 104 403 32 318 b 290 -17 32 60 138 -17 b 521 88 396 -17 474 21 b 551 -7 524 56 531 21 b 439 -156 475 -47 439 -106 b 618 -289 439 -240 514 -289 b 715 -275 658 -289 694 -282 l 715 -171 b 647 -182 696 -176 674 -182 b 578 -129 617 -182 578 -171 z m 332 108 b 211 206 251 108 211 146 b 340 308 211 263 243 297 l 435 319 b 517 349 472 324 499 332 l 517 283 b 332 108 517 158 425 108 z "},"å":{"ha":749,"x_min":0,"x_max":0,"o":"m 388 803 b 586 993 499 803 586 882 b 388 1182 586 1103 499 1182 b 189 993 276 1182 189 1103 b 388 803 189 882 276 803 z m 388 1076 b 472 993 435 1076 472 1040 b 388 908 472 944 435 908 b 303 993 340 908 303 944 b 388 1076 303 1040 340 1076 z m 715 0 b 686 136 696 28 686 85 l 686 518 b 388 733 686 647 601 733 b 65 489 164 733 75 640 l 238 489 b 386 603 244 576 286 603 b 517 514 488 603 517 569 b 415 432 517 461 482 440 l 307 422 b 32 199 104 403 32 318 b 290 -17 32 60 138 -17 b 521 88 396 -17 474 21 b 540 0 524 53 529 19 z m 332 108 b 211 206 251 108 211 146 b 340 308 211 263 243 297 l 435 319 b 517 349 472 324 499 332 l 517 283 b 332 108 517 158 425 108 z "},"ǻ":{"ha":749,"x_min":0,"x_max":0,"o":"m 643 1454 l 442 1454 l 321 1254 l 464 1254 z m 388 803 b 586 993 499 803 586 882 b 388 1182 586 1103 499 1182 b 189 993 276 1182 189 1103 b 388 803 189 882 276 803 z m 388 1076 b 472 993 435 1076 472 1040 b 388 908 472 944 435 908 b 303 993 340 908 303 944 b 388 1076 303 1040 340 1076 z m 715 0 b 686 136 696 28 686 85 l 686 518 b 388 733 686 647 601 733 b 65 489 164 733 75 640 l 238 489 b 386 603 244 576 286 603 b 517 514 488 603 517 569 b 415 432 517 461 482 440 l 307 422 b 32 199 104 403 32 318 b 290 -17 32 60 138 -17 b 521 88 396 -17 474 21 b 540 0 524 53 529 19 z m 332 108 b 211 206 251 108 211 146 b 340 308 211 263 243 297 l 435 319 b 517 349 472 324 499 332 l 517 283 b 332 108 517 158 425 108 z "},"ã":{"ha":749,"x_min":0,"x_max":0,"o":"m 292 868 b 374 843 315 868 344 856 b 497 810 413 826 456 810 b 636 993 582 810 636 865 l 519 993 b 481 935 518 950 506 935 b 396 960 453 935 425 947 b 275 993 360 976 321 993 b 136 810 190 993 136 938 l 253 810 b 292 868 254 851 267 868 z m 715 0 b 686 136 696 28 686 85 l 686 518 b 388 733 686 647 601 733 b 65 489 164 733 75 640 l 238 489 b 386 603 244 576 286 603 b 517 514 488 603 517 569 b 415 432 517 461 482 440 l 307 422 b 32 199 104 403 32 318 b 290 -17 32 60 138 -17 b 521 88 396 -17 474 21 b 540 0 524 53 529 19 z m 332 108 b 211 206 251 108 211 146 b 340 308 211 263 243 297 l 435 319 b 517 349 472 324 499 332 l 517 283 b 332 108 517 158 425 108 z "},"æ":{"ha":1231,"x_min":0,"x_max":0,"o":"m 1189 346 b 851 733 1189 574 1061 733 b 625 647 760 733 682 703 b 388 733 586 701 514 733 b 65 489 164 733 75 640 l 238 489 b 386 603 244 576 286 603 b 517 514 488 603 517 569 b 415 432 517 461 482 440 l 307 422 b 32 199 104 403 32 318 b 303 -17 32 60 138 -17 b 590 108 424 -17 521 24 b 854 -17 650 28 742 -17 b 1172 222 1018 -17 1138 76 l 1011 222 b 857 119 988 158 936 119 b 679 304 760 119 692 178 l 1189 304 z m 851 597 b 1022 426 950 597 1010 528 l 681 426 b 851 597 696 543 763 597 z m 332 108 b 211 206 251 108 211 146 b 340 308 211 263 243 297 l 435 319 b 517 349 472 324 499 332 l 517 283 b 332 108 517 158 425 108 z "},"ǽ":{"ha":1231,"x_min":0,"x_max":0,"o":"m 879 1010 l 678 1010 l 557 810 l 700 810 z m 1189 346 b 851 733 1189 574 1061 733 b 625 647 760 733 682 703 b 388 733 586 701 514 733 b 65 489 164 733 75 640 l 238 489 b 386 603 244 576 286 603 b 517 514 488 603 517 569 b 415 432 517 461 482 440 l 307 422 b 32 199 104 403 32 318 b 303 -17 32 60 138 -17 b 590 108 424 -17 521 24 b 854 -17 650 28 742 -17 b 1172 222 1018 -17 1138 76 l 1011 222 b 857 119 988 158 936 119 b 679 304 760 119 692 178 l 1189 304 z m 851 597 b 1022 426 950 597 1010 528 l 681 426 b 851 597 696 543 763 597 z m 332 108 b 211 206 251 108 211 146 b 340 308 211 263 243 297 l 435 319 b 517 349 472 324 499 332 l 517 283 b 332 108 517 158 425 108 z "},"ć":{"ha":754,"x_min":0,"x_max":0,"o":"m 328 810 l 471 810 l 650 1010 l 449 1010 z m 393 -17 b 729 267 576 -17 710 92 l 554 267 b 393 129 540 172 472 129 b 218 358 292 129 218 201 b 393 588 218 515 289 588 b 551 458 471 588 535 547 l 726 458 b 393 733 706 626 581 733 b 39 358 179 733 39 588 b 393 -17 39 129 181 -17 z "},"č":{"ha":754,"x_min":0,"x_max":0,"o":"m 499 808 l 660 1008 l 500 1008 l 393 897 l 286 1008 l 126 1008 l 289 808 z m 554 267 b 393 129 540 172 472 129 b 218 358 292 129 218 201 b 393 588 218 515 289 588 b 551 458 471 588 535 547 l 726 458 b 393 733 706 626 581 733 b 39 358 179 733 39 588 b 393 -17 39 129 181 -17 b 729 267 576 -17 710 92 z "},"ç":{"ha":754,"x_min":0,"x_max":0,"o":"m 729 267 l 554 267 b 393 129 540 172 472 129 b 218 358 292 129 218 201 b 393 588 218 515 289 588 b 551 458 471 588 535 547 l 726 458 b 393 733 706 626 581 733 b 39 358 179 733 39 588 b 361 -15 39 142 167 -1 l 310 -81 l 310 -133 b 346 -132 326 -132 336 -132 b 425 -185 401 -132 425 -153 b 339 -243 425 -221 394 -243 b 260 -237 308 -243 289 -242 l 260 -311 b 351 -319 286 -315 325 -319 b 557 -186 499 -319 557 -262 b 419 -76 557 -125 507 -76 l 401 -76 l 458 -12 b 729 267 607 11 713 113 z "},"ĉ":{"ha":754,"x_min":0,"x_max":0,"o":"m 393 919 l 500 810 l 660 810 l 497 1010 l 288 1010 l 126 810 l 286 810 z m 554 267 b 393 129 540 172 472 129 b 218 358 292 129 218 201 b 393 588 218 515 289 588 b 551 458 471 588 535 547 l 726 458 b 393 733 706 626 581 733 b 39 358 179 733 39 588 b 393 -17 39 129 181 -17 b 729 267 576 -17 710 92 z "},"ċ":{"ha":754,"x_min":0,"x_max":0,"o":"m 307 810 l 479 810 l 479 974 l 307 974 z m 393 -17 b 729 267 576 -17 710 92 l 554 267 b 393 129 540 172 472 129 b 218 358 292 129 218 201 b 393 588 218 515 289 588 b 551 458 471 588 535 547 l 726 458 b 393 733 706 626 581 733 b 39 358 179 733 39 588 b 393 -17 39 129 181 -17 z "},"ð":{"ha":806,"x_min":0,"x_max":0,"o":"m 557 847 l 689 886 l 689 996 l 478 933 l 425 989 l 233 989 l 333 889 l 196 849 l 196 739 l 414 804 b 517 675 450 764 485 721 b 399 703 478 693 436 703 b 39 347 181 703 39 560 b 404 -17 39 124 193 -17 b 765 369 617 -17 765 121 b 557 847 765 531 690 690 z m 404 128 b 218 343 290 128 218 204 b 404 561 218 483 290 561 b 590 343 518 561 590 483 b 404 128 590 204 517 128 z "},"ď":{"ha":1015,"x_min":0,"x_max":0,"o":"m 582 624 b 361 733 533 693 460 733 b 39 358 163 733 39 586 b 361 -17 39 131 163 -17 b 588 100 464 -17 539 28 l 588 0 l 757 0 l 757 989 l 582 989 z m 850 989 l 807 758 l 926 758 l 1029 989 z m 401 128 b 218 353 289 128 218 201 b 401 589 218 504 289 589 b 586 358 515 589 586 510 b 401 128 586 207 515 128 z "},"đ":{"ha":868,"x_min":0,"x_max":0,"o":"m 868 911 l 757 911 l 757 989 l 582 989 l 582 911 l 426 911 l 426 803 l 582 803 l 582 624 b 361 733 533 693 460 733 b 39 358 163 733 39 586 b 361 -17 39 131 163 -17 b 588 100 464 -17 539 28 l 588 0 l 757 0 l 757 803 l 868 803 z m 401 128 b 218 353 289 128 218 201 b 401 589 218 504 289 589 b 586 358 515 589 586 510 b 401 128 586 207 515 128 z "},"é":{"ha":789,"x_min":0,"x_max":0,"o":"m 650 1010 l 449 1010 l 328 810 l 471 810 z m 747 346 b 393 733 747 574 613 733 b 39 358 181 733 39 583 b 396 -17 39 129 185 -17 b 729 222 568 -17 693 76 l 561 222 b 397 119 535 158 481 119 b 211 304 296 119 224 176 l 747 304 z m 392 597 b 572 426 496 597 558 528 l 213 426 b 392 597 229 544 299 597 z "},"ĕ":{"ha":789,"x_min":0,"x_max":0,"o":"m 393 803 b 626 1010 519 803 608 881 l 494 1010 b 393 915 488 947 449 915 b 292 1010 336 915 299 947 l 160 1010 b 393 803 175 881 267 803 z m 747 346 b 393 733 747 574 613 733 b 39 358 181 733 39 583 b 396 -17 39 129 185 -17 b 729 222 568 -17 693 76 l 561 222 b 397 119 535 158 481 119 b 211 304 296 119 224 176 l 747 304 z m 392 597 b 572 426 496 597 558 528 l 213 426 b 392 597 229 544 299 597 z "},"ě":{"ha":789,"x_min":0,"x_max":0,"o":"m 499 808 l 660 1008 l 500 1008 l 393 897 l 286 1008 l 126 1008 l 289 808 z m 747 346 b 393 733 747 574 613 733 b 39 358 181 733 39 583 b 396 -17 39 129 185 -17 b 729 222 568 -17 693 76 l 561 222 b 397 119 535 158 481 119 b 211 304 296 119 224 176 l 747 304 z m 392 597 b 572 426 496 597 558 528 l 213 426 b 392 597 229 544 299 597 z "},"ê":{"ha":789,"x_min":0,"x_max":0,"o":"m 393 919 l 500 810 l 660 810 l 497 1010 l 288 1010 l 126 810 l 286 810 z m 747 346 b 393 733 747 574 613 733 b 39 358 181 733 39 583 b 396 -17 39 129 185 -17 b 729 222 568 -17 693 76 l 561 222 b 397 119 535 158 481 119 b 211 304 296 119 224 176 l 747 304 z m 392 597 b 572 426 496 597 558 528 l 213 426 b 392 597 229 544 299 597 z "},"ë":{"ha":789,"x_min":0,"x_max":0,"o":"m 343 974 l 171 974 l 171 810 l 343 810 z m 615 974 l 443 974 l 443 810 l 615 810 z m 747 346 b 393 733 747 574 613 733 b 39 358 181 733 39 583 b 396 -17 39 129 185 -17 b 729 222 568 -17 693 76 l 561 222 b 397 119 535 158 481 119 b 211 304 296 119 224 176 l 747 304 z m 392 597 b 572 426 496 597 558 528 l 213 426 b 392 597 229 544 299 597 z "},"ė":{"ha":789,"x_min":0,"x_max":0,"o":"m 479 974 l 307 974 l 307 810 l 479 810 z m 747 346 b 393 733 747 574 613 733 b 39 358 181 733 39 583 b 396 -17 39 129 185 -17 b 729 222 568 -17 693 76 l 561 222 b 397 119 535 158 481 119 b 211 304 296 119 224 176 l 747 304 z m 392 597 b 572 426 496 597 558 528 l 213 426 b 392 597 229 544 299 597 z "},"è":{"ha":789,"x_min":0,"x_max":0,"o":"m 467 810 l 346 1010 l 144 1010 l 324 810 z m 747 346 b 393 733 747 574 613 733 b 39 358 181 733 39 583 b 396 -17 39 129 185 -17 b 729 222 568 -17 693 76 l 561 222 b 397 119 535 158 481 119 b 211 304 296 119 224 176 l 747 304 z m 392 597 b 572 426 496 597 558 528 l 213 426 b 392 597 229 544 299 597 z "},"ē":{"ha":789,"x_min":0,"x_max":0,"o":"m 614 932 l 172 932 l 172 810 l 614 810 z m 747 346 b 393 733 747 574 613 733 b 39 358 181 733 39 583 b 396 -17 39 129 185 -17 b 729 222 568 -17 693 76 l 561 222 b 397 119 535 158 481 119 b 211 304 296 119 224 176 l 747 304 z m 392 597 b 572 426 496 597 558 528 l 213 426 b 392 597 229 544 299 597 z "},"ę":{"ha":789,"x_min":0,"x_max":0,"o":"m 747 346 b 393 733 747 574 613 733 b 39 358 181 733 39 583 b 344 -14 39 149 161 8 b 235 -156 271 -50 235 -107 b 414 -289 235 -240 310 -289 b 513 -275 454 -289 492 -282 l 513 -171 b 443 -182 492 -176 469 -182 b 374 -129 413 -182 374 -171 b 508 -1 374 -96 401 -53 b 729 222 622 29 701 111 l 561 222 b 397 119 535 158 481 119 b 211 304 296 119 224 176 l 747 304 z m 392 597 b 572 426 496 597 558 528 l 213 426 b 392 597 229 544 299 597 z "},"ə":{"ha":789,"x_min":0,"x_max":0,"o":"m 392 733 b 57 494 222 733 94 640 l 226 494 b 390 597 253 558 310 597 b 578 413 494 597 565 540 l 43 413 l 43 371 b 396 -17 43 143 176 -17 b 750 358 610 -17 750 133 b 392 733 750 588 606 733 z m 397 119 b 218 290 294 119 231 189 l 576 290 b 397 119 560 172 490 119 z "},"ǵ":{"ha":828,"x_min":0,"x_max":0,"o":"m 668 1010 l 467 1010 l 346 810 l 489 810 z m 588 717 l 588 618 b 361 733 540 690 465 733 b 39 368 165 733 39 588 b 363 3 39 150 168 3 b 582 110 463 3 535 43 l 582 19 b 406 -154 582 -93 521 -154 b 246 -39 310 -154 254 -115 l 74 -39 b 403 -289 85 -187 196 -289 b 757 24 636 -289 757 -165 l 757 717 z m 401 147 b 218 367 289 147 218 228 b 401 589 218 506 289 589 b 586 368 515 589 586 511 b 401 147 586 226 515 147 z "},"ğ":{"ha":828,"x_min":0,"x_max":0,"o":"m 411 803 b 644 1010 538 803 626 881 l 513 1010 b 411 915 506 947 467 915 b 310 1010 354 915 317 947 l 178 1010 b 411 803 193 881 285 803 z m 588 717 l 588 618 b 361 733 540 690 465 733 b 39 368 165 733 39 588 b 363 3 39 150 168 3 b 582 110 463 3 535 43 l 582 19 b 406 -154 582 -93 521 -154 b 246 -39 310 -154 254 -115 l 74 -39 b 403 -289 85 -187 196 -289 b 757 24 636 -289 757 -165 l 757 717 z m 401 147 b 218 367 289 147 218 228 b 401 589 218 506 289 589 b 586 368 515 589 586 511 b 401 147 586 226 515 147 z "},"ĝ":{"ha":828,"x_min":0,"x_max":0,"o":"m 411 919 l 518 810 l 678 810 l 515 1010 l 306 1010 l 144 810 l 304 810 z m 588 717 l 588 618 b 361 733 540 690 465 733 b 39 368 165 733 39 588 b 363 3 39 150 168 3 b 582 110 463 3 535 43 l 582 19 b 406 -154 582 -93 521 -154 b 246 -39 310 -154 254 -115 l 74 -39 b 403 -289 85 -187 196 -289 b 757 24 636 -289 757 -165 l 757 717 z m 401 147 b 218 367 289 147 218 228 b 401 589 218 506 289 589 b 586 368 515 589 586 511 b 401 147 586 226 515 147 z "},"ģ":{"ha":828,"x_min":0,"x_max":0,"o":"m 496 947 l 418 947 l 418 967 b 471 1018 418 999 436 1017 l 496 1018 l 496 1088 l 468 1086 b 326 964 371 1083 326 1046 l 326 810 l 496 810 z m 588 717 l 588 618 b 361 733 540 690 465 733 b 39 368 165 733 39 588 b 363 3 39 150 168 3 b 582 110 463 3 535 43 l 582 19 b 406 -154 582 -93 521 -154 b 246 -39 310 -154 254 -115 l 74 -39 b 403 -289 85 -187 196 -289 b 757 24 636 -289 757 -165 l 757 717 z m 401 147 b 218 367 289 147 218 228 b 401 589 218 506 289 589 b 586 368 515 589 586 511 b 401 147 586 226 515 147 z "},"ġ":{"ha":828,"x_min":0,"x_max":0,"o":"m 497 974 l 325 974 l 325 810 l 497 810 z m 588 717 l 588 618 b 361 733 540 690 465 733 b 39 368 165 733 39 588 b 363 3 39 150 168 3 b 582 110 463 3 535 43 l 582 19 b 406 -154 582 -93 521 -154 b 246 -39 310 -154 254 -115 l 74 -39 b 403 -289 85 -187 196 -289 b 757 24 636 -289 757 -165 l 757 717 z m 401 147 b 218 367 289 147 218 228 b 401 589 218 506 289 589 b 586 368 515 589 586 511 b 401 147 586 226 515 147 z "},"ħ":{"ha":825,"x_min":0,"x_max":0,"o":"m 504 733 b 285 619 404 733 331 685 l 285 803 l 440 803 l 440 911 l 285 911 l 285 989 l 111 989 l 111 911 l 0 911 l 0 803 l 111 803 l 111 0 l 285 0 l 285 401 b 446 582 285 529 368 582 b 581 446 535 582 581 538 l 581 0 l 754 0 l 754 475 b 504 733 754 646 653 733 z "},"ĥ":{"ha":786,"x_min":0,"x_max":0,"o":"m 158 1160 l 242 1049 l 392 1049 l 257 1249 l 58 1249 l -75 1049 l 74 1049 z m 464 733 b 246 621 367 733 293 686 l 246 989 l 71 989 l 71 0 l 246 0 l 246 401 b 406 582 246 529 329 582 b 540 446 494 582 540 538 l 540 0 l 715 0 l 715 475 b 464 733 715 646 614 733 z "},"ı":{"ha":317,"x_min":0,"x_max":0,"o":"m 71 0 l 246 0 l 246 717 l 71 717 z "},"í":{"ha":317,"x_min":0,"x_max":0,"o":"m 94 810 l 224 810 l 353 1010 l 168 1010 z m 71 0 l 246 0 l 246 717 l 71 717 z "},"ĭ":{"ha":317,"x_min":0,"x_max":0,"o":"m 158 803 b 371 1001 278 803 358 885 l 244 1001 b 158 915 240 950 211 915 b 72 1001 106 915 76 950 l -54 1001 b 158 803 -44 885 39 803 z m 71 0 l 246 0 l 246 717 l 71 717 z "},"î":{"ha":317,"x_min":0,"x_max":0,"o":"m 158 921 l 242 810 l 392 810 l 257 1010 l 58 1010 l -75 810 l 74 810 z m 71 0 l 246 0 l 246 717 l 71 717 z "},"ï":{"ha":317,"x_min":0,"x_max":0,"o":"m -42 810 l 118 810 l 118 974 l -42 974 z m 199 810 l 357 810 l 357 974 l 199 974 z m 71 0 l 246 0 l 246 717 l 71 717 z "},"ì":{"ha":317,"x_min":0,"x_max":0,"o":"m 93 810 l 222 810 l 149 1010 l -36 1010 z m 71 0 l 246 0 l 246 717 l 71 717 z "},"ĳ":{"ha":633,"x_min":0,"x_max":0,"o":"m 72 810 l 244 810 l 244 974 l 72 974 z m 389 810 l 561 810 l 561 974 l 389 974 z m 71 0 l 246 0 l 246 717 l 71 717 z m 351 -276 b 563 -93 489 -276 563 -225 l 563 717 l 388 717 l 388 -74 b 319 -136 388 -121 364 -136 l 285 -136 l 285 -274 b 351 -276 307 -275 324 -276 z "},"ī":{"ha":317,"x_min":0,"x_max":0,"o":"m -24 810 l 340 810 l 340 932 l -24 932 z m 71 0 l 246 0 l 246 717 l 71 717 z "},"į":{"ha":317,"x_min":0,"x_max":0,"o":"m 244 974 l 72 974 l 72 810 l 244 810 z m 206 -183 b 146 -126 181 -183 146 -174 b 246 0 146 -97 160 -51 l 246 717 l 71 717 l 71 0 l 132 0 b 26 -158 63 -35 26 -103 b 181 -289 26 -243 89 -289 b 257 -276 213 -289 240 -282 l 257 -174 b 206 -183 242 -181 224 -183 z "},"ĩ":{"ha":317,"x_min":0,"x_max":0,"o":"m -43 810 l 51 810 b 83 867 51 850 63 867 b 149 843 101 867 122 856 b 249 810 178 826 214 810 b 360 990 315 810 360 863 l 265 990 b 233 933 265 950 254 933 b 167 958 213 933 190 944 b 68 990 138 974 106 990 b -43 810 1 990 -43 938 z m 71 0 l 246 0 l 246 717 l 71 717 z "},"ȷ":{"ha":317,"x_min":0,"x_max":0,"o":"m 35 -276 b 246 -93 172 -276 246 -225 l 246 717 l 71 717 l 71 -74 b 3 -136 71 -121 47 -136 l -32 -136 l -32 -274 b 35 -276 -10 -275 7 -276 z "},"ĵ":{"ha":317,"x_min":0,"x_max":0,"o":"m 158 921 l 242 810 l 392 810 l 257 1010 l 58 1010 l -75 810 l 74 810 z m 71 -74 b 3 -136 71 -121 47 -136 l -32 -136 l -32 -274 b 35 -276 -10 -275 7 -276 b 246 -93 172 -276 246 -225 l 246 717 l 71 717 z "},"ķ":{"ha":764,"x_min":0,"x_max":0,"o":"m 472 446 l 743 717 l 535 717 l 243 419 l 243 989 l 71 989 l 71 0 l 243 0 l 243 225 l 351 333 l 560 0 l 760 0 z m 317 -231 l 394 -231 l 394 -250 b 342 -301 394 -282 376 -300 l 317 -301 l 317 -371 l 344 -369 b 486 -247 442 -367 486 -329 l 486 -93 l 317 -93 z "},"ĸ":{"ha":764,"x_min":0,"x_max":0,"o":"m 560 0 l 760 0 l 472 446 l 743 717 l 535 717 l 243 419 l 243 717 l 71 717 l 71 0 l 243 0 l 243 225 l 351 333 z "},"ĺ":{"ha":317,"x_min":0,"x_max":0,"o":"m 224 1049 l 353 1249 l 168 1249 l 94 1049 z m 71 0 l 246 0 l 246 989 l 71 989 z "},"ľ":{"ha":506,"x_min":0,"x_max":0,"o":"m 71 0 l 246 0 l 246 989 l 71 989 z m 297 758 l 417 758 l 519 989 l 340 989 z "},"ļ":{"ha":317,"x_min":0,"x_max":0,"o":"m 71 989 l 71 0 l 246 0 l 246 989 z m 75 -231 l 153 -231 l 153 -250 b 100 -301 153 -282 135 -300 l 75 -301 l 75 -371 l 103 -369 b 244 -247 200 -367 244 -329 l 244 -93 l 75 -93 z "},"ŀ":{"ha":631,"x_min":0,"x_max":0,"o":"m 71 0 l 246 0 l 246 989 l 71 989 z m 375 392 l 578 392 l 578 592 l 375 592 z "},"ł":{"ha":396,"x_min":0,"x_max":0,"o":"m 396 656 l 285 601 l 285 989 l 111 989 l 111 515 l 0 461 l 0 336 l 111 390 l 111 0 l 285 0 l 285 476 l 396 531 z "},"ń":{"ha":786,"x_min":0,"x_max":0,"o":"m 650 1010 l 449 1010 l 328 810 l 471 810 z m 464 733 b 240 614 363 733 286 682 l 240 717 l 71 717 l 71 0 l 246 0 l 246 401 b 406 582 246 529 329 582 b 540 446 494 582 540 538 l 540 0 l 715 0 l 715 475 b 464 733 715 646 614 733 z "},"ŉ":{"ha":1031,"x_min":0,"x_max":0,"o":"m 53 803 l 135 803 l 135 781 b 75 692 135 724 117 694 l 53 690 l 53 594 l 76 596 b 244 788 185 600 244 657 l 244 989 l 53 989 z m 708 733 b 483 611 606 733 529 682 l 483 717 l 315 717 l 315 0 l 489 0 l 489 401 b 650 582 489 529 572 582 b 785 446 739 582 785 538 l 785 0 l 958 0 l 958 475 b 708 733 958 646 858 733 z "},"ň":{"ha":786,"x_min":0,"x_max":0,"o":"m 499 808 l 660 1008 l 500 1008 l 393 897 l 286 1008 l 126 1008 l 289 808 z m 464 733 b 240 614 363 733 286 682 l 240 717 l 71 717 l 71 0 l 246 0 l 246 401 b 406 582 246 529 329 582 b 540 446 494 582 540 538 l 540 0 l 715 0 l 715 475 b 464 733 715 646 614 733 z "},"ņ":{"ha":786,"x_min":0,"x_max":0,"o":"m 464 733 b 240 614 363 733 286 682 l 240 717 l 71 717 l 71 0 l 246 0 l 246 401 b 406 582 246 529 329 582 b 540 446 494 582 540 538 l 540 0 l 715 0 l 715 475 b 464 733 715 646 614 733 z m 307 -231 l 385 -231 l 385 -250 b 332 -301 385 -282 367 -300 l 307 -301 l 307 -371 l 335 -369 b 476 -247 432 -367 476 -329 l 476 -93 l 307 -93 z "},"ŋ":{"ha":786,"x_min":0,"x_max":0,"o":"m 464 733 b 240 614 363 733 286 682 l 240 717 l 71 717 l 71 0 l 246 0 l 246 401 b 406 582 246 529 329 582 b 540 446 494 582 540 538 l 540 -76 b 472 -139 540 -124 517 -139 l 438 -139 l 438 -275 b 504 -278 458 -276 476 -278 b 715 -94 642 -278 715 -226 l 715 475 b 464 733 715 646 614 733 z "},"ñ":{"ha":786,"x_min":0,"x_max":0,"o":"m 299 868 b 381 843 322 868 351 856 b 504 810 419 826 463 810 b 643 993 589 810 643 865 l 526 993 b 488 935 525 950 513 935 b 403 960 460 935 432 947 b 282 993 367 976 328 993 b 143 810 197 993 143 938 l 260 810 b 299 868 261 851 274 868 z m 464 733 b 240 614 363 733 286 682 l 240 717 l 71 717 l 71 0 l 246 0 l 246 401 b 406 582 246 529 329 582 b 540 446 494 582 540 538 l 540 0 l 715 0 l 715 475 b 464 733 715 646 614 733 z "},"ó":{"ha":807,"x_min":0,"x_max":0,"o":"m 339 810 l 482 810 l 661 1010 l 460 1010 z m 404 -17 b 768 358 622 -17 768 131 b 404 733 768 586 622 733 b 39 358 186 733 39 586 b 404 -17 39 131 186 -17 z m 404 128 b 218 358 290 128 218 207 b 404 589 218 510 290 589 b 590 358 517 589 590 510 b 404 128 590 207 517 128 z "},"ŏ":{"ha":807,"x_min":0,"x_max":0,"o":"m 404 803 b 638 1010 531 803 619 881 l 506 1010 b 404 915 499 947 460 915 b 303 1010 347 915 310 947 l 171 1010 b 404 803 186 881 278 803 z m 404 -17 b 768 358 622 -17 768 131 b 404 733 768 586 622 733 b 39 358 186 733 39 586 b 404 -17 39 131 186 -17 z m 404 128 b 218 358 290 128 218 207 b 404 589 218 510 290 589 b 590 358 517 589 590 510 b 404 128 590 207 517 128 z "},"ô":{"ha":807,"x_min":0,"x_max":0,"o":"m 403 919 l 510 810 l 669 810 l 507 1010 l 297 1010 l 136 810 l 296 810 z m 404 733 b 39 358 186 733 39 586 b 404 -17 39 131 186 -17 b 768 358 622 -17 768 131 b 404 733 768 586 622 733 z m 404 128 b 218 358 290 128 218 207 b 404 589 218 510 290 589 b 590 358 517 589 590 510 b 404 128 590 207 517 128 z "},"ö":{"ha":807,"x_min":0,"x_max":0,"o":"m 181 810 l 353 810 l 353 974 l 181 974 z m 453 810 l 625 810 l 625 974 l 453 974 z m 404 -17 b 768 358 622 -17 768 131 b 404 733 768 586 622 733 b 39 358 186 733 39 586 b 404 -17 39 131 186 -17 z m 404 128 b 218 358 290 128 218 207 b 404 589 218 510 290 589 b 590 358 517 589 590 510 b 404 128 590 207 517 128 z "},"ò":{"ha":807,"x_min":0,"x_max":0,"o":"m 335 810 l 478 810 l 357 1010 l 156 1010 z m 404 -17 b 768 358 622 -17 768 131 b 404 733 768 586 622 733 b 39 358 186 733 39 586 b 404 -17 39 131 186 -17 z m 404 128 b 218 358 290 128 218 207 b 404 589 218 510 290 589 b 590 358 517 589 590 510 b 404 128 590 207 517 128 z "},"ő":{"ha":807,"x_min":0,"x_max":0,"o":"m 206 810 l 343 810 l 528 1010 l 328 1010 z m 483 810 l 621 810 l 806 1010 l 606 1010 z m 404 -17 b 768 358 622 -17 768 131 b 404 733 768 586 622 733 b 39 358 186 733 39 586 b 404 -17 39 131 186 -17 z m 404 128 b 218 358 290 128 218 207 b 404 589 218 510 290 589 b 590 358 517 589 590 510 b 404 128 590 207 517 128 z "},"ō":{"ha":807,"x_min":0,"x_max":0,"o":"m 183 810 l 625 810 l 625 932 l 183 932 z m 404 -17 b 768 358 622 -17 768 131 b 404 733 768 586 622 733 b 39 358 186 733 39 586 b 404 -17 39 131 186 -17 z m 404 128 b 218 358 290 128 218 207 b 404 589 218 510 290 589 b 590 358 517 589 590 510 b 404 128 590 207 517 128 z "},"ø":{"ha":807,"x_min":0,"x_max":0,"o":"m 776 707 l 701 774 l 615 675 b 404 733 557 713 486 733 b 39 358 186 733 39 586 b 118 110 39 258 68 174 l 29 8 l 106 -58 l 193 42 b 404 -17 251 4 322 -17 b 768 358 622 -17 768 131 b 689 607 768 458 740 544 z m 213 358 b 404 597 213 515 288 597 b 517 563 449 597 486 586 l 232 239 b 213 358 219 272 213 311 z m 596 358 b 404 119 596 201 521 119 b 292 154 360 119 322 131 l 576 479 b 596 358 589 446 596 406 z "},"ǿ":{"ha":807,"x_min":0,"x_max":0,"o":"m 661 1010 l 460 1010 l 339 810 l 482 810 z m 776 707 l 701 774 l 615 675 b 404 733 557 713 486 733 b 39 358 186 733 39 586 b 118 110 39 258 68 174 l 29 8 l 106 -58 l 193 42 b 404 -17 251 4 322 -17 b 768 358 622 -17 768 131 b 689 607 768 458 740 544 z m 213 358 b 404 597 213 515 288 597 b 517 563 449 597 486 586 l 232 239 b 213 358 219 272 213 311 z m 596 358 b 404 119 596 201 521 119 b 292 154 360 119 322 131 l 576 479 b 596 358 589 446 596 406 z "},"õ":{"ha":807,"x_min":0,"x_max":0,"o":"m 153 810 l 269 810 b 308 868 271 851 283 868 b 390 843 332 868 361 856 b 514 810 429 826 472 810 b 653 993 599 810 653 865 l 536 993 b 497 935 535 950 522 935 b 413 960 469 935 442 947 b 292 993 376 976 338 993 b 153 810 207 993 153 938 z m 404 -17 b 768 358 622 -17 768 131 b 404 733 768 586 622 733 b 39 358 186 733 39 586 b 404 -17 39 131 186 -17 z m 404 128 b 218 358 290 128 218 207 b 404 589 218 510 290 589 b 590 358 517 589 590 510 b 404 128 590 207 517 128 z "},"œ":{"ha":1340,"x_min":0,"x_max":0,"o":"m 1297 346 b 944 733 1297 574 1164 733 b 678 604 832 733 738 686 b 404 733 617 686 519 733 b 39 358 186 733 39 586 b 404 -17 39 131 186 -17 b 678 111 519 -17 617 31 b 946 -17 739 31 833 -17 b 1278 222 1118 -17 1242 76 l 1110 222 b 947 119 1085 158 1031 119 b 763 304 846 119 775 178 l 1297 304 z m 943 597 b 1122 426 1046 597 1110 528 l 764 426 b 943 597 781 543 851 597 z m 404 128 b 218 358 290 128 218 207 b 404 589 218 510 290 589 b 590 358 517 589 590 510 b 404 128 590 207 517 128 z "},"þ":{"ha":829,"x_min":0,"x_max":0,"o":"m 468 733 b 246 622 368 733 294 692 l 246 989 l 71 989 l 71 -272 l 246 -272 l 246 94 b 468 -17 294 25 368 -17 b 789 358 667 -17 789 131 b 468 733 789 586 667 733 z m 426 128 b 243 358 314 128 243 207 b 426 589 243 510 314 589 b 611 364 540 589 611 515 b 426 128 611 213 540 128 z "},"ŕ":{"ha":529,"x_min":0,"x_max":0,"o":"m 489 1010 l 304 1010 l 231 810 l 360 810 z m 454 728 b 240 589 343 728 275 669 l 240 717 l 71 717 l 71 0 l 246 0 l 246 364 b 453 564 246 500 324 564 l 497 564 l 497 725 b 454 728 482 728 469 728 z "},"ř":{"ha":529,"x_min":0,"x_max":0,"o":"m 393 808 l 528 1008 l 378 1008 l 294 897 l 210 1008 l 61 1008 l 194 808 z m 240 589 l 240 717 l 71 717 l 71 0 l 246 0 l 246 364 b 453 564 246 500 324 564 l 497 564 l 497 725 b 454 728 482 728 469 728 b 240 589 343 728 275 669 z "},"ŗ":{"ha":529,"x_min":0,"x_max":0,"o":"m 454 728 b 240 589 343 728 275 669 l 240 717 l 71 717 l 71 0 l 246 0 l 246 364 b 453 564 246 500 324 564 l 497 564 l 497 725 b 454 728 482 728 469 728 z m 75 -231 l 153 -231 l 153 -250 b 100 -301 153 -282 135 -300 l 75 -301 l 75 -371 l 103 -369 b 244 -247 200 -367 244 -329 l 244 -93 l 75 -93 z "},"ś":{"ha":693,"x_min":0,"x_max":0,"o":"m 279 810 l 422 810 l 601 1010 l 400 1010 z m 353 -19 b 671 206 553 -19 671 61 b 422 424 671 329 594 393 l 332 438 b 213 525 254 451 213 472 b 338 608 213 576 253 608 b 489 490 428 608 485 582 l 654 490 b 338 733 649 638 558 733 b 40 517 146 733 40 651 b 275 300 40 394 121 326 l 357 286 b 497 192 465 268 497 243 b 356 106 497 138 457 106 b 196 228 251 106 206 138 l 25 228 b 353 -19 36 54 149 -19 z "},"š":{"ha":693,"x_min":0,"x_max":0,"o":"m 450 808 l 611 1008 l 451 1008 l 344 897 l 238 1008 l 78 1008 l 240 808 z m 422 424 l 332 438 b 213 525 254 451 213 472 b 338 608 213 576 253 608 b 489 490 428 608 485 582 l 654 490 b 338 733 649 638 558 733 b 40 517 146 733 40 651 b 275 300 40 394 121 326 l 357 286 b 497 192 465 268 497 243 b 356 106 497 138 457 106 b 196 228 251 106 206 138 l 25 228 b 353 -19 36 54 149 -19 b 671 206 553 -19 671 61 b 422 424 671 329 594 393 z "},"ş":{"ha":693,"x_min":0,"x_max":0,"o":"m 671 206 b 422 424 671 329 594 393 l 332 438 b 213 525 254 451 213 472 b 338 608 213 576 253 608 b 489 490 428 608 485 582 l 654 490 b 338 733 649 638 558 733 b 40 517 146 733 40 651 b 275 300 40 394 121 326 l 357 286 b 497 192 465 268 497 243 b 356 106 497 138 457 106 b 196 228 251 106 206 138 l 25 228 b 314 -18 35 65 135 -10 l 263 -83 l 263 -136 b 299 -135 279 -135 289 -135 b 378 -187 354 -135 378 -156 b 292 -246 378 -224 347 -246 b 213 -240 261 -246 242 -244 l 213 -314 b 304 -322 239 -318 278 -322 b 510 -189 451 -322 510 -265 b 372 -79 510 -128 460 -79 l 354 -79 l 408 -17 b 671 206 575 -3 671 75 z "},"ŝ":{"ha":693,"x_min":0,"x_max":0,"o":"m 344 919 l 451 810 l 611 810 l 449 1010 l 239 1010 l 78 810 l 238 810 z m 422 424 l 332 438 b 213 525 254 451 213 472 b 338 608 213 576 253 608 b 489 490 428 608 485 582 l 654 490 b 338 733 649 638 558 733 b 40 517 146 733 40 651 b 275 300 40 394 121 326 l 357 286 b 497 192 465 268 497 243 b 356 106 497 138 457 106 b 196 228 251 106 206 138 l 25 228 b 353 -19 36 54 149 -19 b 671 206 553 -19 671 61 b 422 424 671 329 594 393 z "},"ș":{"ha":693,"x_min":0,"x_max":0,"o":"m 422 424 l 332 438 b 213 525 254 451 213 472 b 338 608 213 576 253 608 b 489 490 428 608 485 582 l 654 490 b 338 733 649 638 558 733 b 40 517 146 733 40 651 b 275 300 40 394 121 326 l 357 286 b 497 192 465 268 497 243 b 356 106 497 138 457 106 b 196 228 251 106 206 138 l 25 228 b 353 -19 36 54 149 -19 b 671 206 553 -19 671 61 b 422 424 671 329 594 393 z m 271 -250 l 349 -250 l 349 -269 b 296 -321 349 -301 331 -319 l 271 -321 l 271 -390 l 299 -389 b 440 -267 396 -386 440 -349 l 440 -112 l 271 -112 z "},"ß":{"ha":799,"x_min":0,"x_max":0,"o":"m 586 546 b 699 751 661 592 699 664 b 388 1011 699 889 576 1011 b 71 701 185 1011 71 894 l 71 0 l 246 0 l 246 710 b 390 863 246 800 296 863 b 536 725 483 863 536 801 b 388 586 536 640 474 586 l 346 586 l 346 458 l 390 458 b 579 299 517 458 579 393 b 392 139 579 197 506 139 b 332 142 374 139 351 140 l 332 0 b 403 -4 357 -3 385 -4 b 758 301 618 -4 758 111 b 586 546 758 407 696 500 z "},"ŧ":{"ha":476,"x_min":0,"x_max":0,"o":"m 444 583 l 444 717 l 303 717 l 303 925 l 129 925 l 129 717 l 18 717 l 18 583 l 129 583 l 129 425 l 18 425 l 18 317 l 129 317 l 129 178 b 353 -6 129 46 201 -6 b 444 0 381 -6 413 -3 l 444 133 l 385 133 b 303 196 326 133 303 149 l 303 317 l 444 317 l 444 425 l 303 425 l 303 583 z "},"ť":{"ha":476,"x_min":0,"x_max":0,"o":"m 390 989 l 347 758 l 467 758 l 569 989 z m 303 925 l 129 925 l 129 717 l 18 717 l 18 583 l 129 583 l 129 178 b 353 -6 129 46 201 -6 b 444 0 381 -6 413 -3 l 444 133 l 385 133 b 303 196 326 133 303 149 l 303 583 l 444 583 l 444 717 l 303 717 z "},"ţ":{"ha":476,"x_min":0,"x_max":0,"o":"m 444 583 l 444 717 l 303 717 l 303 925 l 129 925 l 129 717 l 18 717 l 18 583 l 129 583 l 129 178 b 249 6 129 81 168 28 l 194 -64 l 194 -117 b 231 -115 211 -115 221 -115 b 310 -168 286 -115 310 -136 b 224 -226 310 -204 279 -226 b 144 -221 193 -226 174 -225 l 144 -294 b 236 -303 171 -299 210 -303 b 442 -169 383 -303 442 -246 b 304 -60 442 -108 392 -60 l 286 -60 l 333 -6 l 353 -6 b 444 0 381 -6 413 -3 l 444 133 l 385 133 b 303 196 326 133 303 149 l 303 583 z "},"ț":{"ha":476,"x_min":0,"x_max":0,"o":"m 444 583 l 444 717 l 303 717 l 303 925 l 129 925 l 129 717 l 18 717 l 18 583 l 129 583 l 129 178 b 353 -6 129 46 201 -6 b 444 0 381 -6 413 -3 l 444 133 l 385 133 b 303 196 326 133 303 149 l 303 583 z m 203 -231 l 281 -231 l 281 -250 b 228 -301 281 -282 263 -300 l 203 -301 l 203 -371 l 231 -369 b 372 -247 328 -367 372 -329 l 372 -93 l 203 -93 z "},"ú":{"ha":786,"x_min":0,"x_max":0,"o":"m 643 1010 l 442 1010 l 321 810 l 464 810 z m 540 717 l 540 315 b 381 135 540 188 457 135 b 246 271 290 135 246 179 l 246 717 l 71 717 l 71 242 b 321 -17 71 71 172 -17 b 546 104 424 -17 499 35 l 546 0 l 715 0 l 715 717 z "},"ŭ":{"ha":786,"x_min":0,"x_max":0,"o":"m 386 803 b 619 1010 513 803 601 881 l 488 1010 b 386 915 481 947 442 915 b 285 1010 329 915 292 947 l 153 1010 b 386 803 168 881 260 803 z m 540 717 l 540 315 b 381 135 540 188 457 135 b 246 271 290 135 246 179 l 246 717 l 71 717 l 71 242 b 321 -17 71 71 172 -17 b 546 104 424 -17 499 35 l 546 0 l 715 0 l 715 717 z "},"û":{"ha":786,"x_min":0,"x_max":0,"o":"m 386 919 l 493 810 l 653 810 l 490 1010 l 281 1010 l 119 810 l 279 810 z m 540 717 l 540 315 b 381 135 540 188 457 135 b 246 271 290 135 246 179 l 246 717 l 71 717 l 71 242 b 321 -17 71 71 172 -17 b 546 104 424 -17 499 35 l 546 0 l 715 0 l 715 717 z "},"ü":{"ha":786,"x_min":0,"x_max":0,"o":"m 336 974 l 164 974 l 164 810 l 336 810 z m 608 974 l 436 974 l 436 810 l 608 810 z m 540 717 l 540 315 b 381 135 540 188 457 135 b 246 271 290 135 246 179 l 246 717 l 71 717 l 71 242 b 321 -17 71 71 172 -17 b 546 104 424 -17 499 35 l 546 0 l 715 0 l 715 717 z "},"ù":{"ha":786,"x_min":0,"x_max":0,"o":"m 461 810 l 340 1010 l 139 1010 l 318 810 z m 540 717 l 540 315 b 381 135 540 188 457 135 b 246 271 290 135 246 179 l 246 717 l 71 717 l 71 242 b 321 -17 71 71 172 -17 b 546 104 424 -17 499 35 l 546 0 l 715 0 l 715 717 z "},"ű":{"ha":786,"x_min":0,"x_max":0,"o":"m 511 1010 l 311 1010 l 189 810 l 326 810 z m 604 810 l 789 1010 l 589 1010 l 467 810 z m 540 315 b 381 135 540 188 457 135 b 246 271 290 135 246 179 l 246 717 l 71 717 l 71 242 b 321 -17 71 71 172 -17 b 546 104 424 -17 499 35 l 546 0 l 715 0 l 715 717 l 540 717 z "},"ū":{"ha":786,"x_min":0,"x_max":0,"o":"m 607 932 l 165 932 l 165 810 l 607 810 z m 540 717 l 540 315 b 381 135 540 188 457 135 b 246 271 290 135 246 179 l 246 717 l 71 717 l 71 242 b 321 -17 71 71 172 -17 b 546 104 424 -17 499 35 l 546 0 l 715 0 l 715 717 z "},"ų":{"ha":786,"x_min":0,"x_max":0,"o":"m 715 0 l 715 717 l 540 717 l 540 315 b 381 135 540 188 457 135 b 246 271 290 135 246 179 l 246 717 l 71 717 l 71 242 b 321 -17 71 71 172 -17 b 546 104 424 -17 499 35 l 546 0 l 581 0 b 438 -156 483 -35 438 -100 b 617 -289 438 -240 513 -289 b 715 -275 657 -289 694 -282 l 715 -171 b 646 -182 694 -176 672 -182 b 576 -129 615 -182 576 -171 b 715 0 576 -96 606 -51 z "},"ů":{"ha":786,"x_min":0,"x_max":0,"o":"m 386 803 b 585 993 497 803 585 882 b 386 1182 585 1103 497 1182 b 188 993 275 1182 188 1103 b 386 803 188 882 275 803 z m 386 1076 b 471 993 433 1076 471 1040 b 386 908 471 944 433 908 b 301 993 339 908 301 944 b 386 1076 301 1040 339 1076 z m 540 717 l 540 315 b 381 135 540 188 457 135 b 246 271 290 135 246 179 l 246 717 l 71 717 l 71 242 b 321 -17 71 71 172 -17 b 546 104 424 -17 499 35 l 546 0 l 715 0 l 715 717 z "},"ũ":{"ha":786,"x_min":0,"x_max":0,"o":"m 292 868 b 374 843 315 868 344 856 b 497 810 413 826 456 810 b 636 993 582 810 636 865 l 519 993 b 481 935 518 950 506 935 b 396 960 453 935 425 947 b 275 993 360 976 321 993 b 136 810 190 993 136 938 l 253 810 b 292 868 254 851 267 868 z m 540 717 l 540 315 b 381 135 540 188 457 135 b 246 271 290 135 246 179 l 246 717 l 71 717 l 71 242 b 321 -17 71 71 172 -17 b 546 104 424 -17 499 35 l 546 0 l 715 0 l 715 717 z "},"ẃ":{"ha":1147,"x_min":0,"x_max":0,"o":"m 831 1010 l 629 1010 l 508 810 l 651 810 z m 956 717 l 875 449 b 804 200 850 367 826 282 b 736 450 783 283 761 367 l 657 717 l 490 717 l 411 450 b 343 200 386 367 364 283 b 272 449 321 282 297 367 l 192 717 l 4 717 l 240 0 l 424 0 l 513 294 b 572 508 533 365 553 438 b 633 294 592 438 613 365 l 724 0 l 907 0 l 1143 717 z "},"ŵ":{"ha":1147,"x_min":0,"x_max":0,"o":"m 574 919 l 681 810 l 840 810 l 678 1010 l 468 1010 l 307 810 l 467 810 z m 956 717 l 875 449 b 804 200 850 367 826 282 b 736 450 783 283 761 367 l 657 717 l 490 717 l 411 450 b 343 200 386 367 364 283 b 272 449 321 282 297 367 l 192 717 l 4 717 l 240 0 l 424 0 l 513 294 b 572 508 533 365 553 438 b 633 294 592 438 613 365 l 724 0 l 907 0 l 1143 717 z "},"ẅ":{"ha":1147,"x_min":0,"x_max":0,"o":"m 524 974 l 351 974 l 351 810 l 524 810 z m 796 974 l 624 974 l 624 810 l 796 810 z m 956 717 l 875 449 b 804 200 850 367 826 282 b 736 450 783 283 761 367 l 657 717 l 490 717 l 411 450 b 343 200 386 367 364 283 b 272 449 321 282 297 367 l 192 717 l 4 717 l 240 0 l 424 0 l 513 294 b 572 508 533 365 553 438 b 633 294 592 438 613 365 l 724 0 l 907 0 l 1143 717 z "},"ẁ":{"ha":1147,"x_min":0,"x_max":0,"o":"m 649 810 l 528 1010 l 326 1010 l 506 810 z m 956 717 l 875 449 b 804 200 850 367 826 282 b 736 450 783 283 761 367 l 657 717 l 490 717 l 411 450 b 343 200 386 367 364 283 b 272 449 321 282 297 367 l 192 717 l 4 717 l 240 0 l 424 0 l 513 294 b 572 508 533 365 553 438 b 633 294 592 438 613 365 l 724 0 l 907 0 l 1143 717 z "},"ý":{"ha":725,"x_min":0,"x_max":0,"o":"m 619 1010 l 418 1010 l 297 810 l 440 810 z m 539 717 l 481 536 b 365 138 442 410 403 279 b 251 538 329 278 290 413 l 193 717 l 4 717 l 213 128 b 246 -17 229 81 246 26 b 128 -132 246 -76 214 -132 l 61 -132 l 61 -269 b 138 -274 83 -272 104 -274 b 446 -58 311 -274 389 -218 l 722 717 z "},"ŷ":{"ha":725,"x_min":0,"x_max":0,"o":"m 363 919 l 469 810 l 629 810 l 467 1010 l 257 1010 l 96 810 l 256 810 z m 539 717 l 481 536 b 365 138 442 410 403 279 b 251 538 329 278 290 413 l 193 717 l 4 717 l 213 128 b 246 -17 229 81 246 26 b 128 -132 246 -76 214 -132 l 61 -132 l 61 -269 b 138 -274 83 -272 104 -274 b 446 -58 311 -274 389 -218 l 722 717 z "},"ÿ":{"ha":725,"x_min":0,"x_max":0,"o":"m 313 974 l 140 974 l 140 810 l 313 810 z m 585 974 l 413 974 l 413 810 l 585 810 z m 539 717 l 481 536 b 365 138 442 410 403 279 b 251 538 329 278 290 413 l 193 717 l 4 717 l 213 128 b 246 -17 229 81 246 26 b 128 -132 246 -76 214 -132 l 61 -132 l 61 -269 b 138 -274 83 -272 104 -274 b 446 -58 311 -274 389 -218 l 722 717 z "},"ỳ":{"ha":725,"x_min":0,"x_max":0,"o":"m 438 810 l 317 1010 l 115 1010 l 294 810 z m 539 717 l 481 536 b 365 138 442 410 403 279 b 251 538 329 278 290 413 l 193 717 l 4 717 l 213 128 b 246 -17 229 81 246 26 b 128 -132 246 -76 214 -132 l 61 -132 l 61 -269 b 138 -274 83 -272 104 -274 b 446 -58 311 -274 389 -218 l 722 717 z "},"ź":{"ha":693,"x_min":0,"x_max":0,"o":"m 604 1010 l 403 1010 l 282 810 l 425 810 z m 408 136 b 261 135 360 136 311 136 b 351 244 292 171 322 208 l 635 601 l 635 717 l 50 717 l 50 581 l 269 581 b 417 582 318 581 367 581 b 326 472 386 546 356 508 l 43 115 l 43 0 l 651 0 l 651 136 z "},"ž":{"ha":693,"x_min":0,"x_max":0,"o":"m 453 808 l 614 1008 l 454 1008 l 347 897 l 240 1008 l 81 1008 l 243 808 z m 408 136 b 261 135 360 136 311 136 b 351 244 292 171 322 208 l 635 601 l 635 717 l 50 717 l 50 581 l 269 581 b 417 582 318 581 367 581 b 326 472 386 546 356 508 l 43 115 l 43 0 l 651 0 l 651 136 z "},"ż":{"ha":693,"x_min":0,"x_max":0,"o":"m 433 974 l 261 974 l 261 810 l 433 810 z m 408 136 b 261 135 360 136 311 136 b 351 244 292 171 322 208 l 635 601 l 635 717 l 50 717 l 50 581 l 269 581 b 417 582 318 581 367 581 b 326 472 386 546 356 508 l 43 115 l 43 0 l 651 0 l 651 136 z "},"ﬁ":{"ha":794,"x_min":0,"x_max":0,"o":"m 129 771 l 129 717 l 18 717 l 18 583 l 129 583 l 129 0 l 303 0 l 303 583 l 450 583 l 450 717 l 303 717 l 303 768 b 393 854 303 824 331 854 l 454 854 l 454 989 b 364 993 429 992 392 993 b 129 771 192 993 129 897 z m 721 974 l 549 974 l 549 810 l 721 810 z m 547 717 l 547 0 l 722 0 l 722 717 z "},"ﬂ":{"ha":785,"x_min":0,"x_max":0,"o":"m 129 771 l 129 717 l 18 717 l 18 583 l 129 583 l 129 0 l 303 0 l 303 583 l 450 583 l 450 717 l 303 717 l 303 768 b 393 854 303 824 331 854 l 454 854 l 454 989 b 364 993 429 992 392 993 b 129 771 192 993 129 897 z m 538 989 l 538 0 l 713 0 l 713 989 z "},"ª":{"ha":654,"x_min":0,"x_max":0,"o":"m 613 364 b 592 492 597 401 592 449 l 592 814 b 328 1001 592 926 515 1001 b 46 786 131 1001 54 919 l 203 786 b 328 885 208 861 243 885 b 436 810 413 885 436 856 b 350 742 436 765 413 747 l 258 732 b 18 535 86 715 18 650 b 243 350 18 417 110 350 b 443 442 333 350 403 382 b 457 364 444 414 449 388 z m 282 464 b 181 546 215 464 181 497 b 289 633 181 601 219 626 l 368 642 b 436 664 397 644 419 650 l 436 613 b 282 464 436 507 361 464 z "},"º":{"ha":713,"x_min":0,"x_max":0,"o":"m 356 350 b 675 675 547 350 675 478 b 356 1001 675 872 547 1001 b 38 675 165 1001 38 874 b 356 350 38 478 165 350 z m 356 479 b 200 675 260 479 200 549 b 356 872 200 804 261 872 b 513 675 451 872 513 804 b 356 479 513 549 451 479 z "},"ʰ":{"ha":650,"x_min":0,"x_max":0,"o":"m 390 1001 b 200 900 303 1001 239 957 l 200 1224 l 42 1224 l 42 364 l 200 364 l 200 714 b 335 865 200 819 269 865 b 449 749 414 865 449 822 l 449 364 l 608 364 l 608 772 b 390 1001 608 919 525 1001 z "},"ⁿ":{"ha":650,"x_min":0,"x_max":0,"o":"m 390 1001 b 196 893 299 1001 235 954 l 196 989 l 42 989 l 42 364 l 200 364 l 200 714 b 335 865 200 819 269 865 b 449 749 414 865 449 822 l 449 364 l 608 364 l 608 772 b 390 1001 608 919 525 1001 z "},"ʳ":{"ha":447,"x_min":0,"x_max":0,"o":"m 381 999 b 196 879 286 999 226 949 l 196 989 l 42 989 l 42 364 l 200 364 l 200 675 b 378 850 200 797 271 850 l 418 850 l 418 997 b 381 999 408 999 394 999 z "},"ˢ":{"ha":619,"x_min":0,"x_max":0,"o":"m 314 347 b 594 543 489 347 594 418 b 376 733 594 661 515 713 l 296 744 b 194 819 229 754 194 774 b 304 890 194 863 225 890 b 429 790 376 890 425 868 l 579 790 b 306 1001 575 915 497 1001 b 38 811 129 1001 38 931 b 236 622 38 706 103 643 l 317 610 b 435 531 407 594 435 575 b 317 460 435 485 403 460 b 182 561 222 460 190 486 l 26 561 b 314 347 36 413 125 347 z "},"Δ":{"ha":940,"x_min":0,"x_max":0,"o":"m 576 989 l 357 989 l 35 160 l 35 0 l 906 0 l 906 160 z m 465 821 b 588 485 506 706 553 575 l 708 165 l 226 165 l 346 485 b 465 821 381 574 426 706 z "},"Ω":{"ha":1081,"x_min":0,"x_max":0,"o":"m 39 0 l 478 0 l 478 146 b 240 526 319 224 240 364 b 542 846 240 744 365 846 b 839 526 718 846 839 744 b 606 146 839 364 763 224 l 606 0 l 1042 0 l 1042 164 l 826 164 l 826 167 b 1029 554 960 258 1029 394 b 539 1010 1029 833 839 1010 b 50 554 242 1010 50 833 b 254 167 50 394 121 258 l 254 164 l 39 164 z "},"μ":{"ha":786,"x_min":0,"x_max":0,"o":"m 540 717 l 540 315 b 381 135 540 188 458 135 b 246 271 292 135 246 179 l 246 717 l 71 717 l 71 -272 l 243 -272 l 243 3 b 326 -17 268 -10 296 -17 b 546 104 422 -17 497 31 l 546 0 l 715 0 l 715 717 z "},"π":{"ha":850,"x_min":0,"x_max":0,"o":"m 818 583 l 818 717 l 18 717 l 18 583 l 129 583 l 129 0 l 303 0 l 303 583 l 533 583 l 533 169 b 713 -6 533 43 582 -6 b 803 0 740 -6 774 -3 l 803 131 l 756 131 b 708 183 715 131 708 151 l 708 583 z "},"ᵈ":{"ha":707,"x_min":0,"x_max":0,"o":"m 506 1224 l 506 906 b 315 1001 465 965 401 1001 b 38 675 143 1001 38 874 b 315 350 38 478 143 350 b 511 454 406 350 471 389 l 511 364 l 665 364 l 665 1224 z m 354 479 b 200 671 260 479 200 542 b 354 872 200 800 260 872 b 510 675 450 872 510 804 b 354 479 510 547 450 479 z "},"ₙ":{"ha":650,"x_min":0,"x_max":0,"o":"m 390 365 b 196 257 299 365 235 318 l 196 353 l 42 353 l 42 -272 l 200 -272 l 200 78 b 335 229 200 183 269 229 b 449 113 414 229 449 186 l 449 -272 l 608 -272 l 608 136 b 390 365 608 283 525 365 z "},"ᵗ":{"ha":431,"x_min":0,"x_max":0,"o":"m 404 868 l 404 989 l 282 989 l 282 1171 l 122 1171 l 122 989 l 26 989 l 26 868 l 122 868 l 122 525 b 322 361 122 421 171 361 b 404 367 344 361 375 363 l 404 488 l 351 488 b 282 543 297 488 282 504 l 282 868 z "},"⓿":{"ha":1328,"x_min":0,"x_max":0,"o":"m 664 -149 b 1328 494 1036 -149 1328 136 b 664 1138 1328 853 1036 1138 b 0 494 292 1138 0 853 b 664 -149 0 136 292 -149 z m 664 169 b 401 494 494 169 401 282 b 664 821 401 706 493 821 b 926 494 835 821 926 706 b 664 169 926 283 833 169 z m 664 285 b 783 494 744 285 783 351 b 664 706 783 639 746 706 b 544 494 583 706 544 639 b 664 285 544 351 583 285 z "},"❶":{"ha":1328,"x_min":0,"x_max":0,"o":"m 664 -149 b 1328 494 1036 -149 1328 136 b 664 1138 1328 853 1036 1138 b 0 494 292 1138 0 853 b 664 -149 0 136 292 -149 z m 615 182 l 615 604 l 471 604 l 471 701 b 643 808 547 701 610 717 l 758 808 l 758 182 z "},"❷":{"ha":1328,"x_min":0,"x_max":0,"o":"m 664 -149 b 1328 494 1036 -149 1328 136 b 664 1138 1328 853 1036 1138 b 0 494 292 1138 0 853 b 664 -149 0 136 292 -149 z m 424 204 l 426 256 b 619 521 431 358 471 457 l 665 540 b 765 647 732 568 765 601 b 669 728 765 700 731 728 b 568 626 607 728 569 692 l 433 626 b 672 843 444 756 517 843 b 901 656 821 843 901 760 b 722 439 901 553 843 493 l 679 421 b 582 319 622 396 589 367 l 904 319 l 904 204 z "},"❸":{"ha":1328,"x_min":0,"x_max":0,"o":"m 664 -149 b 1328 494 1036 -149 1328 136 b 664 1138 1328 853 1036 1138 b 0 494 292 1138 0 853 b 664 -149 0 136 292 -149 z m 669 169 b 413 396 506 169 415 249 l 544 396 b 665 281 546 317 585 281 b 775 369 732 281 775 315 b 661 458 775 429 736 458 l 618 458 l 618 557 l 663 557 b 765 638 732 557 765 583 b 668 713 765 685 729 713 b 564 628 603 713 571 686 l 432 628 b 668 821 439 754 522 821 b 897 650 810 821 897 756 b 806 517 897 594 863 542 b 914 365 874 493 914 436 b 669 169 914 247 817 169 z "},"❹":{"ha":1328,"x_min":0,"x_max":0,"o":"m 664 -149 b 1328 494 1036 -149 1328 136 b 664 1138 1328 853 1036 1138 b 0 494 292 1138 0 853 b 664 -149 0 136 292 -149 z m 674 190 l 674 329 l 376 329 l 376 465 l 669 815 l 813 815 l 813 442 l 896 442 l 896 329 l 813 329 l 813 190 z m 482 442 l 679 442 l 679 674 z "},"❺":{"ha":1328,"x_min":0,"x_max":0,"o":"m 664 -149 b 1328 494 1036 -149 1328 136 b 664 1138 1328 853 1036 1138 b 0 494 292 1138 0 853 b 664 -149 0 136 292 -149 z m 665 164 b 422 351 531 164 436 238 l 554 351 b 665 271 567 301 608 271 b 778 382 732 271 778 317 b 665 496 778 449 732 496 b 563 438 618 496 581 474 l 432 438 l 494 801 l 879 801 l 879 686 l 600 686 l 576 558 b 694 593 606 581 646 593 b 907 382 833 593 907 499 b 665 164 907 249 804 164 z "},"❻":{"ha":1328,"x_min":0,"x_max":0,"o":"m 664 -149 b 1328 494 1036 -149 1328 136 b 664 1138 1328 853 1036 1138 b 0 494 292 1138 0 853 b 664 -149 0 136 292 -149 z m 664 169 b 510 214 606 169 550 186 b 408 485 443 263 408 356 b 668 821 408 704 499 821 b 897 650 793 821 878 758 l 767 650 b 667 717 753 693 718 717 b 536 544 585 717 544 667 l 536 538 b 688 600 571 576 625 600 b 906 389 825 600 906 504 b 664 169 906 257 808 169 z m 664 276 b 776 385 731 276 776 322 b 664 494 776 449 731 494 b 554 385 599 494 554 449 b 664 276 554 321 599 276 z "},"❼":{"ha":1328,"x_min":0,"x_max":0,"o":"m 664 -149 b 1328 494 1036 -149 1328 136 b 664 1138 1328 853 1036 1138 b 0 494 292 1138 0 853 b 664 -149 0 136 292 -149 z m 544 167 b 758 676 549 375 640 560 l 447 676 l 447 790 l 889 790 l 889 676 b 692 167 760 547 693 410 z "},"❽":{"ha":1328,"x_min":0,"x_max":0,"o":"m 664 -149 b 1328 494 1036 -149 1328 136 b 664 1138 1328 853 1036 1138 b 0 494 292 1138 0 853 b 664 -149 0 136 292 -149 z m 664 169 b 411 358 510 169 411 244 b 521 513 411 432 449 483 b 440 647 469 542 440 590 b 664 821 440 756 526 821 b 888 647 803 821 888 756 b 808 513 888 590 860 543 b 917 358 881 483 917 432 b 664 169 917 244 818 169 z m 664 553 b 765 639 726 553 765 586 b 664 722 765 690 726 722 b 563 639 603 722 563 690 b 664 553 563 586 601 553 z m 664 275 b 782 369 739 275 782 310 b 664 467 782 431 739 467 b 546 369 590 467 546 431 b 664 275 546 310 589 275 z "},"❾":{"ha":1328,"x_min":0,"x_max":0,"o":"m 664 -149 b 1328 494 1036 -149 1328 136 b 664 1138 1328 853 1036 1138 b 0 494 292 1138 0 853 b 664 -149 0 136 292 -149 z m 665 167 b 433 343 540 167 451 229 l 568 343 b 665 275 582 296 618 275 b 793 439 743 275 783 322 b 794 449 794 444 794 447 l 788 442 b 646 389 753 406 703 389 b 424 601 507 389 424 486 b 668 824 424 736 525 824 b 822 778 728 824 783 807 b 926 506 893 726 926 631 b 665 167 926 279 832 167 z m 668 497 b 776 606 732 497 776 543 b 668 711 776 667 733 711 b 560 606 603 711 560 667 b 668 497 560 543 603 497 z "},"⓪":{"ha":1328,"x_min":0,"x_max":0,"o":"m 664 -149 b 1328 494 1038 -149 1328 136 b 664 1138 1328 853 1038 1138 b 0 494 290 1138 0 853 b 664 -149 0 136 290 -149 z m 664 -7 b 153 494 376 -7 153 211 b 664 996 153 778 376 996 b 1176 494 953 996 1176 778 b 664 -7 1176 211 953 -7 z m 664 167 b 931 494 842 167 931 289 b 664 825 931 701 842 825 b 397 494 486 825 397 701 b 664 167 397 289 486 167 z m 664 288 b 549 494 590 288 549 346 b 664 703 549 644 590 703 b 779 494 739 703 779 643 b 664 288 779 347 739 288 z "},"①":{"ha":1328,"x_min":0,"x_max":0,"o":"m 664 1138 b 0 494 290 1138 0 853 b 664 -149 0 136 290 -149 b 1328 494 1038 -149 1328 136 b 664 1138 1328 853 1038 1138 z m 664 -7 b 153 494 376 -7 153 211 b 664 996 153 778 376 996 b 1176 494 953 996 1176 778 b 664 -7 1176 211 953 -7 z m 760 811 l 642 811 b 469 704 610 718 544 707 l 469 601 b 615 613 521 601 572 603 l 615 179 l 760 179 z "},"②":{"ha":1328,"x_min":0,"x_max":0,"o":"m 664 1138 b 0 494 290 1138 0 853 b 664 -149 0 136 290 -149 b 1328 494 1038 -149 1328 136 b 664 1138 1328 853 1038 1138 z m 664 -7 b 153 494 376 -7 153 211 b 664 996 153 778 376 996 b 1176 494 953 996 1176 778 b 664 -7 1176 211 953 -7 z m 676 422 l 724 443 b 904 663 844 499 904 558 b 671 854 904 769 822 854 b 431 631 510 854 438 760 l 571 631 b 668 732 572 699 610 732 b 760 654 729 732 760 704 b 663 551 760 611 731 581 l 617 532 b 422 264 469 467 426 368 l 419 208 l 907 208 l 907 331 l 585 331 b 676 422 594 374 622 397 z "},"③":{"ha":1328,"x_min":0,"x_max":0,"o":"m 664 1138 b 0 494 290 1138 0 853 b 664 -149 0 136 290 -149 b 1328 494 1038 -149 1328 136 b 664 1138 1328 853 1038 1138 z m 664 -7 b 153 494 376 -7 153 211 b 664 996 153 778 376 996 b 1176 494 953 996 1176 778 b 664 -7 1176 211 953 -7 z m 817 517 b 901 650 867 544 901 593 b 668 825 901 757 814 825 b 428 624 514 825 433 751 l 568 624 b 668 708 572 686 608 708 b 763 638 726 708 763 682 b 663 561 763 582 724 561 l 614 561 l 614 454 l 661 454 b 771 371 728 454 771 432 b 665 286 771 317 731 286 b 549 400 592 286 550 315 l 408 400 b 669 167 408 254 496 167 b 917 365 826 167 917 250 b 817 517 917 436 879 492 z "},"④":{"ha":1328,"x_min":0,"x_max":0,"o":"m 664 1138 b 0 494 290 1138 0 853 b 664 -149 0 136 290 -149 b 1328 494 1038 -149 1328 136 b 664 1138 1328 853 1038 1138 z m 664 -7 b 153 494 376 -7 153 211 b 664 996 153 778 376 996 b 1176 494 953 996 1176 778 b 664 -7 1176 211 953 -7 z m 817 819 l 668 819 l 372 467 l 372 326 l 671 326 l 671 188 l 817 188 l 817 326 l 900 326 l 900 446 l 817 446 z m 675 664 l 675 446 l 490 446 z "},"⑤":{"ha":1328,"x_min":0,"x_max":0,"o":"m 664 1138 b 0 494 290 1138 0 853 b 664 -149 0 136 290 -149 b 1328 494 1038 -149 1328 136 b 664 1138 1328 853 1038 1138 z m 664 -7 b 153 494 376 -7 153 211 b 664 996 153 778 376 996 b 1176 494 953 996 1176 778 b 664 -7 1176 211 953 -7 z m 692 597 b 581 567 647 597 610 586 l 601 683 l 881 683 l 881 806 l 489 806 l 426 435 l 563 435 b 664 492 576 464 610 492 b 772 382 729 492 772 446 b 664 275 772 319 729 275 b 556 356 606 275 565 307 l 418 356 b 664 161 429 231 535 161 b 910 382 801 161 910 243 b 692 597 910 497 836 597 z "},"⑥":{"ha":1328,"x_min":0,"x_max":0,"o":"m 664 1138 b 0 494 290 1138 0 853 b 664 -149 0 136 290 -149 b 1328 494 1038 -149 1328 136 b 664 1138 1328 853 1038 1138 z m 664 -7 b 153 494 376 -7 153 211 b 664 996 153 778 376 996 b 1176 494 953 996 1176 778 b 664 -7 1176 211 953 -7 z m 688 604 b 540 546 628 604 576 583 b 667 714 549 668 589 714 b 763 646 713 714 749 693 l 901 646 b 667 825 883 760 796 825 b 404 485 496 825 404 706 b 508 213 404 364 436 265 b 664 167 549 183 606 167 b 910 389 804 167 910 250 b 688 604 910 503 828 604 z m 664 282 b 557 385 599 282 557 326 b 664 490 557 444 599 490 b 772 385 731 490 772 444 b 664 282 772 326 731 282 z "},"⑦":{"ha":1328,"x_min":0,"x_max":0,"o":"m 664 1138 b 0 494 290 1138 0 853 b 664 -149 0 136 290 -149 b 1328 494 1038 -149 1328 136 b 664 1138 1328 853 1038 1138 z m 664 -7 b 153 494 376 -7 153 211 b 664 996 153 778 376 996 b 1176 494 953 996 1176 778 b 664 -7 1176 211 953 -7 z m 446 672 l 753 672 b 543 163 635 554 546 368 l 699 163 b 896 674 700 408 765 546 l 896 794 l 446 794 z "},"⑧":{"ha":1328,"x_min":0,"x_max":0,"o":"m 664 1138 b 0 494 290 1138 0 853 b 664 -149 0 136 290 -149 b 1328 494 1038 -149 1328 136 b 664 1138 1328 853 1038 1138 z m 664 -7 b 153 494 376 -7 153 211 b 664 996 153 778 376 996 b 1176 494 953 996 1176 778 b 664 -7 1176 211 953 -7 z m 817 513 b 890 647 865 544 890 592 b 664 825 890 754 808 825 b 436 647 518 825 436 754 b 511 513 436 592 461 544 b 408 358 440 483 408 428 b 664 167 408 247 501 167 b 919 358 826 167 919 247 b 817 513 919 428 888 483 z m 664 718 b 761 639 722 718 761 689 b 664 557 761 589 725 557 b 567 639 604 557 567 589 b 664 718 567 689 606 718 z m 664 279 b 550 371 589 279 550 315 b 664 464 550 428 590 464 b 778 371 738 464 778 428 b 664 279 778 315 739 279 z "},"⑨":{"ha":1328,"x_min":0,"x_max":0,"o":"m 664 1138 b 0 494 290 1138 0 853 b 664 -149 0 136 290 -149 b 1328 494 1038 -149 1328 136 b 664 1138 1328 853 1038 1138 z m 664 -7 b 153 494 376 -7 153 211 b 664 996 153 778 376 996 b 1176 494 953 996 1176 778 b 664 -7 1176 211 953 -7 z m 824 776 b 668 825 783 807 726 825 b 422 601 528 825 422 740 b 646 386 422 488 504 386 b 792 444 706 386 757 407 b 669 278 783 324 744 278 b 569 344 621 278 583 299 l 432 344 b 669 167 449 231 538 167 b 928 506 836 167 928 285 b 824 776 928 628 896 724 z m 668 500 b 561 606 603 500 561 546 b 668 710 561 664 603 710 b 775 606 733 710 775 664 b 668 500 775 546 733 500 z "},"₀":{"ha":539,"x_min":0,"x_max":0,"o":"m 269 -285 b 511 14 432 -285 511 -174 b 269 314 511 203 432 314 b 28 14 107 314 28 203 b 269 -285 28 -174 107 -285 z m 269 -174 b 165 14 203 -174 165 -121 b 269 203 165 150 203 203 b 374 14 338 203 374 150 b 269 -174 374 -121 338 -174 z "},"₁":{"ha":321,"x_min":0,"x_max":0,"o":"m 286 301 l 178 301 b 21 204 149 217 90 204 l 21 111 l 153 111 l 153 -272 l 286 -272 z "},"₂":{"ha":482,"x_min":0,"x_max":0,"o":"m 168 -161 b 254 -76 176 -121 206 -99 l 293 -58 b 458 140 404 -10 458 44 b 246 314 458 236 383 314 b 26 111 99 314 33 228 l 156 111 b 244 203 156 172 190 203 b 328 133 299 203 328 178 b 239 39 328 93 300 65 l 197 21 b 19 -222 63 -37 25 -128 l 17 -272 l 461 -272 l 461 -161 z "},"₃":{"ha":500,"x_min":0,"x_max":0,"o":"m 388 33 b 465 156 433 58 465 104 b 254 314 465 253 386 314 b 35 132 113 314 40 247 l 163 132 b 253 208 167 188 199 208 b 338 143 306 208 338 185 b 249 74 338 93 304 74 l 204 74 l 204 -22 l 246 -22 b 346 -99 307 -22 346 -43 b 251 -176 346 -147 310 -176 b 144 -72 183 -176 146 -149 l 17 -72 b 254 -285 17 -204 96 -285 b 479 -104 397 -285 479 -208 b 388 33 479 -39 444 13 z "},"₄":{"ha":529,"x_min":0,"x_max":0,"o":"m 508 -37 l 432 -37 l 432 301 l 297 301 l 26 -19 l 26 -146 l 299 -146 l 299 -272 l 432 -272 l 432 -146 l 508 -146 z m 303 163 l 303 -37 l 135 -37 z "},"₅":{"ha":494,"x_min":0,"x_max":0,"o":"m 275 114 b 172 85 233 114 199 103 l 192 190 l 446 190 l 446 301 l 89 301 l 32 -36 l 157 -36 b 247 17 169 -7 200 17 b 347 -82 308 17 347 -25 b 247 -181 347 -139 308 -181 b 150 -107 196 -181 160 -150 l 24 -107 b 247 -285 35 -221 131 -285 b 472 -82 374 -285 472 -208 b 275 114 472 22 406 114 z "},"₆":{"ha":510,"x_min":0,"x_max":0,"o":"m 286 114 b 151 61 232 114 185 94 b 268 213 161 171 197 213 b 356 153 310 213 342 194 l 481 153 b 268 314 464 256 385 314 b 29 6 113 314 29 206 b 124 -243 29 -106 58 -194 b 265 -285 161 -269 213 -285 b 489 -82 392 -285 489 -208 b 286 114 489 21 414 114 z m 265 -181 b 168 -86 206 -181 168 -139 b 265 11 168 -32 206 11 b 363 -86 325 11 363 -32 b 265 -181 363 -139 325 -181 z "},"₇":{"ha":451,"x_min":0,"x_max":0,"o":"m 21 301 l 21 190 l 299 190 b 110 -272 192 82 111 -85 l 251 -272 b 431 193 251 -50 311 76 l 431 301 z "},"₈":{"ha":515,"x_min":0,"x_max":0,"o":"m 397 31 b 464 153 440 60 464 103 b 257 314 464 250 389 314 b 50 153 125 314 50 250 b 118 31 50 103 74 58 b 25 -110 54 3 25 -47 b 257 -285 25 -211 111 -285 b 490 -110 406 -285 490 -211 b 397 31 490 -47 461 3 z m 257 218 b 346 144 311 218 346 190 b 257 71 346 100 313 71 b 169 144 203 71 169 100 b 257 218 169 190 204 218 z m 257 -182 b 154 -99 189 -182 154 -149 b 257 -15 154 -47 192 -15 b 361 -99 324 -15 361 -47 b 257 -182 361 -149 326 -182 z "},"₉":{"ha":510,"x_min":0,"x_max":0,"o":"m 386 271 b 244 314 349 297 299 314 b 22 111 118 314 22 238 b 224 -85 22 8 96 -85 b 358 -32 278 -85 325 -65 b 246 -183 350 -142 314 -183 b 156 -124 201 -183 168 -165 l 29 -124 b 246 -285 46 -226 126 -285 b 482 24 397 -285 482 -176 b 386 271 482 135 453 222 z m 244 18 b 147 115 185 18 147 61 b 244 210 147 168 185 210 b 342 115 304 210 342 168 b 244 18 342 61 304 18 z "},"⁰":{"ha":539,"x_min":0,"x_max":0,"o":"m 269 721 b 511 1019 432 721 511 832 b 269 1319 511 1208 432 1319 b 28 1019 107 1319 28 1208 b 269 721 28 832 107 721 z m 269 832 b 165 1019 203 832 165 885 b 269 1208 165 1156 203 1208 b 374 1019 338 1208 374 1156 b 269 832 374 885 338 832 z "},"¹":{"ha":321,"x_min":0,"x_max":0,"o":"m 286 1307 l 178 1307 b 21 1210 149 1222 90 1210 l 21 1117 l 153 1117 l 153 733 l 286 733 z "},"²":{"ha":482,"x_min":0,"x_max":0,"o":"m 168 844 b 254 929 176 885 206 907 l 293 947 b 458 1146 404 996 458 1050 b 246 1319 458 1242 383 1319 b 26 1117 99 1319 33 1233 l 156 1117 b 244 1208 156 1178 190 1208 b 328 1139 299 1208 328 1183 b 239 1044 328 1099 300 1071 l 197 1026 b 19 783 63 968 25 878 l 17 733 l 461 733 l 461 844 z "},"³":{"ha":500,"x_min":0,"x_max":0,"o":"m 388 1039 b 465 1161 433 1064 465 1110 b 254 1319 465 1258 386 1319 b 35 1138 113 1319 40 1253 l 163 1138 b 253 1214 167 1193 199 1214 b 338 1149 306 1214 338 1190 b 249 1079 338 1099 304 1079 l 204 1079 l 204 983 l 246 983 b 346 907 307 983 346 963 b 251 829 346 858 310 829 b 144 933 183 829 146 857 l 17 933 b 254 721 17 801 96 721 b 479 901 397 721 479 797 b 388 1039 479 967 444 1018 z "},"⁴":{"ha":529,"x_min":0,"x_max":0,"o":"m 508 968 l 432 968 l 432 1307 l 297 1307 l 26 986 l 26 860 l 299 860 l 299 733 l 432 733 l 432 860 l 508 860 z m 303 1168 l 303 968 l 135 968 z "},"⁵":{"ha":494,"x_min":0,"x_max":0,"o":"m 275 1119 b 172 1090 233 1119 199 1108 l 192 1196 l 446 1196 l 446 1307 l 89 1307 l 32 969 l 157 969 b 247 1022 169 999 200 1022 b 347 924 308 1022 347 981 b 247 825 347 867 308 825 b 150 899 196 825 160 856 l 24 899 b 247 721 35 785 131 721 b 472 924 374 721 472 797 b 275 1119 472 1028 406 1119 z "},"⁶":{"ha":510,"x_min":0,"x_max":0,"o":"m 286 1119 b 151 1067 232 1119 185 1100 b 268 1218 161 1176 197 1218 b 356 1158 310 1218 342 1200 l 481 1158 b 268 1319 464 1261 385 1319 b 29 1011 113 1319 29 1211 b 124 763 29 900 58 811 b 265 721 161 736 213 721 b 489 924 392 721 489 797 b 286 1119 489 1026 414 1119 z m 265 825 b 168 919 206 825 168 867 b 265 1017 168 974 206 1017 b 363 919 325 1017 363 974 b 265 825 363 867 325 825 z "},"⁷":{"ha":451,"x_min":0,"x_max":0,"o":"m 21 1307 l 21 1196 l 299 1196 b 110 733 192 1088 111 921 l 251 733 b 431 1199 251 956 311 1082 l 431 1307 z "},"⁸":{"ha":515,"x_min":0,"x_max":0,"o":"m 397 1036 b 464 1158 440 1065 464 1108 b 257 1319 464 1256 389 1319 b 50 1158 125 1319 50 1256 b 118 1036 50 1108 74 1064 b 25 896 54 1008 25 958 b 257 721 25 794 111 721 b 490 896 406 721 490 794 b 397 1036 490 958 461 1008 z m 257 1224 b 346 1150 311 1224 346 1196 b 257 1076 346 1106 313 1076 b 169 1150 203 1076 169 1106 b 257 1224 169 1196 204 1224 z m 257 824 b 154 907 189 824 154 857 b 257 990 154 958 192 990 b 361 907 324 990 361 958 b 257 824 361 857 326 824 z "},"⁹":{"ha":510,"x_min":0,"x_max":0,"o":"m 386 1276 b 244 1319 349 1303 299 1319 b 22 1117 118 1319 22 1243 b 224 921 22 1014 96 921 b 358 974 278 921 325 940 b 246 822 350 864 314 822 b 156 882 201 822 168 840 l 29 882 b 246 721 46 779 126 721 b 482 1029 397 721 482 829 b 386 1276 482 1140 453 1228 z m 244 1024 b 147 1121 185 1024 147 1067 b 244 1215 147 1174 185 1215 b 342 1121 304 1215 342 1174 b 244 1024 342 1067 304 1024 z "},"⁄":{"ha":432,"x_min":0,"x_max":0,"o":"m -110 0 l 14 0 l 542 989 l 418 989 z "},"½":{"ha":1065,"x_min":0,"x_max":0,"o":"m 286 415 l 286 989 l 178 989 b 21 892 149 904 90 892 l 21 799 l 153 799 l 153 415 z m 685 989 l 157 0 l 281 0 l 808 989 z m 751 111 b 838 196 760 151 789 174 l 876 214 b 1042 413 988 263 1042 317 b 829 586 1042 508 967 586 b 610 383 682 586 617 500 l 738 383 b 828 475 739 444 774 475 b 911 406 882 475 911 450 b 822 311 911 365 883 338 l 779 293 b 603 50 646 235 607 144 l 600 0 l 1044 0 l 1044 111 z "},"⅓":{"ha":1078,"x_min":0,"x_max":0,"o":"m 153 415 l 286 415 l 286 989 l 178 989 b 21 892 149 904 90 892 l 21 799 l 153 799 z m 676 989 l 149 0 l 272 0 l 800 989 z m 965 306 b 1043 428 1011 331 1043 376 b 832 586 1043 525 964 586 b 611 404 690 586 618 519 l 740 404 b 831 481 744 460 776 481 b 915 415 883 481 915 457 b 826 346 915 365 881 346 l 782 346 l 782 250 l 824 250 b 924 174 885 250 924 229 b 829 96 924 125 888 96 b 722 200 761 96 724 124 l 594 200 b 831 -12 594 68 674 -12 b 1057 168 974 -12 1057 64 b 965 306 1057 233 1022 283 z "},"⅔":{"ha":1272,"x_min":0,"x_max":0,"o":"m 461 526 l 168 526 b 254 611 176 567 206 589 l 293 629 b 458 828 404 678 458 732 b 246 1001 458 924 383 1001 b 26 799 99 1001 33 915 l 156 799 b 244 890 156 860 190 890 b 328 821 299 890 328 865 b 239 726 328 781 300 753 l 197 708 b 19 465 63 650 25 560 l 17 415 l 461 415 z m 871 989 l 343 0 l 468 0 l 996 989 z m 1160 306 b 1238 428 1206 331 1238 376 b 1026 586 1238 525 1158 586 b 807 404 886 586 813 519 l 935 404 b 1026 481 939 460 972 481 b 1111 415 1078 481 1111 457 b 1021 346 1111 365 1076 346 l 978 346 l 978 250 l 1019 250 b 1118 174 1081 250 1118 229 b 1024 96 1118 125 1082 96 b 918 200 957 96 918 124 l 789 200 b 1026 -12 790 68 869 -12 b 1253 168 1169 -12 1253 64 b 1160 306 1253 233 1217 283 z "},"¼":{"ha":1008,"x_min":0,"x_max":0,"o":"m 153 415 l 286 415 l 286 989 l 178 989 b 21 892 149 904 90 892 l 21 799 l 153 799 z m 676 989 l 149 0 l 272 0 l 800 989 z m 988 235 l 913 235 l 913 574 l 776 574 l 507 253 l 507 126 l 779 126 l 779 0 l 913 0 l 913 126 l 988 126 z m 782 433 l 782 235 l 615 235 z "},"¾":{"ha":1160,"x_min":0,"x_max":0,"o":"m 479 583 b 388 721 479 649 444 700 b 465 843 433 746 465 792 b 254 1001 465 940 386 1001 b 35 819 113 1001 40 935 l 163 819 b 253 896 167 875 199 896 b 338 831 306 896 338 872 b 249 761 338 781 304 761 l 204 761 l 204 665 l 246 665 b 346 589 307 665 346 644 b 251 511 346 540 310 511 b 144 615 183 511 146 539 l 17 615 b 254 403 17 483 96 403 b 479 583 397 403 479 479 z m 825 989 l 297 0 l 421 0 l 949 989 z m 1139 235 l 1063 235 l 1063 574 l 928 574 l 657 253 l 657 126 l 929 126 l 929 0 l 1063 0 l 1063 126 l 1139 126 z m 933 435 l 933 235 l 765 235 z "},"⅕":{"ha":1088,"x_min":0,"x_max":0,"o":"m 286 415 l 286 989 l 178 989 b 21 892 149 904 90 892 l 21 799 l 153 799 l 153 415 z m 688 989 l 160 0 l 285 0 l 813 989 z m 868 386 b 767 358 828 386 793 376 l 786 463 l 1040 463 l 1040 574 l 683 574 l 626 236 l 751 236 b 842 289 763 261 792 289 b 940 190 901 289 940 247 b 842 92 940 133 901 92 b 744 165 785 92 753 125 l 618 165 b 842 -12 629 56 719 -12 b 1067 190 968 -12 1067 64 b 868 386 1067 294 999 386 z "},"⅖":{"ha":1260,"x_min":0,"x_max":0,"o":"m 461 526 l 168 526 b 254 611 176 567 206 589 l 293 629 b 458 828 404 678 458 732 b 246 1001 458 924 383 1001 b 26 799 99 1001 33 915 l 156 799 b 244 890 156 860 190 890 b 328 821 299 890 328 865 b 239 726 328 781 300 753 l 197 708 b 19 465 63 650 25 560 l 17 415 l 461 415 z m 860 989 l 332 0 l 457 0 l 985 989 z m 1042 386 b 939 358 1000 386 965 376 l 958 463 l 1213 463 l 1213 574 l 857 574 l 799 236 l 924 236 b 1014 289 936 261 964 289 b 1114 190 1075 289 1114 247 b 1014 92 1114 133 1075 92 b 918 165 957 92 926 125 l 790 165 b 1014 -12 801 56 893 -12 b 1239 190 1140 -12 1239 64 b 1042 386 1239 294 1172 386 z "},"⅗":{"ha":1221,"x_min":0,"x_max":0,"o":"m 479 583 b 388 721 479 649 444 700 b 465 843 433 746 465 792 b 254 1001 465 940 386 1001 b 35 819 113 1001 40 935 l 163 819 b 253 896 167 875 199 896 b 338 831 306 896 338 872 b 249 761 338 781 304 761 l 204 761 l 204 665 l 246 665 b 346 589 307 665 346 644 b 251 511 346 540 310 511 b 144 615 183 511 146 539 l 17 615 b 254 403 17 483 96 403 b 479 583 397 403 479 479 z m 825 989 l 297 0 l 421 0 l 949 989 z m 1004 386 b 901 358 963 386 928 376 l 921 463 l 1175 463 l 1175 574 l 818 574 l 761 236 l 886 236 b 976 289 899 261 926 289 b 1076 190 1038 289 1076 247 b 976 92 1076 133 1038 92 b 881 165 919 92 889 125 l 753 165 b 976 -12 764 56 856 -12 b 1201 190 1103 -12 1201 64 b 1004 386 1201 294 1135 386 z "},"⅘":{"ha":1250,"x_min":0,"x_max":0,"o":"m 432 415 l 432 542 l 508 542 l 508 650 l 432 650 l 432 989 l 297 989 l 26 668 l 26 542 l 299 542 l 299 415 z m 853 989 l 325 0 l 449 0 l 976 989 z m 303 850 l 303 650 l 135 650 z m 1032 386 b 929 358 990 386 956 376 l 949 463 l 1203 463 l 1203 574 l 846 574 l 789 236 l 914 236 b 1004 289 926 261 954 289 b 1104 190 1065 289 1104 247 b 1004 92 1104 133 1065 92 b 908 165 947 92 917 125 l 781 165 b 1004 -12 792 56 883 -12 b 1229 190 1131 -12 1229 64 b 1032 386 1229 294 1163 386 z "},"⅙":{"ha":1069,"x_min":0,"x_max":0,"o":"m 153 415 l 286 415 l 286 989 l 178 989 b 21 892 149 904 90 892 l 21 799 l 153 799 z m 679 989 l 151 0 l 275 0 l 803 989 z m 846 386 b 711 333 792 386 744 367 b 828 485 721 443 757 485 b 915 425 869 485 901 467 l 1040 425 b 828 586 1024 528 944 586 b 589 278 672 586 589 478 b 683 29 589 167 618 78 b 825 -12 721 3 772 -12 b 1049 190 951 -12 1049 64 b 846 386 1049 293 974 386 z m 825 92 b 728 186 765 92 728 133 b 825 283 728 240 765 283 b 922 186 885 283 922 240 b 825 92 922 133 885 92 z "},"⅚":{"ha":1196,"x_min":0,"x_max":0,"o":"m 472 606 b 275 801 472 710 406 801 b 172 772 233 801 199 790 l 192 878 l 446 878 l 446 989 l 89 989 l 32 651 l 157 651 b 247 704 169 681 200 704 b 347 606 308 704 347 663 b 247 507 347 549 308 507 b 150 581 196 507 160 538 l 24 581 b 247 403 35 467 131 403 b 472 606 374 403 472 479 z m 807 989 l 279 0 l 403 0 l 931 989 z m 972 386 b 838 333 918 386 871 367 b 954 485 847 443 883 485 b 1042 425 996 485 1028 467 l 1167 425 b 954 586 1150 528 1071 586 b 715 278 799 586 715 478 b 810 29 715 167 744 78 b 951 -12 847 3 899 -12 b 1175 190 1078 -12 1175 64 b 972 386 1175 293 1100 386 z m 951 92 b 854 186 892 92 854 133 b 951 283 854 240 892 283 b 1049 186 1011 283 1049 240 b 951 92 1049 133 1011 92 z "},"⅛":{"ha":1089,"x_min":0,"x_max":0,"o":"m 153 415 l 286 415 l 286 989 l 178 989 b 21 892 149 904 90 892 l 21 799 l 153 799 z m 676 989 l 149 0 l 272 0 l 800 989 z m 971 303 b 1038 425 1014 332 1038 375 b 831 586 1038 522 963 586 b 624 425 699 586 624 522 b 692 303 624 375 647 331 b 599 163 628 275 599 225 b 831 -12 599 61 685 -12 b 1064 163 979 -12 1064 61 b 971 303 1064 225 1035 275 z m 831 490 b 919 417 885 490 919 463 b 831 343 919 372 886 343 b 743 417 776 343 743 372 b 831 490 743 463 778 490 z m 831 90 b 728 174 764 90 728 124 b 831 257 728 225 765 257 b 935 174 897 257 935 225 b 831 90 935 124 900 90 z "},"⅜":{"ha":1235,"x_min":0,"x_max":0,"o":"m 479 583 b 388 721 479 649 444 700 b 465 843 433 746 465 792 b 254 1001 465 940 386 1001 b 35 819 113 1001 40 935 l 163 819 b 253 896 167 875 199 896 b 338 831 306 896 338 872 b 249 761 338 781 304 761 l 204 761 l 204 665 l 246 665 b 346 589 307 665 346 644 b 251 511 346 540 310 511 b 144 615 183 511 146 539 l 17 615 b 254 403 17 483 96 403 b 479 583 397 403 479 479 z m 821 989 l 293 0 l 418 0 l 946 989 z m 1115 303 b 1183 425 1160 331 1183 375 b 976 586 1183 522 1108 586 b 769 425 844 586 769 522 b 838 303 769 375 793 331 b 743 163 774 275 743 225 b 976 -12 743 61 829 -12 b 1210 163 1124 -12 1210 61 b 1115 303 1210 225 1181 275 z m 976 490 b 1065 417 1031 490 1065 463 b 976 343 1065 372 1032 343 b 888 417 922 343 888 372 b 976 490 888 463 924 490 z m 976 90 b 874 174 908 90 874 124 b 976 257 874 225 911 257 b 1079 174 1043 257 1079 225 b 976 90 1079 124 1044 90 z "},"⅝":{"ha":1221,"x_min":0,"x_max":0,"o":"m 472 606 b 275 801 472 710 406 801 b 172 772 233 801 199 790 l 192 878 l 446 878 l 446 989 l 89 989 l 32 651 l 157 651 b 247 704 169 681 200 704 b 347 606 308 704 347 663 b 247 507 347 549 308 507 b 150 581 196 507 160 538 l 24 581 b 247 403 35 467 131 403 b 472 606 374 403 472 479 z m 808 989 l 281 0 l 404 0 l 932 989 z m 1101 303 b 1169 425 1146 331 1169 375 b 963 586 1169 522 1094 586 b 756 425 831 586 756 522 b 824 303 756 375 779 331 b 731 163 760 275 731 225 b 963 -12 731 61 815 -12 b 1196 163 1110 -12 1196 61 b 1101 303 1196 225 1167 275 z m 963 490 b 1051 417 1017 490 1051 463 b 963 343 1051 372 1018 343 b 875 417 908 343 875 372 b 963 490 875 463 910 490 z m 963 90 b 860 174 894 90 860 124 b 963 257 860 225 897 257 b 1067 174 1029 257 1067 225 b 963 90 1067 124 1031 90 z "},"⅞":{"ha":1086,"x_min":0,"x_max":0,"o":"m 251 415 b 431 881 251 638 311 764 l 431 989 l 21 989 l 21 878 l 299 878 b 110 415 192 769 111 603 z m 671 989 l 143 0 l 267 0 l 794 989 z m 968 303 b 1035 425 1011 332 1035 375 b 829 586 1035 522 960 586 b 622 425 697 586 622 522 b 690 303 622 375 646 331 b 596 163 625 275 596 225 b 829 -12 596 61 682 -12 b 1063 163 976 -12 1063 61 b 968 303 1063 225 1033 275 z m 829 490 b 917 417 882 490 917 463 b 829 343 917 372 883 343 b 740 417 774 343 740 372 b 829 490 740 463 775 490 z m 829 90 b 726 174 761 90 726 124 b 829 257 726 225 763 257 b 932 174 894 257 932 225 b 829 90 932 124 897 90 z "},"…":{"ha":1001,"x_min":0,"x_max":0,"o":"m 53 0 l 257 0 l 257 199 l 53 199 z m 403 0 l 607 0 l 607 199 l 403 199 z m 746 0 l 949 0 l 949 199 l 746 199 z "},"¡":{"ha":310,"x_min":0,"x_max":0,"o":"m 53 615 l 257 615 l 257 814 l 53 814 z m 61 -175 l 249 -175 l 249 79 l 203 513 l 104 513 l 61 79 z "},"¿":{"ha":738,"x_min":0,"x_max":0,"o":"m 281 615 l 483 615 l 483 814 l 281 814 z m 363 -197 b 708 131 581 -197 708 -92 l 532 131 b 365 -47 526 -1 474 -47 b 219 79 263 -47 219 3 b 329 231 219 146 274 189 b 436 343 372 264 414 297 b 467 513 460 389 467 419 l 297 513 b 278 406 297 460 296 435 b 178 308 258 371 221 342 b 32 65 86 240 32 165 b 363 -197 32 -106 164 -197 z "},"·":{"ha":310,"x_min":0,"x_max":0,"o":"m 53 394 l 257 394 l 257 594 l 53 594 z "},"•":{"ha":514,"x_min":0,"x_max":0,"o":"m 81 224 l 433 224 l 433 567 l 81 567 z "},"‽":{"ha":738,"x_min":0,"x_max":0,"o":"m 375 1011 b 29 683 157 1011 29 906 l 206 683 b 372 861 211 815 265 861 b 518 735 475 861 518 811 b 447 614 518 683 486 647 l 424 775 l 311 775 l 276 590 l 281 301 l 440 301 b 460 408 440 354 442 379 b 561 506 479 443 517 472 b 706 749 651 574 706 649 b 375 1011 706 919 574 1011 z m 258 0 l 461 0 l 461 199 l 258 199 z "},"⸘":{"ha":738,"x_min":0,"x_max":0,"o":"m 479 814 l 276 814 l 276 615 l 479 615 z m 532 131 b 365 -47 526 -1 474 -47 b 219 79 263 -47 219 3 b 290 200 219 131 251 167 l 314 39 l 426 39 l 461 224 l 457 513 l 297 513 b 278 406 297 460 296 435 b 178 308 258 371 221 342 b 32 65 86 240 32 165 b 363 -197 32 -106 164 -197 b 708 131 581 -197 708 -92 z "},"₍":{"ha":240,"x_min":0,"x_max":0,"o":"m 118 -382 l 240 -382 b 160 13 190 -256 160 -132 b 240 410 160 167 190 292 l 118 410 b 36 13 60 279 36 175 b 118 -382 36 -147 60 -250 z "},"₎":{"ha":240,"x_min":0,"x_max":0,"o":"m 0 -383 l 122 -383 b 206 11 181 -251 206 -147 b 122 410 206 175 181 278 l 0 410 b 82 11 50 292 82 167 b 0 -383 82 -133 51 -257 z "},"⁽":{"ha":240,"x_min":0,"x_max":0,"o":"m 118 625 l 240 625 b 160 1019 190 751 160 875 b 240 1418 160 1175 190 1300 l 118 1418 b 36 1019 60 1286 36 1183 b 118 625 36 861 60 757 z "},"⁾":{"ha":240,"x_min":0,"x_max":0,"o":"m 0 625 l 122 625 b 206 1019 181 757 206 861 b 122 1418 206 1183 181 1286 l 0 1418 b 82 1019 50 1300 82 1175 b 0 625 82 875 51 751 z "},"­":{"ha":506,"x_min":0,"x_max":0,"o":"m 46 315 l 458 315 l 458 465 l 46 465 z "},"–":{"ha":733,"x_min":0,"x_max":0,"o":"m 46 315 l 688 315 l 688 465 l 46 465 z "},"—":{"ha":1350,"x_min":0,"x_max":0,"o":"m 46 315 l 1304 315 l 1304 465 l 46 465 z "},"‑":{"ha":506,"x_min":0,"x_max":0,"o":"m 46 315 l 458 315 l 458 465 l 46 465 z "},"‚":{"ha":297,"x_min":0,"x_max":0,"o":"m 53 186 l 53 0 l 135 0 l 135 -22 b 75 -111 135 -79 117 -108 l 53 -111 l 53 -207 l 76 -207 b 244 -15 185 -201 244 -144 l 244 186 z "},"„":{"ha":549,"x_min":0,"x_max":0,"o":"m 53 0 l 135 0 l 135 -22 b 75 -111 135 -79 117 -108 l 53 -111 l 53 -207 l 76 -207 b 244 -15 185 -201 244 -144 l 244 186 l 53 186 z m 306 186 l 306 0 l 388 0 l 388 -22 b 328 -111 388 -79 369 -108 l 306 -111 l 306 -207 l 328 -207 b 496 -15 436 -201 496 -144 l 496 186 z "},"“":{"ha":549,"x_min":0,"x_max":0,"o":"m 53 796 l 53 596 l 244 596 l 244 782 l 163 782 l 163 804 b 222 893 163 860 181 889 l 244 893 l 244 989 l 221 988 b 53 796 113 983 53 926 z m 474 893 l 496 893 l 496 989 l 472 988 b 306 796 365 983 306 926 l 306 596 l 496 596 l 496 782 l 414 782 l 414 804 b 474 893 414 860 432 889 z "},"”":{"ha":549,"x_min":0,"x_max":0,"o":"m 53 803 l 135 803 l 135 781 b 75 692 135 724 117 694 l 53 692 l 53 596 l 76 596 b 244 788 185 601 244 658 l 244 989 l 53 989 z m 306 989 l 306 803 l 388 803 l 388 781 b 328 692 388 724 369 694 l 306 692 l 306 596 l 328 596 b 496 788 436 601 496 658 l 496 989 z "},"‘":{"ha":297,"x_min":0,"x_max":0,"o":"m 222 893 l 244 894 l 244 990 l 221 989 b 53 797 113 985 53 926 l 53 596 l 244 596 l 244 782 l 163 782 l 163 804 b 222 893 163 861 181 890 z "},"’":{"ha":297,"x_min":0,"x_max":0,"o":"m 53 989 l 53 803 l 135 803 l 135 781 b 75 692 135 724 117 694 l 53 690 l 53 594 l 76 596 b 244 788 185 600 244 657 l 244 989 z "},"«":{"ha":683,"x_min":0,"x_max":0,"o":"m 81 272 l 317 79 l 317 251 l 181 363 l 317 474 l 317 646 l 81 453 z m 601 646 l 365 453 l 365 272 l 601 79 l 601 251 l 465 363 l 601 474 z "},"»":{"ha":683,"x_min":0,"x_max":0,"o":"m 81 474 l 217 363 l 81 251 l 81 79 l 317 272 l 317 453 l 81 646 z m 365 646 l 365 474 l 501 363 l 365 251 l 365 79 l 601 272 l 601 453 z "},"‹":{"ha":399,"x_min":0,"x_max":0,"o":"m 317 646 l 81 453 l 81 272 l 317 79 l 317 251 l 181 363 l 317 474 z "},"›":{"ha":399,"x_min":0,"x_max":0,"o":"m 81 646 l 81 474 l 217 363 l 81 251 l 81 79 l 317 272 l 317 453 z "}," ":{"ha":300,"x_min":0,"x_max":0,"o":""}," ":{"ha":317,"x_min":0,"x_max":0,"o":""},"﻿":{"ha":0,"x_min":0,"x_max":0,"o":""},"₿":{"ha":915,"x_min":0,"x_max":0,"o":"m 888 283 b 715 521 888 382 832 478 b 847 733 797 563 847 636 b 585 986 847 856 771 968 l 585 1150 l 482 1150 l 482 989 l 374 989 l 374 1150 l 271 1150 l 271 989 l 81 989 l 81 0 l 271 0 l 271 -161 l 374 -161 l 374 0 l 482 0 l 482 -161 l 585 -161 l 585 1 b 888 283 790 14 888 125 z m 514 835 b 661 710 611 835 661 783 b 514 576 661 628 611 576 l 268 576 l 268 835 z m 533 156 l 268 156 l 268 429 l 533 429 b 696 292 635 429 696 385 b 533 156 696 206 639 156 z "},"¢":{"ha":754,"x_min":0,"x_max":0,"o":"m 729 267 l 554 267 b 442 135 543 192 499 150 l 442 582 b 551 458 496 568 539 528 l 726 458 b 442 731 707 611 601 714 l 442 872 l 344 872 l 344 731 b 39 358 158 710 39 569 b 344 -14 39 147 160 7 l 344 -161 l 442 -161 l 442 -14 b 729 267 600 4 711 107 z m 218 358 b 344 582 218 489 268 561 l 344 135 b 218 358 269 156 218 228 z "},"¤":{"ha":811,"x_min":0,"x_max":0,"o":"m 738 494 b 668 694 738 569 713 640 l 772 799 l 697 874 l 590 767 b 410 818 539 799 478 818 b 225 763 340 818 276 797 l 114 874 l 39 799 l 147 690 b 82 494 106 636 82 568 b 147 299 82 421 106 353 l 39 190 l 114 115 l 225 226 b 410 171 276 192 340 171 b 590 222 478 171 539 190 l 697 115 l 772 190 l 668 294 b 738 494 713 349 738 419 z m 236 494 b 410 667 236 594 311 667 b 583 494 508 667 583 594 b 410 322 583 394 508 322 b 236 494 311 322 236 394 z "},"€":{"ha":1001,"x_min":0,"x_max":0,"o":"m 782 343 b 547 138 756 208 679 138 b 311 350 417 138 342 217 l 581 350 l 581 450 l 299 450 b 297 497 297 465 297 481 b 299 554 297 517 297 536 l 581 554 l 581 656 l 314 656 b 544 850 346 781 421 850 b 775 663 672 850 743 778 l 963 663 b 546 1011 925 844 803 1011 b 122 656 322 1011 171 875 l 0 656 l 0 554 l 108 554 b 106 494 107 535 106 515 b 107 450 106 479 106 464 l 0 450 l 0 350 l 119 350 b 549 -24 164 118 322 -24 b 965 343 794 -24 932 138 z "},"ƒ":{"ha":700,"x_min":0,"x_max":0,"o":"m 608 854 b 669 849 626 854 644 853 l 669 990 b 568 996 638 994 600 996 b 317 758 407 996 340 919 l 289 567 l 136 567 l 136 433 l 268 433 l 199 -39 b 92 -146 186 -118 161 -146 b 32 -142 74 -146 57 -144 l 32 -282 b 132 -287 64 -286 100 -287 b 385 -50 293 -287 361 -212 l 457 433 l 618 433 l 618 567 l 476 567 l 503 747 b 608 854 514 826 540 854 z "},"₺":{"ha":851,"x_min":0,"x_max":0,"o":"m 622 517 b 286 165 622 299 496 165 l 286 511 l 535 621 l 535 728 l 286 618 l 286 717 l 535 826 l 535 933 l 286 824 l 286 989 l 99 989 l 99 742 l 0 699 l 0 592 l 99 635 l 99 536 l 0 493 l 0 386 l 99 429 l 99 0 l 286 0 b 815 517 611 0 815 206 z "},"₼":{"ha":1047,"x_min":0,"x_max":0,"o":"m 629 743 l 614 743 l 614 989 l 431 989 l 431 743 l 415 743 b 67 394 188 743 67 618 l 67 0 l 251 0 l 251 399 b 431 586 251 524 304 585 l 431 115 l 614 115 l 614 586 b 797 399 744 583 797 522 l 797 0 l 979 0 l 979 394 b 629 743 979 618 864 743 z "},"₹":{"ha":868,"x_min":0,"x_max":0,"o":"m 831 989 l 81 989 l 81 865 l 338 865 b 538 744 446 865 518 824 l 81 744 l 81 646 l 538 646 b 338 526 517 567 446 526 l 81 526 l 81 411 l 497 0 l 738 0 l 332 399 l 378 399 b 728 646 563 399 704 486 l 831 646 l 831 744 l 728 744 b 656 889 719 804 694 853 l 831 889 z "},"£":{"ha":783,"x_min":0,"x_max":0,"o":"m 381 354 b 376 406 381 371 379 389 l 629 406 l 629 507 l 346 507 b 317 576 338 531 326 554 b 268 735 290 635 268 689 b 407 857 268 811 318 857 b 574 694 528 857 568 793 l 756 694 b 410 1011 747 883 646 1011 b 78 735 211 1011 78 904 b 140 522 78 657 110 588 b 147 507 143 517 146 513 l 29 507 l 29 406 l 186 406 b 194 346 192 386 194 367 b 51 153 194 256 147 201 l 51 0 l 756 0 l 756 168 l 286 168 b 381 354 339 214 381 275 z "},"₸":{"ha":867,"x_min":0,"x_max":0,"o":"m 22 989 l 22 821 l 844 821 l 844 989 z m 22 521 l 339 521 l 339 0 l 528 0 l 528 521 l 844 521 l 844 689 l 22 689 z "},"¥":{"ha":949,"x_min":0,"x_max":0,"o":"m 940 989 l 733 989 l 625 811 b 479 560 576 729 526 644 b 331 810 432 643 381 726 l 221 989 l 8 989 l 331 472 l 156 472 l 156 371 l 382 371 l 382 268 l 156 268 l 156 167 l 382 167 l 382 0 l 569 0 l 569 167 l 793 167 l 793 268 l 569 268 l 569 371 l 793 371 l 793 472 l 621 472 z "},"∙":{"ha":732,"x_min":0,"x_max":0,"o":"m 244 375 l 488 375 l 488 614 l 244 614 z "},"∕":{"ha":733,"x_min":0,"x_max":0,"o":"m 46 0 l 221 0 l 688 989 l 513 989 z "},"−":{"ha":733,"x_min":0,"x_max":0,"o":"m 46 419 l 688 419 l 688 569 l 46 569 z "},"×":{"ha":733,"x_min":0,"x_max":0,"o":"m 667 688 l 561 793 l 368 600 l 174 793 l 68 688 l 261 496 l 68 303 l 174 197 l 368 390 l 561 197 l 667 303 l 474 496 z "},"÷":{"ha":733,"x_min":0,"x_max":0,"o":"m 286 671 l 449 671 l 449 828 l 286 828 z m 46 419 l 688 419 l 688 569 l 46 569 z m 286 161 l 449 161 l 449 318 l 286 318 z "},"≠":{"ha":733,"x_min":0,"x_max":0,"o":"m 688 563 l 688 696 l 500 696 l 542 813 l 432 851 l 376 696 l 46 696 l 46 563 l 329 563 l 279 426 l 46 426 l 46 293 l 232 293 l 190 176 l 301 139 l 357 293 l 688 293 l 688 426 l 404 426 l 453 563 z "},"≥":{"ha":733,"x_min":0,"x_max":0,"o":"m 46 840 l 46 683 l 174 633 b 513 521 286 594 399 556 b 174 408 399 486 286 447 l 46 358 l 46 203 l 688 440 l 688 601 z m 46 0 l 688 0 l 688 138 l 46 138 z "},"≤":{"ha":733,"x_min":0,"x_max":0,"o":"m 688 683 l 688 840 l 46 601 l 46 440 l 688 203 l 688 358 l 560 408 b 221 521 447 447 335 486 b 560 633 335 556 447 594 z m 46 0 l 688 0 l 688 138 l 46 138 z "},"±":{"ha":733,"x_min":0,"x_max":0,"o":"m 447 606 l 447 810 l 285 810 l 285 606 l 46 606 l 46 456 l 285 456 l 285 253 l 447 253 l 447 456 l 688 456 l 688 606 z m 46 0 l 688 0 l 688 150 l 46 150 z "},"≈":{"ha":733,"x_min":0,"x_max":0,"o":"m 46 518 l 168 518 b 242 592 178 576 206 592 b 346 563 272 592 308 578 b 497 522 392 543 442 522 b 688 739 613 522 682 610 l 565 739 b 492 665 557 683 529 665 b 392 696 464 665 431 679 b 238 735 346 714 292 735 b 46 518 121 735 51 649 z m 46 238 l 168 238 b 242 311 178 296 206 311 b 346 282 272 311 308 297 b 497 242 392 263 442 242 b 688 458 613 242 682 329 l 565 458 b 492 385 557 403 529 385 b 392 415 464 385 431 399 b 238 454 346 433 292 454 b 46 238 121 454 51 368 z "},"¬":{"ha":733,"x_min":0,"x_max":0,"o":"m 46 611 l 46 461 l 525 461 l 525 222 l 688 222 l 688 611 z "},"∞":{"ha":1138,"x_min":0,"x_max":0,"o":"m 832 772 b 569 613 728 772 639 713 b 306 772 499 713 411 772 b 46 494 147 772 46 658 b 306 217 46 331 147 217 b 569 375 411 217 499 275 b 832 217 639 275 728 217 b 1092 494 990 217 1092 331 b 832 772 1092 658 990 772 z m 313 349 b 193 494 246 349 193 404 b 313 640 193 585 246 640 b 493 494 375 640 438 586 b 313 349 439 404 379 349 z m 826 349 b 646 494 760 349 700 404 b 826 640 701 586 763 640 b 944 494 892 640 944 585 b 826 349 944 404 892 349 z "},"∫":{"ha":568,"x_min":0,"x_max":0,"o":"m 136 -279 b 371 -56 308 -279 371 -183 l 371 769 b 463 856 371 825 399 856 b 522 851 483 856 503 854 l 522 989 b 432 996 493 993 461 996 b 197 772 261 996 197 900 l 197 -53 b 107 -139 197 -108 169 -139 b 46 -135 85 -139 65 -137 l 46 -272 b 136 -279 75 -276 108 -279 z "},"Ω":{"ha":1081,"x_min":0,"x_max":0,"o":"m 39 0 l 478 0 l 478 146 b 240 526 319 224 240 364 b 542 846 240 744 365 846 b 839 526 718 846 839 744 b 606 146 839 364 763 224 l 606 0 l 1042 0 l 1042 164 l 826 164 l 826 167 b 1029 554 960 258 1029 394 b 539 1010 1029 833 839 1010 b 50 554 242 1010 50 833 b 254 167 50 394 121 258 l 254 164 l 39 164 z "},"∆":{"ha":940,"x_min":0,"x_max":0,"o":"m 576 989 l 357 989 l 35 160 l 35 0 l 906 0 l 906 160 z m 465 821 b 588 485 506 706 553 575 l 708 165 l 226 165 l 346 485 b 465 821 381 574 426 706 z "},"∏":{"ha":996,"x_min":0,"x_max":0,"o":"m 81 989 l 81 -272 l 268 -272 l 268 822 l 728 822 l 728 -272 l 915 -272 l 915 989 z "},"∑":{"ha":842,"x_min":0,"x_max":0,"o":"m 561 -107 b 275 -110 465 -107 371 -107 b 454 106 336 -37 396 33 l 617 306 l 617 411 l 454 611 b 275 826 394 685 336 754 b 561 824 371 824 465 824 l 793 824 l 793 990 l 35 990 l 35 839 l 435 358 l 35 -122 l 35 -274 l 807 -274 l 807 -107 z "},"√":{"ha":1008,"x_min":0,"x_max":0,"o":"m 811 989 l 575 265 b 464 -93 539 153 501 26 b 353 264 426 26 389 150 l 293 442 l 18 442 l 18 276 l 164 276 l 357 -272 l 578 -272 l 999 989 z "},"µ":{"ha":786,"x_min":0,"x_max":0,"o":"m 540 717 l 540 315 b 381 135 540 188 458 135 b 246 271 292 135 246 179 l 246 717 l 71 717 l 71 -272 l 243 -272 l 243 3 b 326 -17 268 -10 296 -17 b 546 104 422 -17 497 31 l 546 0 l 715 0 l 715 717 z "},"∂":{"ha":897,"x_min":0,"x_max":0,"o":"m 532 1011 b 161 736 357 1011 221 911 l 340 736 b 515 867 376 825 443 867 b 665 682 615 867 665 810 b 650 529 665 640 658 583 b 429 650 614 604 535 650 b 50 263 219 650 50 476 b 356 -22 50 85 181 -22 b 588 51 446 -22 524 6 b 839 686 757 172 839 428 b 532 1011 839 894 726 1011 z m 367 129 b 235 267 283 129 235 185 b 449 507 235 394 333 507 b 581 369 533 507 581 451 b 367 129 581 247 488 129 z "},"‰":{"ha":1790,"x_min":0,"x_max":0,"o":"m 269 403 b 511 701 432 403 511 514 b 269 1001 511 890 432 1001 b 28 701 107 1001 28 890 b 269 403 28 514 107 403 z m 299 0 l 425 0 l 953 989 l 826 989 z m 269 514 b 165 701 203 514 165 567 b 269 890 165 838 203 890 b 374 701 338 890 374 838 b 269 514 374 567 338 514 z m 982 -12 b 1224 286 1143 -12 1224 99 b 982 586 1224 475 1143 586 b 740 286 819 586 740 475 b 982 -12 740 99 819 -12 z m 1521 -12 b 1763 286 1683 -12 1763 99 b 1521 586 1763 475 1683 586 b 1279 286 1358 586 1279 475 b 1521 -12 1279 99 1358 -12 z m 982 99 b 876 286 914 99 876 151 b 982 475 876 422 914 475 b 1086 286 1049 475 1086 422 b 982 99 1086 151 1049 99 z m 1521 99 b 1415 286 1454 99 1415 151 b 1521 475 1415 422 1454 475 b 1625 286 1588 475 1625 422 b 1521 99 1625 151 1588 99 z "},"₌":{"ha":429,"x_min":0,"x_max":0,"o":"m 25 47 l 404 47 l 404 149 l 25 149 z m 25 -121 l 404 -121 l 404 -19 l 25 -19 z "},"₋":{"ha":429,"x_min":0,"x_max":0,"o":"m 25 -39 l 404 -39 l 404 65 l 25 65 z "},"⁻":{"ha":429,"x_min":0,"x_max":0,"o":"m 25 967 l 404 967 l 404 1071 l 25 1071 z "},"₊":{"ha":429,"x_min":0,"x_max":0,"o":"m 404 65 l 272 65 l 272 200 l 156 200 l 156 65 l 25 65 l 25 -39 l 156 -39 l 156 -172 l 272 -172 l 272 -39 l 404 -39 z "},"⁺":{"ha":429,"x_min":0,"x_max":0,"o":"m 404 1071 l 272 1071 l 272 1206 l 156 1206 l 156 1071 l 25 1071 l 25 967 l 156 967 l 156 833 l 272 833 l 272 967 l 404 967 z "},"↑":{"ha":1328,"x_min":0,"x_max":0,"o":"m 664 1011 l 169 638 l 169 422 l 399 596 b 572 731 464 644 518 688 l 572 0 l 753 0 l 753 733 b 929 596 808 688 863 646 l 1158 422 l 1158 638 z "},"↗":{"ha":1328,"x_min":0,"x_max":0,"o":"m 356 929 l 199 765 l 582 765 b 825 768 663 765 743 765 l 215 178 l 336 49 l 946 639 b 943 397 943 558 943 478 l 943 32 l 1117 192 l 1117 929 z "},"→":{"ha":1328,"x_min":0,"x_max":0,"o":"m 796 989 l 574 989 l 747 760 b 889 578 797 692 842 635 l 158 578 l 158 413 l 890 413 b 747 229 843 356 799 299 l 574 0 l 796 0 l 1169 494 z "},"↘":{"ha":1328,"x_min":0,"x_max":0,"o":"m 943 957 l 943 593 b 946 350 943 513 943 431 l 336 942 l 215 811 l 824 222 b 582 225 743 225 663 225 l 199 225 l 356 60 l 1117 60 l 1117 797 z "},"↓":{"ha":1328,"x_min":0,"x_max":0,"o":"m 929 393 b 753 256 863 343 808 301 l 753 989 l 572 989 l 572 258 b 399 393 518 301 464 344 l 169 567 l 169 351 l 664 -22 l 1158 351 l 1158 567 z "},"↙":{"ha":1328,"x_min":0,"x_max":0,"o":"m 746 217 b 503 214 665 217 585 217 l 1113 804 l 992 933 l 382 343 b 385 585 385 424 385 504 l 385 949 l 211 790 l 211 53 l 972 53 l 1129 217 z "},"←":{"ha":1328,"x_min":0,"x_max":0,"o":"m 1169 578 l 439 578 b 581 760 486 635 531 692 l 754 989 l 532 989 l 158 494 l 532 0 l 754 0 l 581 229 b 438 413 529 299 485 356 l 1169 413 z "},"↖":{"ha":1328,"x_min":0,"x_max":0,"o":"m 746 765 l 1129 765 l 972 929 l 211 929 l 211 192 l 385 32 l 385 397 b 382 639 385 478 385 558 l 992 49 l 1113 178 l 503 768 b 746 765 585 765 665 765 z "},"↔":{"ha":1328,"x_min":0,"x_max":0,"o":"m 985 989 l 781 989 l 940 758 l 1069 578 l 258 578 l 388 760 l 546 989 l 343 989 l 0 494 l 344 0 l 544 0 l 388 226 b 256 414 342 293 300 354 l 1072 414 b 940 226 1028 354 986 293 l 781 0 l 985 0 l 1328 494 z "},"↕":{"ha":1328,"x_min":0,"x_max":0,"o":"m 753 58 l 753 931 b 929 793 808 885 863 843 l 1158 619 l 1158 835 l 664 1208 l 169 835 l 169 619 l 399 793 b 572 928 464 842 518 885 l 572 61 b 399 196 518 104 464 147 l 169 369 l 169 154 l 664 -219 l 1158 154 l 1158 369 l 929 196 b 753 58 863 146 808 104 z "},"●":{"ha":1328,"x_min":0,"x_max":0,"o":"m 664 -149 b 1328 494 1036 -149 1328 136 b 664 1138 1328 853 1036 1138 b 0 494 292 1138 0 853 b 664 -149 0 136 292 -149 z "},"○":{"ha":1328,"x_min":0,"x_max":0,"o":"m 664 -149 b 1328 494 1038 -149 1328 136 b 664 1138 1328 853 1038 1138 b 0 494 290 1138 0 853 b 664 -149 0 136 290 -149 z m 664 -7 b 153 494 376 -7 153 211 b 664 996 153 778 376 996 b 1176 494 953 996 1176 778 b 664 -7 1176 211 953 -7 z "},"◊":{"ha":828,"x_min":0,"x_max":0,"o":"m 510 989 l 318 989 l 29 494 l 318 0 l 510 0 l 799 494 z m 414 158 l 219 494 l 414 831 l 608 494 z "},"■":{"ha":1328,"x_min":0,"x_max":0,"o":"m 33 -122 l 1294 -122 l 1294 1111 l 33 1111 z "},"□":{"ha":1328,"x_min":0,"x_max":0,"o":"m 33 -122 l 1294 -122 l 1294 1111 l 33 1111 z m 186 15 l 186 974 l 1142 974 l 1142 15 z "},"":{"ha":1096,"x_min":0,"x_max":0,"o":"m 497 869 l 497 671 l 574 671 l 574 882 b 463 997 574 958 529 997 b 365 946 418 997 386 975 l 365 1110 l 289 1110 l 289 671 l 365 671 l 365 850 b 436 929 365 906 403 929 b 497 869 476 929 497 910 z m 1010 1110 l 933 1110 l 933 671 l 1010 671 z m 754 664 b 903 769 832 664 888 706 l 828 769 b 756 724 817 742 793 724 b 672 807 711 724 678 750 l 911 807 l 911 825 b 754 997 911 926 851 997 b 597 831 660 997 597 931 b 754 664 597 728 661 664 z m 753 936 b 833 861 799 936 828 907 l 674 861 b 753 936 682 913 713 936 z m 1010 496 b 853 668 1010 596 950 668 b 696 501 757 668 696 601 b 853 335 696 399 760 335 b 1001 440 931 335 986 375 l 926 440 b 854 394 915 411 892 394 b 771 476 810 394 776 419 l 1010 476 z m 596 339 l 715 657 l 635 657 l 594 536 b 553 408 581 492 565 450 b 513 536 542 450 526 492 l 471 657 l 389 657 l 507 339 z m 851 607 b 932 531 899 607 926 576 l 772 531 b 851 607 779 583 810 607 z m 294 433 l 294 360 l 371 360 l 371 433 z m 208 410 l 131 410 l 131 317 l 81 317 l 81 258 l 131 258 l 131 78 b 231 -3 131 19 163 -3 b 271 -1 243 -3 257 -3 l 271 58 l 244 58 b 208 86 218 58 208 65 l 208 258 l 271 258 l 271 317 l 208 317 z m 1013 0 b 1003 72 1007 14 1003 47 l 1003 229 b 869 326 1003 288 964 326 b 726 218 771 326 732 285 l 803 218 b 869 268 807 256 825 268 b 926 228 914 268 926 253 b 881 192 926 206 914 194 l 833 188 b 713 89 743 179 713 142 b 825 -7 713 26 758 -7 b 928 38 872 -7 907 10 b 933 0 928 24 931 10 z m 551 56 b 472 158 506 56 472 88 b 551 260 472 228 504 260 b 621 203 585 260 614 242 l 699 203 b 551 325 689 276 633 325 b 394 158 456 325 394 260 b 551 -8 394 56 456 -8 b 700 118 632 -8 692 39 l 622 118 b 551 56 615 75 586 56 z m 294 0 l 372 0 l 372 318 l 294 318 z m 844 49 b 792 92 808 49 792 65 b 849 136 792 117 806 131 l 890 142 b 926 156 907 144 918 147 l 926 126 b 844 49 926 69 886 49 z "},"¶":{"ha":790,"x_min":0,"x_max":0,"o":"m 343 0 l 482 0 l 482 854 l 569 854 l 569 0 l 710 0 l 710 989 l 367 989 b 39 743 157 989 39 911 b 343 504 39 588 164 504 z "},"§":{"ha":819,"x_min":0,"x_max":0,"o":"m 790 300 b 550 588 790 428 697 503 l 407 672 b 290 797 340 711 290 743 b 406 886 290 851 328 886 b 539 768 479 886 535 860 l 704 768 b 407 1011 699 915 610 1011 b 118 789 221 1011 118 929 b 197 631 118 722 147 674 b 32 425 92 589 32 518 b 272 138 32 297 126 222 l 417 53 b 533 -72 483 13 533 -18 b 418 -161 533 -128 496 -161 b 285 -44 344 -161 289 -136 l 119 -44 b 415 -286 124 -190 214 -286 b 706 -64 603 -286 706 -204 b 625 94 706 3 676 50 b 790 300 731 136 790 207 z m 481 190 l 335 276 b 204 426 251 326 204 367 b 315 550 204 476 236 528 l 343 533 l 489 449 b 619 297 572 399 619 358 b 507 175 619 247 586 197 b 481 190 499 181 489 185 z "},"©":{"ha":1129,"x_min":0,"x_max":0,"o":"m 564 -22 b 1089 494 867 -22 1089 207 b 564 1013 1089 783 867 1013 b 39 494 263 1013 39 783 b 564 -22 39 207 263 -22 z m 564 100 b 172 494 336 100 172 272 b 564 889 172 717 336 889 b 958 494 794 889 958 717 b 564 100 958 272 794 100 z m 568 201 b 828 426 715 201 815 290 l 692 426 b 568 318 682 353 633 318 b 435 494 483 318 435 381 b 568 672 435 610 483 672 b 688 568 631 672 678 638 l 826 568 b 568 788 813 701 715 788 b 296 494 403 788 296 674 b 568 201 296 317 404 201 z "},"®":{"ha":783,"x_min":0,"x_max":0,"o":"m 392 1011 b 38 667 193 1011 38 860 b 392 324 38 476 193 324 b 746 667 592 324 746 476 b 392 1011 746 860 592 1011 z m 392 399 b 117 667 236 399 117 514 b 392 938 117 821 236 938 b 667 667 549 938 667 821 b 392 399 667 514 549 399 z m 535 590 b 493 664 533 624 524 650 b 543 746 528 681 543 711 b 415 849 543 811 494 849 l 254 849 l 254 493 l 335 493 l 335 625 l 410 625 b 454 579 442 625 451 614 l 457 542 b 469 493 458 521 461 506 l 554 493 b 539 542 544 506 540 519 z m 335 692 l 335 779 l 408 779 b 460 736 442 779 460 764 b 411 692 460 708 442 692 z "},"℗":{"ha":1125,"x_min":0,"x_max":0,"o":"m 561 1013 b 38 494 260 1013 38 783 b 561 -22 38 207 260 -22 b 1088 494 864 -22 1088 207 b 561 1013 1088 783 864 1013 z m 563 100 b 169 494 333 100 169 272 b 563 889 169 717 333 889 b 956 494 792 889 956 717 b 563 100 956 272 792 100 z m 610 771 l 376 771 l 376 217 l 501 217 l 501 390 l 610 390 b 819 581 738 390 819 468 b 610 771 819 693 738 771 z m 606 503 l 501 503 l 501 658 l 606 658 b 693 581 664 658 693 628 b 606 503 693 535 663 503 z "},"™":{"ha":782,"x_min":0,"x_max":0,"o":"m 32 914 l 140 914 l 140 633 l 222 633 l 222 914 l 329 914 l 329 989 l 32 989 z m 642 989 l 583 822 b 563 753 575 799 568 774 l 542 819 l 482 989 l 374 989 l 374 633 l 453 633 l 453 744 b 451 857 453 779 453 817 b 460 832 454 850 457 842 l 529 633 l 594 633 l 664 832 b 672 857 667 842 669 850 b 671 744 671 817 671 779 l 671 633 l 750 633 l 750 989 z "},"℅":{"ha":1390,"x_min":0,"x_max":0,"o":"m 314 407 b 586 636 456 407 567 489 l 453 636 b 314 522 438 564 382 522 b 168 706 219 522 168 592 b 314 890 168 819 219 890 b 450 782 383 890 435 851 l 586 782 b 314 1006 564 926 453 1006 b 28 706 136 1006 28 889 b 314 407 28 524 143 407 z m 363 0 l 488 0 l 1015 989 l 890 989 z m 1068 -12 b 1363 286 1243 -12 1363 106 b 1068 586 1363 468 1243 586 b 775 286 894 586 775 468 b 1068 -12 775 106 894 -12 z m 1068 104 b 915 286 976 104 915 172 b 1068 469 915 400 975 469 b 1222 286 1163 469 1222 400 b 1068 104 1222 172 1161 104 z "},"°":{"ha":482,"x_min":0,"x_max":0,"o":"m 240 613 b 444 807 357 613 444 701 b 240 1001 444 915 357 1001 b 38 807 125 1001 38 915 b 240 613 38 701 125 613 z m 240 719 b 153 807 192 719 153 757 b 240 893 153 857 192 893 b 328 807 290 893 328 857 b 240 719 328 757 290 719 z "},"¦":{"ha":310,"x_min":0,"x_max":0,"o":"m 81 553 l 229 553 l 229 1107 l 81 1107 z m 81 -283 l 229 -283 l 229 271 l 81 271 z "},"ℓ":{"ha":649,"x_min":0,"x_max":0,"o":"m 390 122 b 314 218 347 122 314 153 l 314 335 b 586 768 493 418 586 574 b 378 1011 586 936 508 1011 b 140 746 219 1011 140 911 l 140 394 b 22 378 104 386 64 381 l 42 271 b 140 282 76 274 108 276 l 140 207 b 351 -14 140 76 217 -14 b 563 64 438 -14 514 19 l 514 165 b 390 122 483 142 435 122 z m 314 747 b 390 872 314 826 336 872 b 457 763 433 872 457 840 b 314 469 457 636 407 536 z "},"†":{"ha":824,"x_min":0,"x_max":0,"o":"m 801 717 l 507 717 l 507 989 l 317 989 l 317 717 l 22 717 l 22 556 l 317 556 l 317 -203 l 507 -203 l 507 556 l 801 556 z "},"‡":{"ha":824,"x_min":0,"x_max":0,"o":"m 801 556 l 801 717 l 507 717 l 507 989 l 317 989 l 317 717 l 22 717 l 22 556 l 317 556 l 317 231 l 22 231 l 22 69 l 317 69 l 317 -203 l 507 -203 l 507 69 l 801 69 l 801 231 l 507 231 l 507 556 z "},"№":{"ha":1578,"x_min":0,"x_max":0,"o":"m 1274 1003 b 1004 725 1113 1003 1004 893 b 1274 447 1004 558 1113 447 b 1540 725 1431 447 1540 558 b 1274 1003 1540 893 1431 1003 z m 735 731 b 740 251 735 585 736 426 b 565 549 690 344 621 458 l 289 989 l 81 989 l 81 0 l 261 0 l 261 258 b 256 738 261 404 261 563 b 432 440 306 642 369 539 l 707 0 l 915 0 l 915 989 l 735 989 z m 1274 585 b 1153 725 1200 585 1153 638 b 1274 868 1153 813 1200 868 b 1392 725 1346 868 1392 813 b 1274 585 1392 638 1346 585 z "},"℮":{"ha":1265,"x_min":0,"x_max":0,"o":"m 633 1011 b 69 494 282 1011 69 785 b 633 -18 69 197 292 -18 b 1085 179 872 -18 1019 88 l 983 179 b 633 19 907 86 776 19 b 300 153 496 19 385 69 b 278 218 282 169 278 188 l 278 463 b 297 481 278 472 286 481 l 1194 481 b 633 1011 1194 765 989 1011 z m 633 972 b 963 836 746 972 863 935 b 985 775 981 819 985 803 l 985 531 b 965 513 985 519 976 513 l 297 513 b 278 531 286 513 278 519 l 278 775 b 300 836 278 803 282 819 b 633 972 385 921 496 972 z "},"ˉ":{"ha":556,"x_min":0,"x_max":0,"o":"m 57 810 l 499 810 l 499 932 l 57 932 z "},"̈":{"ha":0,"x_min":0,"x_max":0,"o":"m -222 810 l -50 810 l -50 974 l -222 974 z m 50 810 l 222 810 l 222 974 l 50 974 z "},"̇":{"ha":0,"x_min":0,"x_max":0,"o":"m -86 810 l 86 810 l 86 974 l -86 974 z "},"̀":{"ha":0,"x_min":0,"x_max":0,"o":"m 18 810 l 161 810 l 40 1010 l -161 1010 z "},"́":{"ha":0,"x_min":0,"x_max":0,"o":"m -161 810 l -18 810 l 161 1010 l -40 1010 z "},"̋":{"ha":0,"x_min":0,"x_max":0,"o":"m -300 810 l -162 810 l 22 1010 l -178 1010 z m -22 810 l 115 810 l 300 1010 l 100 1010 z "},"̂":{"ha":0,"x_min":0,"x_max":0,"o":"m 267 810 l 104 1010 l -106 1010 l -267 810 l -107 810 l 0 919 l 107 810 z "},"̌":{"ha":0,"x_min":0,"x_max":0,"o":"m 107 1008 l 0 897 l -107 1008 l -267 1008 l -104 808 l 106 808 l 267 1008 z "},"̆":{"ha":0,"x_min":0,"x_max":0,"o":"m 0 803 b 233 1010 126 803 215 881 l 101 1010 b 0 915 94 947 56 915 b -101 1010 -57 915 -94 947 l -233 1010 b 0 803 -218 881 -126 803 z "},"̊":{"ha":0,"x_min":0,"x_max":0,"o":"m 0 803 b 199 993 111 803 199 882 b 0 1182 199 1103 111 1182 b -199 993 -111 1182 -199 1103 b 0 803 -199 882 -111 803 z m 0 908 b -85 993 -47 908 -85 944 b 0 1076 -85 1040 -47 1076 b 85 993 47 1076 85 1040 b 0 908 85 944 47 908 z "},"̃":{"ha":0,"x_min":0,"x_max":0,"o":"m -250 810 l -133 810 b -94 868 -132 851 -119 868 b -12 843 -71 868 -42 856 b 111 810 26 826 69 810 b 250 993 196 810 250 865 l 133 993 b 94 935 132 950 119 935 b 10 960 67 935 39 947 b -111 993 -26 976 -65 993 b -250 810 -196 993 -250 938 z "},"̄":{"ha":0,"x_min":0,"x_max":0,"o":"m -221 810 l 221 810 l 221 932 l -221 932 z "},"̒":{"ha":0,"x_min":0,"x_max":0,"o":"m 60 1018 l 85 1018 l 85 1088 l 57 1086 b -85 964 -40 1083 -85 1046 l -85 810 l 85 810 l 85 947 l 7 947 l 7 967 b 60 1018 7 999 25 1017 z "},"̓":{"ha":0,"x_min":0,"x_max":0,"o":"m -85 1083 l -85 944 l -7 944 l -7 925 b -60 874 -7 893 -25 876 l -85 874 l -85 806 l -57 806 b 85 928 40 810 85 846 l 85 1083 z "},"̣":{"ha":0,"x_min":0,"x_max":0,"o":"m -86 -257 l 86 -257 l 86 -93 l -86 -93 z "},"̤":{"ha":0,"x_min":0,"x_max":0,"o":"m -222 -257 l -50 -257 l -50 -93 l -222 -93 z m 50 -257 l 222 -257 l 222 -93 l 50 -93 z "},"̥":{"ha":0,"x_min":0,"x_max":0,"o":"m 0 -464 b 196 -278 111 -464 196 -386 b 0 -93 196 -169 111 -93 b -196 -278 -111 -93 -196 -169 b 0 -464 -196 -386 -111 -464 z m 0 -361 b -85 -278 -47 -361 -85 -326 b 0 -194 -85 -231 -47 -194 b 85 -278 47 -194 85 -231 b 0 -361 85 -326 47 -361 z "},"̦":{"ha":0,"x_min":0,"x_max":0,"o":"m -85 -93 l -85 -231 l -7 -231 l -7 -250 b -60 -301 -7 -282 -25 -300 l -85 -301 l -85 -371 l -57 -369 b 85 -247 40 -367 85 -329 l 85 -93 z "},"̧":{"ha":0,"x_min":0,"x_max":0,"o":"m 11 -60 l -7 -60 l 51 7 l -43 7 l -99 -64 l -99 -117 b -62 -115 -82 -115 -72 -115 b 17 -168 -7 -115 17 -136 b -69 -226 17 -204 -14 -226 b -149 -221 -100 -226 -119 -225 l -149 -294 b -57 -303 -122 -299 -83 -303 b 149 -169 90 -303 149 -246 b 11 -60 149 -108 99 -60 z "},"̨":{"ha":0,"x_min":0,"x_max":0,"o":"m 40 -289 b 139 -275 81 -289 118 -282 l 139 -171 b 69 -182 118 -176 96 -182 b 0 -129 39 -182 0 -171 b 139 0 0 -96 29 -51 l 4 0 b -139 -156 -93 -35 -139 -100 b 40 -289 -139 -240 -64 -289 z "},"̮":{"ha":0,"x_min":0,"x_max":0,"o":"m 0 -300 b 233 -93 126 -300 215 -221 l 101 -93 b 0 -186 94 -154 56 -186 b -101 -93 -57 -186 -94 -154 l -233 -93 b 0 -300 -218 -221 -126 -300 z "},"̱":{"ha":0,"x_min":0,"x_max":0,"o":"m -221 -215 l 221 -215 l 221 -93 l -221 -93 z "},"̵":{"ha":0,"x_min":0,"x_max":0,"o":"m -221 324 l 221 324 l 221 432 l -221 432 z "},"̷":{"ha":0,"x_min":0,"x_max":0,"o":"m -299 -60 l 374 706 l 299 772 l -374 7 z "},"̸":{"ha":0,"x_min":0,"x_max":0,"o":"m -421 -75 l 507 971 l 421 1047 l -507 1 z "},"´":{"ha":556,"x_min":0,"x_max":0,"o":"m 119 810 l 263 810 l 442 1010 l 240 1010 z "},"˘":{"ha":556,"x_min":0,"x_max":0,"o":"m 278 803 b 511 1010 404 803 493 881 l 379 1010 b 278 915 372 947 333 915 b 176 1010 221 915 183 947 l 44 1010 b 278 803 60 881 151 803 z "},"ˇ":{"ha":556,"x_min":0,"x_max":0,"o":"m 385 1008 l 278 897 l 171 1008 l 11 1008 l 174 808 l 385 808 l 546 1008 z "},"¸":{"ha":556,"x_min":0,"x_max":0,"o":"m 289 -60 l 272 -60 l 329 7 l 236 7 l 181 -64 l 181 -117 b 215 -115 197 -115 206 -115 b 294 -168 271 -115 294 -136 b 210 -226 294 -204 265 -226 b 131 -221 178 -226 160 -225 l 131 -294 b 222 -303 157 -299 194 -303 b 426 -169 369 -303 426 -246 b 289 -60 426 -108 376 -60 z "},"ˆ":{"ha":556,"x_min":0,"x_max":0,"o":"m 544 810 l 382 1010 l 172 1010 l 11 810 l 171 810 l 278 919 l 385 810 z "},"¨":{"ha":556,"x_min":0,"x_max":0,"o":"m 56 810 l 228 810 l 228 974 l 56 974 z m 328 810 l 500 810 l 500 974 l 328 974 z "},"˙":{"ha":556,"x_min":0,"x_max":0,"o":"m 192 810 l 365 810 l 365 974 l 192 974 z "},"˝":{"ha":556,"x_min":0,"x_max":0,"o":"m -21 810 l 115 810 l 301 1010 l 100 1010 z m 256 810 l 393 810 l 578 1010 l 378 1010 z "},"¯":{"ha":556,"x_min":0,"x_max":0,"o":"m 57 810 l 499 810 l 499 932 l 57 932 z "},"˛":{"ha":556,"x_min":0,"x_max":0,"o":"m 318 -289 b 417 -275 358 -289 396 -282 l 417 -171 b 347 -182 396 -176 374 -182 b 278 -129 317 -182 278 -171 b 417 0 278 -96 307 -51 l 282 0 b 139 -156 185 -35 139 -100 b 318 -289 139 -240 214 -289 z "},"˚":{"ha":556,"x_min":0,"x_max":0,"o":"m 278 803 b 476 993 389 803 476 882 b 278 1182 476 1103 389 1182 b 79 993 167 1182 79 1103 b 278 803 79 882 167 803 z m 278 908 b 193 993 231 908 193 944 b 278 1076 193 1040 231 1076 b 363 993 325 1076 363 1040 b 278 908 363 944 325 908 z "},"˜":{"ha":556,"x_min":0,"x_max":0,"o":"m 28 810 l 144 810 b 183 868 146 851 158 868 b 265 843 207 868 236 856 b 389 810 304 826 347 810 b 528 993 474 810 528 865 l 411 993 b 372 935 410 950 397 935 b 288 960 344 935 317 947 b 167 993 251 976 213 993 b 28 810 82 993 28 938 z "}}}
